<svg width="281" height="283" viewBox="0 0 281 283" fill="none" xmlns="http://www.w3.org/2000/svg">
<path fill-rule="evenodd" clip-rule="evenodd" d="M14.6228 79.0792C32.7214 41.2253 69.4217 11.9909 109.92 3.16917C178.877 -11.8501 250.141 27.8329 273.556 94.2892C281.468 116.747 283.382 152.691 277.801 174.055C249.605 281.982 120.08 319.027 42.267 241.419C13.7151 212.943 0.210167 181.261 0.00335289 142.272C-0.125332 117.852 3.42728 102.5 14.6228 79.0792ZM134.166 223.279C126.397 232.937 110.667 242.467 97.1394 245.714C90.8982 247.21 85.7922 249.278 85.7922 250.31C85.7922 251.339 90.5029 256.328 96.2593 261.397C116.844 279.517 145.633 283.177 170.356 270.824C178.091 266.958 187.124 260.582 190.431 256.652L196.44 249.51L184.204 245.705C167.247 240.436 162.031 237.435 150.134 226.119L139.794 216.284L134.166 223.279ZM154.942 210.294C168.047 208.198 181.138 201.038 191.084 190.522C198.598 182.578 199.857 181.997 202.383 185.306C208.803 193.714 209.079 223.564 202.863 237.062C199.306 244.783 194.004 245.114 176.82 238.685C165.342 234.39 145.538 218.64 145.538 213.805C145.538 212.702 149.769 211.121 154.942 210.294ZM252.351 156.101C242.006 166.697 223.42 176.741 214.162 176.741C205.79 176.741 204.926 178.782 208.757 189.532C212.889 201.134 212.879 221.314 208.734 232.954C206.951 237.961 205.857 242.421 206.303 242.867C208.399 244.963 224.211 240.017 234.857 233.937C248.412 226.195 261.143 210.14 265.197 195.67C268.149 185.133 267.12 157.087 263.544 150.699C261.672 147.351 260.208 148.059 252.351 156.101ZM208.665 118.144C206.845 113.089 205.338 108.803 205.319 108.621C205.168 107.162 225.847 113.417 232.646 116.887C241.043 121.17 258.137 138.017 258.137 142.008C258.137 146.036 239.457 162.586 229.955 166.975C221.596 170.838 205.234 175.376 205.31 173.812C205.324 173.527 206.875 168.218 208.757 162.014C213.029 147.932 212.992 130.151 208.665 118.144ZM205.319 39.4398C205.338 39.7569 206.845 44.1506 208.665 49.206C212.992 61.2127 213.029 78.9942 208.757 93.0759C206.875 99.2803 205.324 104.614 205.31 104.931C205.296 105.248 208.222 105.505 211.811 105.505C221.216 105.505 245.188 118.172 253.328 127.444C257.161 131.808 260.743 135.379 261.29 135.379C264.045 135.379 267.329 119.148 267.329 105.528C267.329 77.1834 250.789 53.386 224.155 43.4152C213.502 39.426 205.214 37.6773 205.319 39.4398ZM148.455 64.2207C154.133 56.1458 167.091 47.0528 178.581 43.082C195.13 37.3625 199.425 37.7347 202.883 45.1846C207.369 54.8497 208.612 78.6862 205.255 90.6768L202.304 101.213L191.732 90.9595C180.001 79.5824 166.916 72.2382 154.091 69.8323C146.586 68.4236 145.945 67.7871 148.455 64.2207ZM122.545 6.40696C108.751 10.9293 85.7922 26.9344 85.7922 32.0266C85.7922 33.0584 89.1518 34.6325 93.2605 35.5218C106.464 38.3804 121.153 46.5427 131.243 56.6237L141.074 66.452L148.062 58.492C157.194 48.0938 168.12 41.4918 184.015 36.7742L196.913 32.9435L188.4 24.432C175.474 11.5061 163.037 6.08295 144.39 5.24191C135.542 4.84437 125.712 5.3683 122.545 6.40696ZM76.6694 93.0713C73.3695 83.073 74.4886 54.8176 78.5767 44.8997C81.1182 38.7366 81.9247 38.3942 90.6293 39.7868C103.273 41.809 119.811 50.5779 128.957 60.1074L136.505 67.971L123.956 70.779C110.488 73.7939 95.2229 83.2775 85.5279 94.6523L79.5165 101.705L76.6694 93.0713ZM62.8128 41.0139C42.8254 47.1149 26.9352 61.0978 18.3776 80.1109C12.9959 92.0694 12.0491 118.298 16.5967 129.448L19.3336 136.158L29.0102 126.768C40.6653 115.46 54.8827 107.813 67.3742 106.137C72.4481 105.457 76.5843 104.777 76.566 104.628C76.5476 104.478 75.0401 100.22 73.2202 95.1647C68.9069 83.1948 68.8242 60.3257 73.0524 48.3466C76.7452 37.8795 75.6491 37.0959 62.8128 41.0139ZM23.7479 141.555C23.7479 135.776 39.2544 121.651 52.2377 115.605C66.6711 108.886 75.5595 108.254 73.126 114.123C68.1165 126.205 69.3183 155.433 75.4446 170.413C76.8716 173.901 76.0788 174.239 69.3734 173.003C50.6751 169.551 23.7479 150.991 23.7479 141.555ZM77.5564 115.01C75.1412 118.918 73.5005 147.647 75.1918 156.43C77.8666 170.33 79.4935 170.691 90.7626 159.895C96.4937 154.403 105.787 148.006 111.412 145.678L121.642 141.447L108.457 134.859C101.204 131.235 92.1368 124.698 88.3038 120.334C80.6149 111.579 79.898 111.223 77.5564 115.01ZM134.049 135.533C134.049 143.192 104.844 131.077 92.8101 118.424L84.8914 110.101H91.1601C94.6093 110.101 101.195 111.675 105.796 113.596C115.102 117.485 134.049 132.196 134.049 135.533ZM119.112 76.1539C109.486 79.5847 93.9843 90.4976 88.035 98.028L83.0347 104.356L88.4348 105.085C101.657 106.866 111.596 110.772 120.826 117.818L130.77 125.408L129.853 110.988C129.251 101.544 130.214 92.8162 132.64 85.6903C134.678 79.7088 136.347 74.481 136.347 74.0743C136.347 72.5186 125.707 73.8031 119.112 76.1539ZM149.24 88.8063C147.205 81.8022 145.538 75.3427 145.538 74.4488C145.538 71.3972 162.752 76.0068 173.879 82.0389C184.528 87.8113 196.093 98.9242 196.093 103.384C196.093 104.552 193.251 105.528 189.774 105.556C182.625 105.613 166.951 112.227 156.75 119.491L149.914 124.36L151.428 112.948C152.453 105.218 151.748 97.4328 149.24 88.8063ZM136.687 86.8899C133.297 98.2049 133.589 118.199 137.294 128.464C140.106 136.252 140.267 136.339 142.889 131.442C149.204 119.64 148.048 83.4705 141.221 79.2515C140.18 78.6081 138.139 82.0435 136.687 86.8899ZM152.469 129.597C156.775 125.153 165.455 118.948 171.753 115.809C178.054 112.67 186.311 110.101 190.102 110.101H196.994L189.163 118.181C179.672 127.972 160.942 137.677 151.529 137.677H144.638L152.469 129.597ZM190.725 121.979C185.879 127.037 176.827 133.531 170.614 136.41L159.317 141.645L169.308 145.46C174.805 147.56 184.096 153.87 189.955 159.486C200.255 169.354 200.696 169.533 203.194 164.866C207.348 157.101 208.495 134.209 205.301 122.795C203.699 117.078 201.748 112.484 200.965 112.59C200.181 112.696 195.574 116.922 190.725 121.979ZM168.888 165.397C164.262 163.011 156.911 157.349 152.556 152.815C145.656 145.63 145.233 144.57 149.275 144.57C158.834 144.57 175.506 152.117 185.626 161.024C191.382 166.093 196.093 171.075 196.093 172.097C196.093 174.763 178.792 170.5 168.888 165.397ZM151.619 169.524C152.736 179.377 150.736 192.838 146.708 202.593C142.464 212.867 171.172 203.317 186.697 189.29C191.844 184.642 195.569 180.05 194.976 179.09C194.383 178.132 189.978 176.718 185.192 175.953C180.403 175.188 170.618 171.029 163.449 166.711L150.41 158.859L151.619 169.524ZM136.604 196.193C133.309 184.325 133.364 166.92 136.733 155.679C140.014 144.727 142.491 146.726 145.92 163.101C148.802 176.856 147.101 194.408 142.241 201.054C139.378 204.972 138.934 204.59 136.604 196.193ZM126.006 162.129C118.126 168.345 98.725 176.695 92.1115 176.718C83.7401 176.748 84.1285 178.787 94.4094 188.787C104.054 198.17 120.592 206.488 129.759 206.564L135.809 206.615L132.422 196.848C130.312 190.768 129.37 181.661 129.926 172.72C130.418 164.822 130.77 158.39 130.71 158.431C130.65 158.471 128.534 160.137 126.006 162.129ZM85.7922 172.456C85.7922 168.802 104.376 153.45 114.202 148.987C124.331 144.389 134.049 143.233 134.049 146.629C134.049 150.205 117.432 163.452 107.74 167.605C95.3815 172.897 85.7922 175.018 85.7922 172.456ZM16.5738 154.298C11.8584 165.475 12.8189 189.631 18.4811 202.299C27.7004 222.923 46.8468 238.448 67.7879 242.279L76.2098 243.82L73.0593 234.983C69.0517 223.748 68.9966 198.825 72.9559 187.739C76.4327 177.996 75.8352 176.762 67.5994 176.691C58.1342 176.61 43.1264 168.664 30.9772 157.301L19.7426 146.79L16.5738 154.298ZM77.5426 234.19C73.9073 224.072 73.4982 198.119 76.8256 188.574C78.2136 184.593 79.7946 181.337 80.3415 181.337C80.8884 181.337 84.3353 184.754 88.0028 188.93C96.3742 198.464 114.126 208.244 126.712 210.257C132.011 211.105 136.347 212.603 136.347 213.589C136.347 218.058 112.209 236.504 101.864 239.939C86.1507 245.158 81.0515 243.954 77.5426 234.19ZM52.4721 246.134C62.5394 254.637 81.41 265.83 91.9437 269.546L101.122 272.784L89.6182 260.956C81.148 252.247 75.3389 248.421 67.5902 246.454C61.804 244.983 54.4828 243 51.3231 242.046C45.8081 240.38 45.8541 240.544 52.4721 246.134ZM7.36364 170.468C4.19938 167.304 3.40659 125.688 6.32268 115.846L8.36554 108.952L10.282 119.293C11.3345 124.98 13.2785 132.253 14.5998 135.457C16.4014 139.825 16.1211 143.771 13.4807 151.257C11.5436 156.745 9.96031 163.896 9.96031 167.15C9.96031 171.548 9.29391 172.398 7.36364 170.468ZM82.3453 17.938C72.2344 22.7889 59.8255 30.4663 54.77 35.0025L45.5783 43.2498L57.6677 38.7596C64.3157 36.2893 72.3309 34.2694 75.4767 34.2694C78.6226 34.2694 81.1963 33.217 81.1963 31.9324C81.1963 30.6479 86.0358 24.9605 91.9483 19.2938C97.8609 13.6271 102.257 9.01972 101.715 9.05648C101.172 9.09095 92.4562 13.0871 82.3453 17.938ZM206.434 34.1109C203.906 33.9408 197.185 28.5958 191.497 22.2328C182.413 12.0691 181.855 10.8742 186.901 12.3862C196.842 15.3666 217.556 27.1596 227.115 35.2782L236.307 43.0843L223.668 38.7527C216.717 36.3697 208.962 34.2809 206.434 34.1109ZM270.002 120.748C266.15 138.01 266.178 144.876 270.174 161.782C273.35 175.216 273.465 175.36 274.974 167.814C276.898 158.192 276.597 120.044 274.538 112.705C273.299 108.293 272.444 109.807 270.002 120.748ZM212.857 246.962C218.172 246.132 225.105 243.99 228.264 242.2C237.313 237.078 237.019 238.344 227.115 247.146C218.532 254.772 194.25 268.431 183.165 271.869C179.952 272.864 182.544 269.121 190.739 260.926C200.569 251.093 205.232 248.15 212.857 246.962Z" fill="white"/>
</svg>
