<svg width="274" height="276" viewBox="0 0 274 276" fill="none" xmlns="http://www.w3.org/2000/svg">
<path fill-rule="evenodd" clip-rule="evenodd" d="M119.694 1.13498C67.1549 8.34892 25.9212 41.3718 7.17836 91.2421C0.900879 107.942 0.170512 112.467 0.0114466 135.603C-0.194666 165.55 2.28766 176.331 15.228 201.694C28.2512 227.22 50.07 248.688 75.1127 260.609C98.4549 271.721 113.109 275.173 136.483 275.066C188.804 274.824 235.84 246.031 258.284 200.506C279.229 158.016 279.238 117.692 258.313 75.2437C233.423 24.7483 175.037 -6.46431 119.694 1.13498ZM117.955 6.71347C103.794 11.1359 83.8478 25.3241 83.8478 30.9743C83.8478 33.6918 98.5804 30.8847 107.293 26.507C114.615 22.8283 130.895 8.13833 130.895 5.20795C130.895 2.92727 129.596 3.07961 117.955 6.71347ZM143.414 8.36237C154.264 20.9599 167.149 28.9199 180.849 31.4896C191.488 33.4857 191.49 30.5912 180.857 21.2534C171.827 13.3248 158.761 7.01816 146.775 4.80244L139.133 3.38878L143.414 8.36237ZM133.071 13.504C129.435 22.0689 129.372 49.5289 132.97 58.3111L135.723 65.0322L138.911 57.4934C142.888 48.0861 142.886 22.4587 138.911 13.504L135.925 6.78292L133.071 13.504ZM77.8885 17.9085C69.3505 22.1809 58.3772 29.2246 53.5044 33.5596L44.6416 41.4457L52.9712 38.1165C57.5528 36.2862 64.1372 34.7874 67.6052 34.7874C72.3033 34.7874 76.9655 31.6464 85.8865 22.4654C92.4732 15.6883 96.862 10.1435 95.6366 10.1435C94.4133 10.1435 86.4265 13.6384 77.8885 17.9085ZM186.006 22.2234C194.268 31.3148 198.648 34.3886 203.707 34.644C207.403 34.8299 214.461 36.3915 219.389 38.1121L228.351 41.2418L219.389 33.4633C211.429 26.5541 181.465 10.1435 176.809 10.1435C175.83 10.1435 179.968 15.5785 186.006 22.2234ZM145.458 35.9075C145.458 54.5563 145.487 54.6526 149.938 50.5707C155.75 45.2409 171.316 37.0344 175.669 37.0053C177.535 36.9941 173.518 34.4065 166.741 31.2566C159.964 28.1066 152.403 23.6416 149.938 21.3318C145.48 17.158 145.458 17.2297 145.458 35.9075ZM120.814 22.7813C118.349 24.7259 111.292 28.716 105.131 31.6509C98.9702 34.5835 95.4999 36.9941 97.4221 37.0053C99.3421 37.0188 106.484 40.3815 113.291 44.4814L125.669 51.9328V35.52C125.669 26.4913 125.583 19.1362 125.48 19.1766C125.377 19.2147 123.278 20.8389 120.814 22.7813ZM48.9162 44.8331C42.7754 47.8935 34.3136 53.9424 30.1151 58.2753C23.4546 65.1464 23.0558 66.1524 27.001 66.1524C36.76 66.1524 53.0384 58.5284 63.1492 49.2197L73.7662 39.4451L66.9242 39.3577C63.1626 39.3084 55.0593 41.7728 48.9162 44.8331ZM85.8753 43.3523C90.4815 51.9575 115.795 65.7917 127.414 66.0538C131.088 66.1367 130.559 64.8753 124.053 58.0378C111.115 44.4366 80.0639 32.491 85.8753 43.3523ZM167.814 44.5508C155.768 50.1607 139.868 64.2884 144.037 65.6796C149.851 67.6175 169.526 58.5374 179.594 49.269C189.543 40.1105 189.886 39.4406 184.664 39.3779C181.583 39.342 174.002 41.6697 167.814 44.5508ZM210.719 50.1629C218.65 57.5673 226.151 62.1287 234.928 64.8888C241.923 67.0888 248.265 68.2673 249.027 67.5078C251.83 64.7028 229.823 46.5291 219.271 42.9355C199.851 36.3175 197.768 38.0784 210.719 50.1629ZM74.7408 47.1093C70.9613 55.8512 71.0016 83.3135 74.808 91.9164L77.7832 98.6375L80.6419 89.6761C84.3362 78.1024 84.3048 58.208 80.5769 48.2295L77.6465 40.3883L74.7408 47.1093ZM191.578 49.6409C187.303 65.0322 190.108 95.277 195.81 95.277C196.896 95.277 199.013 89.7814 200.517 83.067C202.62 73.671 202.652 67.8819 200.66 57.9549C197.286 41.1589 194.611 38.7102 191.578 49.6409ZM87.2083 68.5607C87.2083 85.7241 87.3069 86.0378 91.6891 82.787C94.1535 80.9589 100.942 77.1189 106.776 74.2535L117.381 69.0424L107.965 64.7969C102.786 62.4625 95.995 58.4052 92.8764 55.7817L87.2083 51.012V68.5607ZM178.635 56.1559C174.703 59.2543 167.756 63.3497 163.197 65.254L154.907 68.7153L165.865 73.7987C171.892 76.5947 178.207 80.5534 179.896 82.5988C181.588 84.642 183.604 86.3133 184.377 86.3133C185.152 86.3111 185.784 78.2458 185.784 68.3882C185.784 58.5329 185.784 50.4811 185.784 50.4945C185.784 50.5079 182.567 53.0552 178.635 56.1559ZM60.7565 57.2514C57.5819 59.7472 51.1857 63.3788 46.5392 65.3189L38.0953 68.8475L45.7506 72.0669C49.9602 73.8368 56.4729 77.6252 60.2255 80.4862L67.0452 85.6883V69.1992C67.0452 60.1303 66.9286 52.7102 66.7875 52.7102C66.6464 52.7102 63.931 54.7534 60.7565 57.2514ZM205.573 69.6675V86.282L212.482 81.6713C216.282 79.133 222.878 75.5103 227.143 73.6172L234.897 70.1783L227.242 66.9589C223.032 65.189 216.434 61.3356 212.581 58.3962L205.573 53.0507V69.6675ZM23.3582 72.4186C23.3582 75.3938 39.6882 90.0659 47.2068 93.8454C56.0293 98.2835 72.646 102.124 72.646 99.7263C72.646 94.9454 48.9453 77.1435 38.4156 74.016C25.3924 70.1492 23.3582 69.9318 23.3582 72.4186ZM120.814 72.7278C107.354 76.0054 88.5951 88.6478 83.7425 97.7145C81.7038 101.521 82.1743 101.774 88.8348 100.461C92.8697 99.6658 99.5146 97.6271 103.601 95.9334C115.099 91.1659 136.913 69.8108 129.215 70.8616C128.292 70.9893 124.51 71.8272 120.814 72.7278ZM141.707 74.3319C147.72 85.4284 167.323 97.9833 183.324 100.985C191.389 102.498 191.723 102.336 189.431 98.0528C183.801 87.5343 164.14 75.3669 146.941 71.76C140.146 70.3329 139.666 70.5681 141.707 74.3319ZM234.221 75.4565C230.053 76.6529 224.005 79.2651 220.778 81.2568C212.975 86.0758 200.346 97.8937 200.346 100.376C200.346 103.293 213.45 99.9481 224.99 94.0806C230.535 91.2623 238.547 85.3365 242.792 80.914C251.247 72.1094 249.569 71.0408 234.221 75.4565ZM133.046 82.955C129.376 93.6146 129.403 116.106 133.098 125.522L135.734 132.243L139.113 125.842C143.435 117.651 143.551 92.0688 139.31 81.743L136.129 73.9936L133.046 82.955ZM14.5155 85.7555C11.435 96.8407 11.8069 114.649 15.3198 124.381C18.1046 132.093 18.1807 132.131 20.8647 127.117C25.2087 119 26.3939 101.209 23.4165 88.8024C21.9065 82.507 19.8117 77.3541 18.7588 77.3541C17.708 77.3541 15.797 81.1359 14.5155 85.7555ZM249.753 85.7555C248.469 90.3773 247.414 97.9945 247.407 102.686C247.392 112.855 251.702 131.123 254.115 131.123C256.494 131.123 260.836 112.922 260.836 102.946C260.836 93.3704 256.474 77.3541 253.866 77.3541C252.887 77.3541 251.034 81.1359 249.753 85.7555ZM28.9008 104.563C28.9008 121.854 28.9232 121.924 33.4107 117.824C35.8908 115.557 42.8739 111.219 48.9274 108.184L59.9343 102.668L53.4932 101.05C49.9512 100.161 42.968 96.6772 37.9765 93.3077L28.9008 87.1826V104.563ZM118.573 92.0329C114.877 95.0866 107.9 98.7899 103.07 100.262L94.2879 102.937L101.95 106.031C106.164 107.733 112.82 111.555 116.743 114.524C120.666 117.492 124.371 119.921 124.976 119.921C125.583 119.921 126.119 112.36 126.166 103.118C126.215 93.8768 126.038 86.3514 125.774 86.3962C125.509 86.441 122.27 88.9771 118.573 92.0329ZM145.458 104.324V121.839L152.739 116.285C156.745 113.229 163.721 109.185 168.242 107.296L176.462 103.86L166.958 99.6053C161.732 97.2642 154.755 93.4287 151.455 91.0785L145.458 86.8084V104.324ZM236.192 92.2211C231.879 95.3487 225.577 98.9265 222.19 100.172C215.708 102.554 213.827 106.479 219.165 106.479C220.888 106.479 227.233 109.799 233.264 113.858L244.228 121.236L244.132 103.781C244.078 94.1814 244.033 86.3738 244.033 86.4321C244.033 86.4881 240.505 89.0936 236.192 92.2211ZM4.68035 116.435C2.80293 130.126 2.81413 149.801 4.705 161.246L6.16347 170.087L10.4515 155.646C15.7208 137.891 15.7208 137.797 10.4515 120.042L6.16347 105.603L4.68035 116.435ZM56.287 109.714C45.7035 113.489 30.5363 123.844 27.6261 129.279C21.7788 140.205 52.4179 128.255 65.8891 114.356C72.3189 107.724 72.8365 106.494 69.1645 106.577C66.7673 106.631 60.9715 108.043 56.287 109.714ZM88.4495 114.519C96.8576 123.277 112.123 131.9 123.614 134.385C133.673 136.56 132.851 133.224 120.691 122.52C110.824 113.836 94.5702 106.479 85.2503 106.479C81.3095 106.479 81.7195 107.512 88.4495 114.519ZM171.948 110.148C162.5 113.496 142.097 129.615 142.097 133.73C142.097 139.735 168.24 128.851 181.241 117.434C193.966 106.261 190.525 103.564 171.948 110.148ZM202.587 108.488C202.587 112.884 224.397 128.134 234.877 131.069C240.599 132.671 245.803 133.462 246.439 132.825C248.328 130.934 234.075 117.831 225.29 113.386C214.617 107.984 202.587 105.39 202.587 108.488ZM265.5 109.839C265.319 112.304 263.354 119.574 261.136 125.994C257.171 137.474 257.184 137.92 261.974 152.704L266.847 167.739L268.296 158.952C270.254 147.105 269.954 125.289 267.685 114.32C266.665 109.391 265.684 107.375 265.5 109.839ZM74.6377 114.32C73.0964 118.017 71.835 128.098 71.835 136.724C71.835 145.349 73.0964 155.431 74.6377 159.127C77.315 165.543 77.5614 165.644 80.084 161.367C81.5873 158.82 82.7276 148.187 82.7276 136.724C82.7276 125.26 81.5873 114.627 80.084 112.08C77.5614 107.803 77.315 107.904 74.6377 114.32ZM191.199 117.1C187.588 128.011 187.637 147.825 191.302 158.901C194.761 169.35 196.914 166.926 200.635 148.396C203.102 136.114 200.201 112.519 195.895 109.857C194.846 109.21 192.731 112.467 191.199 117.1ZM205.77 135.776C205.9 151.201 206.31 152.879 209.299 150.172C211.161 148.49 218.139 144.583 224.809 141.493C236.551 136.054 236.739 135.825 230.743 134.322C227.34 133.466 220.294 129.516 215.09 125.544L205.625 118.319L205.77 135.776ZM60.7834 124.442C57.6222 126.926 50.8541 130.834 45.7439 133.121L36.4486 137.284L43.9067 139.88C48.0066 141.307 54.9315 144.836 59.2935 147.721L67.2221 152.966L67.1347 136.444C67.0855 127.357 66.9286 119.923 66.7875 119.921C66.6464 119.921 63.9423 121.955 60.7834 124.442ZM87.2083 137.604V154.716L98.0741 147.399C104.051 143.375 110.353 140.084 112.076 140.084C117.05 140.084 115.719 136.063 110.172 134.326C107.398 133.459 101.099 129.991 96.1698 126.62L87.2083 120.49V137.604ZM178.23 125.177C176.854 126.835 171.69 130.011 166.754 132.236C156.164 137.013 155.638 138.836 163.941 141.973C167.328 143.252 173.379 146.474 177.383 149.133L184.664 153.965V138.063C184.664 122.367 183.122 119.28 178.23 125.177ZM240.077 140.422C227.562 143.162 215.664 149.886 206.281 159.519C200.429 165.528 198.915 168.295 201.213 168.781C206.944 169.991 221.744 164.952 231.187 158.574C239.743 152.796 251.144 140.629 249.329 139.213C248.881 138.863 244.719 139.408 240.077 140.422ZM26.5574 145.125C33.6011 155.876 58.2764 169.209 71.1271 169.209C75.2449 169.209 74.8998 168.308 68.0443 161.177C57.6917 150.405 44.5027 142.891 32.6131 140.991L22.8228 139.425L26.5574 145.125ZM119.694 142.179C108.593 145.568 96.0219 153.291 88.3285 161.448L80.4873 169.764L89.3434 168.178C101.083 166.079 114.655 159.12 123.614 150.605C134.184 140.561 133.039 138.104 119.694 142.179ZM142.097 141.706C142.097 148.322 167.778 165.496 181.895 168.319C191.087 170.156 191.078 167.443 181.863 158.688C170.561 147.948 142.097 135.792 142.097 141.706ZM14.7508 153.226C11.5112 164.04 11.4462 178.883 14.5895 190.201C17.5938 201.024 20.3494 198.696 23.6987 182.507C25.6075 173.286 25.5605 167.201 23.5083 157.447C22.0185 150.363 20.0223 144.565 19.0724 144.565C18.1225 144.565 16.1779 148.463 14.7508 153.226ZM133.098 150.166C129.403 159.582 129.376 182.073 133.046 192.732L136.129 201.694L139.22 194.164C143.394 184.002 143.307 157.787 139.073 149.767L135.734 143.445L133.098 150.166ZM249.901 154.519C248.521 159.992 247.401 168.31 247.407 173.002C247.421 183.469 251.359 198.333 254.115 198.333C256.871 198.333 260.809 183.469 260.822 173.002C260.838 162.833 256.528 144.565 254.115 144.565C253.176 144.565 251.279 149.043 249.901 154.519ZM28.7575 163.05C29.5797 168.532 29.322 177.164 28.1817 182.232L26.1116 191.449L33.2001 186.043C37.0983 183.07 44.5901 178.71 49.8482 176.355L59.4055 172.076L52.4918 169.213C48.6899 167.638 41.458 163.364 36.4217 159.714L27.2631 153.08L28.7575 163.05ZM146.199 170.822L146.943 187.436L151.8 183.829C154.473 181.844 160.441 178.598 165.061 176.615C173.476 173.004 176.189 169.209 170.352 169.209C168.643 169.209 162.341 165.833 156.35 161.708L145.458 154.205L146.199 170.822ZM240.715 156.835C239.205 158.654 232.507 162.817 225.833 166.083L213.694 172.02L224.383 177.27C230.262 180.157 237.088 184.017 239.553 185.846C243.935 189.099 244.035 188.783 244.094 171.348C244.127 161.547 244 153.526 243.809 153.526C243.619 153.526 242.225 155.016 240.715 156.835ZM119.772 159.033C118.28 160.83 112.128 164.529 106.099 167.253L95.1392 172.206L104.553 176.423C109.728 178.739 117.442 183.289 121.694 186.531C125.944 189.773 128.675 191.216 127.761 189.739C126.849 188.263 126.123 180.014 126.152 171.411C126.202 155.699 124.797 152.977 119.772 159.033ZM177.943 175.784C166.873 179.163 154.278 186.887 146.578 195.018L138.737 203.298L146.578 201.707C158.904 199.212 171.842 192.898 180.857 184.983C192.664 174.617 191.703 171.583 177.943 175.784ZM205.947 182.646C215.307 192.571 233.712 202.754 242.353 202.792C249.415 202.823 248.651 199.899 239.49 191.859C229.399 182.998 217.091 176.73 205.842 174.724L196.986 173.145L205.947 182.646ZM48.9162 181.495C42.7754 184.555 34.2598 190.714 29.9942 195.179L22.238 203.298L30.0793 201.66C41.5454 199.265 57.1316 190.792 64.6636 182.859L71.2436 175.93H65.6628C62.5958 175.93 55.0593 178.435 48.9162 181.495ZM74.7766 182.783C70.7664 192.293 70.7552 219.375 74.7565 228.578L77.6779 235.299L81.0496 227.458C85.313 217.54 85.4094 192.876 81.2221 182.783L78.0251 175.072L74.7766 182.783ZM89.1933 182.384C96.75 190.273 113.62 199.485 124.091 201.443L131.852 202.892L124.091 194.738C115.556 185.765 97.0099 175.986 88.4697 175.952L83.0099 175.93L89.1933 182.384ZM191.392 183.771C187.545 195.313 187.885 217.762 192.055 227.608L195.315 235.299L198.169 228.578C202.112 219.299 201.859 192.262 197.739 182.651L194.378 174.81L191.392 183.771ZM63.7406 190.425C62.2373 192.235 55.8815 196.153 49.6152 199.131L38.223 204.546L48.1545 209.533C53.6142 212.277 60.1068 216.37 62.5801 218.629C67.0474 222.708 67.0765 222.621 67.2244 204.933C67.305 195.143 67.1706 187.132 66.9242 187.132C66.6755 187.132 65.2439 188.612 63.7406 190.425ZM88.5772 206.179V222.507L99.8798 214.901C106.097 210.718 112.594 207.295 114.317 207.295C120.679 207.295 116.779 203.753 102.862 196.893L88.5772 189.849V206.179ZM178.079 192.567C176.621 194.325 170.957 197.601 165.491 199.848C155.161 204.098 152.622 207.295 159.581 207.295C161.805 207.295 168.359 210.297 174.143 213.967L184.664 220.638V205.005C184.664 189.428 183.116 186.5 178.079 192.567ZM205.694 206.605C205.562 221.478 205.885 222.715 209.115 219.789C211.078 218.015 217.895 214.148 224.264 211.195L235.847 205.83L228.391 203.134C224.289 201.651 217.537 198.132 213.385 195.316L205.837 190.192L205.694 206.605ZM25.3118 211.24C31.4436 222.695 56.3609 237.329 67.4753 236L73.3428 235.299L67.5784 228.475C60.5661 220.172 43.2414 210.483 31.5243 208.31C23.3515 206.793 23.0177 206.952 25.3118 211.24ZM115.957 211.442C103.278 215.824 89.7198 225.155 86.0389 232.031C84.0226 235.797 84.4146 236.413 88.8102 236.37C97.0457 236.292 113.421 227.866 122.494 219.039C135.43 206.455 134.276 205.11 115.957 211.442ZM143.784 212.701C153.59 225.166 173.256 236.278 185.679 236.37L192.295 236.419L183.604 227.518C174.06 217.746 161.048 210.772 147.678 208.263L139.014 206.638L143.784 212.701ZM225.904 215.1C219.763 218.16 211.248 224.344 206.982 228.84L199.226 237.015L207.865 235.7C222.1 233.532 247.394 217.954 247.394 211.357C247.394 207.792 236.902 209.62 225.904 215.1ZM132.862 216.458C128.704 223.806 128.785 255.897 132.979 263.304L136.151 268.905L139.371 261.063C142.995 252.232 142.292 222.449 138.286 215.295C136.032 211.267 135.768 211.323 132.862 216.458ZM145.458 239.388V257.766L156.357 250.431C162.352 246.398 169.703 242.482 172.691 241.734C177.593 240.501 176.966 239.834 166.273 234.885C159.753 231.869 152.403 227.514 149.938 225.204C145.48 221.03 145.458 221.102 145.458 239.388ZM122.917 225.439C122.079 226.795 115.556 230.664 108.418 234.04L95.4417 240.176L105.888 244.913C111.633 247.516 118.349 251.163 120.814 253.016C125.196 256.312 125.294 256.016 125.294 239.681C125.294 230.494 125.102 222.977 124.866 222.977C124.631 222.977 123.753 224.086 122.917 225.439ZM53.603 242.235C61.9461 249.662 94.2856 267.054 96.1966 265.143C96.6671 264.673 92.5673 259.871 87.0896 254.472C81.6097 249.073 77.1267 243.81 77.1267 242.778C77.1267 241.745 74.23 240.9 70.688 240.9C67.146 240.9 59.8357 239.406 54.4454 237.58L44.6416 234.26L53.603 242.235ZM218.269 237.54C213.957 239.2 207.677 240.636 204.314 240.73C199.963 240.851 194.748 244.462 186.246 253.242C178.182 261.565 175.797 265.163 178.917 264.292C188.676 261.567 210.813 249.396 219.389 242.036C229.388 233.458 229.343 233.274 218.269 237.54ZM83.8478 245.148C83.8478 247.892 98.1279 260.223 106.045 264.319C114.27 268.571 130.895 272.357 130.895 269.978C130.895 268.981 126.303 264.124 120.691 259.181C108.25 248.233 83.8478 238.938 83.8478 245.148ZM168.981 247.794C159.614 252.023 142.097 266.673 142.097 270.276C142.097 271.147 147.364 270.471 153.803 268.772C166.521 265.416 181.133 256.182 186.384 248.181C189.494 243.438 189.375 243.143 184.377 243.19C181.453 243.217 174.526 245.289 168.981 247.794Z" fill="white"/>
</svg>
