<svg width="238" height="237" viewBox="0 0 238 237" fill="none" xmlns="http://www.w3.org/2000/svg">
<path fill-rule="evenodd" clip-rule="evenodd" d="M114.338 0.0298099C113.778 0.0645842 111.564 0.25033 109.418 0.442692C99.4443 1.33665 92.8394 2.65146 82.1927 5.86223C76.0646 7.71019 72.2252 9.23025 67.164 11.812C57.5136 16.7349 50.0561 21.5482 43.0637 27.3674C40.582 29.4328 33.4355 36.4216 30.4503 39.7026C14.7128 56.9997 4.53206 78.507 1.38303 101.109C0.478387 107.602 0.353539 109.59 0.356253 117.478C0.358797 125.25 0.573211 128.67 1.46259 135.12C5.11406 161.602 16.5943 184.386 35.6512 202.972C52.5195 219.424 71.691 229.807 93.5579 234.333C102.779 236.242 110.031 236.953 120.444 236.969C128.085 236.98 130.511 236.826 136.234 235.963C146.124 234.472 152.96 232.47 166.113 227.209C176.968 222.868 181.195 220.336 192.766 211.242C199.502 205.948 203.176 202.55 207.444 197.664C219.012 184.426 226.886 170.804 231.954 155.265C235.822 143.406 237.593 131.599 237.66 117.224C237.674 114.145 237.642 112.275 237.588 113.068C237.493 114.464 237.486 114.426 237.366 111.881C236.734 98.4801 233.413 84.2416 227.95 71.5084C218.24 48.8761 201.305 29.6893 179.476 16.5895C164.448 7.57059 148.85 2.41312 130.563 0.41572C128.133 0.150248 126.002 0.0581382 121.377 0.0184446C118.065 -0.0100534 114.898 -0.00496449 114.338 0.0298099ZM111.793 2.30965C90.1092 3.91097 71.8584 9.82328 55.391 20.5809C44.5417 27.6685 34.4097 37.3579 25.5999 49.0708C12.7641 66.1362 5.23925 84.9634 3.07238 105.435C2.27834 112.935 2.24442 122.558 2.98502 130.116C5.33764 154.119 15.2792 177.207 31.0344 195.254C33.0421 197.554 37.3726 201.915 39.9546 204.237C58.5295 220.944 78.4513 230.492 101.7 233.83C111.885 235.293 124.858 235.328 134.863 233.922C147.987 232.076 160.141 228.24 172.752 221.961C181.382 217.665 185.843 214.673 193.386 208.123C203.541 199.304 211.957 189.743 218.085 180.066C228.474 163.659 233.976 146.124 235.195 125.536C235.415 121.826 235.416 114.279 235.197 110.693C234.262 95.3819 230.389 81.0316 223.317 66.6739C218.815 57.5323 214.039 50.2116 207.799 42.8871C206.102 40.8954 200.485 35.1383 198.475 33.3301C179.911 16.6343 159.178 6.52922 136.727 3.23584C131.032 2.4004 128.997 2.26605 121.208 2.21126C117.149 2.18277 112.913 2.22704 111.793 2.30965ZM111.624 4.69178C108.583 4.88261 102.548 5.60999 98.9861 6.21489C81.4363 9.19565 64.9073 16.2854 50.8958 26.8419C42.4531 33.2027 34.9194 40.9755 27.4974 50.983C15.59 67.0383 8.52975 84.238 6.2952 102.636C5.7512 107.114 5.66638 108.535 5.58106 114.595C5.46571 122.775 5.81566 130.831 6.4248 134.017C6.65669 135.23 7.0102 137.253 7.21019 138.513C9.99078 156.015 19.5673 176.4 32.0343 191.353C37.7763 198.24 43.2736 203.467 50.5093 208.922C66.7978 221.201 86.4636 229.046 106.365 231.203C114.582 232.094 122.272 231.897 132.319 230.538C148.187 228.391 160.405 224.651 172.352 218.282C186.438 210.771 197.764 201.358 207.713 188.893C222.24 170.691 230.364 150.676 232.255 128.429C232.588 124.509 232.631 115.407 232.335 111.456C230.406 85.7247 222.232 64.5866 207.04 46.0453C201.742 39.5794 194.363 32.3983 188.042 27.5557C170.218 13.8999 149.149 6.10294 126.212 4.67448C123.081 4.4794 114.852 4.48924 111.624 4.69178ZM117.221 7.16194C111.523 7.63437 107.129 8.7502 102.972 10.7798C97.8608 13.2761 93.2731 17.2799 89.4374 22.5921L88.809 23.4625L90.4625 23.5802C100.123 24.2674 109.42 28.212 115.128 34.0456C116.963 35.9215 117.47 36.0291 116.906 34.423C116.779 34.0613 116.493 32.8877 116.27 31.8148C115.901 30.0382 115.864 29.4552 115.864 25.284C115.864 21.6359 115.927 20.3302 116.174 18.8673C116.832 14.9623 118.073 10.7564 119.27 8.3804C119.589 7.74581 119.851 7.18671 119.851 7.13769C119.851 7.0471 118.451 7.06 117.221 7.16194ZM103.821 7.50104C100.376 7.92257 95.2656 8.9066 91.5292 9.86773C88.905 10.5429 84.1095 11.9435 83.6966 12.1557C83.4481 12.2833 83.4425 12.4076 83.643 13.3628C83.9692 14.9176 84.5433 16.9498 85.0175 18.2282C85.4954 19.5165 86.9573 22.485 87.1137 22.485C87.1717 22.485 87.3907 22.1799 87.6003 21.8067C88.8536 19.5769 92.2693 15.7756 94.915 13.6666C97.1363 11.8958 99.8245 10.2139 102.797 8.7351C105.534 7.37347 105.61 7.28204 103.821 7.50104ZM124.092 7.42742C124.092 7.47322 124.312 7.99822 124.582 8.59431C125.802 11.2923 127.03 16.0265 127.503 19.8558C127.992 23.8185 127.691 29.6009 126.819 32.9592C126.459 34.347 126.402 34.3446 128.078 33.0132C131.703 30.1337 137.5 26.9584 141.818 25.4868C143.798 24.8119 147.376 23.8782 149.071 23.5938C149.848 23.4635 149.863 23.4988 148.104 21.2976C142.66 14.4846 135.807 10.0228 127.774 8.06133C125.69 7.5521 124.092 7.27712 124.092 7.42742ZM133.421 7.7565C138.216 9.97171 139.624 10.7612 142.242 12.6997C144.898 14.6662 149.002 18.8634 151.032 21.6898C151.355 22.1387 151.677 22.444 151.747 22.3683C152.259 21.8208 154.915 14.139 155.008 12.9353L155.049 12.404L151.971 11.437C145.357 9.35883 138.96 7.98652 134.354 7.65744C133.249 7.57856 133.076 7.59705 133.421 7.7565ZM120.986 9.5512C119.546 12.3452 118.412 16.5347 117.995 20.6001C117.767 22.8236 117.765 27.7063 117.992 29.6944C118.414 33.3903 119.526 37.3176 120.758 39.4661C121.146 40.1411 121.538 40.6904 121.63 40.6866C121.723 40.6829 122.084 40.1545 122.434 39.5126C124.489 35.7387 125.618 30.3547 125.618 24.3276C125.618 19.7163 125.051 15.7711 123.911 12.441C123.361 10.8353 122.192 8.34037 121.908 8.16446C121.821 8.11103 121.406 8.7351 120.986 9.5512ZM80.2419 13.3462C79.0708 13.8181 78.999 13.9292 79.5732 14.3803C79.8438 14.593 80.5142 15.1867 81.0629 15.6998C82.4951 17.039 82.5706 17.0633 82.2654 16.0862C82.1262 15.6404 81.8919 14.7606 81.7448 14.1307C81.5978 13.5009 81.3901 12.99 81.2836 12.995C81.1773 13.0001 80.7084 13.1581 80.2419 13.3462ZM156.701 14.48C156.492 15.2086 156.321 16.0325 156.321 16.3106V16.8168L157.199 16.0462C158.601 14.8154 159.205 14.2176 159.205 14.0629C159.205 13.9309 157.497 13.1553 157.206 13.1553C157.137 13.1553 156.91 13.7514 156.701 14.48ZM71.8362 16.9403C62.8753 21.2866 57.9461 24.2244 54.056 27.5377L53.1452 28.3134L53.2507 29.3432C53.378 30.5848 54.0485 33.432 54.6516 35.2922C55.1053 36.6913 56.4023 40.1499 56.5263 40.2912C56.5648 40.335 56.8018 40.106 57.0529 39.7823C57.8825 38.7125 60.0752 36.3349 61.7745 34.6625C67.6244 28.9054 74.5817 25.3773 82.6715 24.0648C83.7141 23.8957 84.567 23.6809 84.5668 23.5876C84.5665 23.3254 83.4432 21.5241 82.5655 20.3784C82.1309 19.811 81.1632 18.7299 80.4149 17.9759C79.1171 16.6679 76.814 14.682 76.5952 14.682C76.5384 14.682 74.3968 15.6983 71.8362 16.9403ZM160.393 15.9364C157.736 18.1764 153.217 23.3469 153.821 23.456C153.937 23.4769 155.153 23.6075 156.524 23.7463C168.461 24.954 177.525 30.0692 184.768 39.6844C185.479 40.6274 186.138 41.3989 186.233 41.3989C186.328 41.3989 186.697 40.8646 187.054 40.2115C188.135 38.2297 188.906 36.037 189.636 32.8675L189.882 31.7998L188.294 30.5356C182.913 26.2522 175.944 21.8099 169.298 18.427C166.924 17.2187 162.547 15.1621 161.839 14.9227C161.743 14.8903 161.092 15.3465 160.393 15.9364ZM89.1475 25.5153C89.1475 25.7318 90.4337 27.671 91.5198 29.0923C96.8451 36.0604 104.86 40.478 114.423 41.7153C117.239 42.0796 118.833 42.1872 118.833 42.0128C118.833 41.9293 118.553 41.4517 118.212 40.9514C115.615 37.1491 112.203 33.7965 108.401 31.3103C104.323 28.644 98.3029 26.5357 92.7098 25.8151C89.4573 25.3959 89.1475 25.37 89.1475 25.5153ZM154.279 27.4468C156.082 31.2823 157.062 35.5029 157.519 41.3989C157.791 44.9182 157.441 49.7025 156.675 52.918C156.506 53.6264 156.418 54.206 156.48 54.206C156.541 54.206 156.894 53.892 157.262 53.5082C158.287 52.4415 161.382 49.948 163.053 48.8425C166.776 46.3799 171.636 44.4253 176.043 43.6182C178.538 43.1612 181.434 42.8408 183.068 42.8408C183.658 42.8408 184.141 42.7783 184.141 42.7022C184.141 42.5 182.527 40.1913 181.292 38.627C179.721 36.6375 176.484 33.5742 174.373 32.0787C170.848 29.5819 166.168 27.5857 161.58 26.6225C159.358 26.1562 155.853 25.708 154.426 25.708H153.461L154.279 27.4468ZM83.9738 25.9942C82.6512 26.1652 79.7232 26.7905 78.0567 27.2581C70.4542 29.3909 64.1543 33.8983 59.4177 40.5935C58.7868 41.4851 58.2932 42.2372 58.3207 42.2647C58.3482 42.2923 59.2078 42.4367 60.2311 42.5855C65.0489 43.2866 69.6312 45.0154 74.2611 47.8793C75.8883 48.8861 79.501 51.5528 81.0538 52.8938C81.5937 53.3599 82.0621 53.7124 82.0946 53.6768C82.1272 53.6413 81.971 52.8917 81.7474 52.011C79.895 44.7138 80.9408 34.1278 84.1716 27.472C84.5293 26.735 84.8474 26.0748 84.8784 26.0049C84.9356 25.8763 84.8905 25.8758 83.9738 25.9942ZM147.84 26.0731C139.103 27.9349 133.76 30.5534 128.701 35.4515C126.962 37.1354 124.715 39.858 123.859 41.3187L123.541 41.8605L124.452 41.7433C132.47 40.7116 140.28 36.6117 145.649 30.6165C146.341 29.8436 147.426 28.6432 148.061 27.9487C148.86 27.0748 149.199 26.575 149.164 26.3258C149.103 25.9002 148.864 25.8548 147.84 26.0731ZM85.8755 28.5494C84.9393 30.5622 84.6096 31.4896 84.0627 33.6466C82.3335 40.4673 82.5279 48.9931 84.55 55.0291C85.0688 56.5773 86.2908 59.1867 86.581 59.3662C86.7929 59.4972 87.9969 56.9971 88.6222 55.1283C89.8573 51.436 90.3975 47.7063 90.3899 42.9256C90.3818 37.9366 89.7482 34.0836 88.3535 30.5425C87.7104 28.9098 86.8312 27.2347 86.6173 27.2347C86.5456 27.2347 86.2117 27.8264 85.8755 28.5494ZM150.587 28.7302C146.758 36.9719 146.654 50.4411 150.364 57.7082C150.739 58.441 151.192 59.2565 151.371 59.5202L151.698 60L152.144 59.202C153.356 57.0319 154.494 53.3143 155.084 49.5958C155.555 46.6259 155.515 39.4229 155.012 36.6492C154.582 34.2795 153.965 32.0707 153.259 30.3824C152.69 29.0192 151.74 27.3755 151.469 27.2853C151.369 27.2518 150.972 27.902 150.587 28.7302ZM50.3811 29.9671C50.1977 30.15 49.6851 30.6273 49.2419 31.028C48.7986 31.4287 48.4361 31.8287 48.4361 31.9167C48.4361 32.0047 48.7197 32.2278 49.0663 32.4124C49.4128 32.5967 50.2907 33.3333 51.017 34.0491C51.7434 34.7648 52.3368 35.3373 52.3356 35.3214C52.2857 34.5813 51.4421 30.6884 51.252 30.3208C50.8919 29.6243 50.7731 29.5761 50.3811 29.9671ZM90.9142 32.4085C91.4367 33.7311 91.7208 34.8016 92.0508 36.6901C92.721 40.5255 92.5183 47.479 91.5945 52.3401C91.4616 53.0398 91.3527 53.681 91.3527 53.7652C91.3527 53.8493 92.0971 53.1994 93.0066 52.3213C96.9518 48.5125 101.418 45.9257 107.794 43.7566L109.902 43.0396L109.151 42.846C103.87 41.4851 98.4839 38.4952 92.9636 33.8603C90.7198 31.9766 90.7531 32 90.9142 32.4085ZM145.126 34.3109C140.243 38.2263 134.984 41.1494 129.944 42.75L128.247 43.2886L129.859 43.676C134.258 44.7333 138.381 46.9609 144.274 51.4621C145.624 52.4938 146.745 53.3223 146.764 53.3031C146.783 53.2839 146.652 52.7382 146.472 52.0906C145.236 47.6318 145.286 39.6529 146.582 34.5409C146.805 33.6612 146.969 32.9282 146.947 32.9121C146.925 32.8958 146.105 33.5253 145.126 34.3109ZM41.2424 38.1335C38.4214 40.9557 35.4264 44.0663 34.5871 45.046C33.0401 46.8513 30.9641 49.4269 30.9641 49.5408C30.9641 49.5751 31.9756 48.9901 33.2117 48.2406C40.0694 44.0831 46.2723 42.1622 52.8399 42.1622C53.7764 42.1622 54.5428 42.1005 54.5428 42.025C54.5428 41.8065 53.3956 39.9586 52.6272 38.9393C51.29 37.1654 46.9853 33.0022 46.4884 33.0022C46.4241 33.0022 44.0634 35.3114 41.2424 38.1335ZM191.458 34.1038C191.341 34.4298 191.288 34.7684 191.343 34.8561C191.473 35.0669 192.283 34.309 192.283 33.9762C192.283 33.7728 191.96 33.5111 191.71 33.5111C191.689 33.5111 191.576 33.7777 191.458 34.1038ZM192.051 37.379C191.149 38.3868 190.096 39.6273 189.711 40.1355C188.94 41.1533 188.137 42.7524 188.281 42.9843C188.331 43.0657 188.89 43.1849 189.522 43.2494C194.572 43.7641 200.777 46.3311 206.937 50.4543C208.561 51.542 208.699 51.6188 208.469 51.3125C206.307 48.4262 201.521 42.8331 198.957 40.1955C197.351 38.5444 194.041 35.5466 193.823 35.5466C193.751 35.5466 192.953 36.3712 192.051 37.379ZM52.168 44.1393C42.7267 45.0441 35.8748 47.8328 30.0312 53.1489C27.627 55.3361 23.8386 59.9294 24.2323 60.1798C24.3429 60.25 24.8552 60.3087 25.3707 60.3102C27.9298 60.3172 32.6143 61.2108 36.1055 62.3575C41.392 64.094 46.5878 67.1351 49.8132 70.3809C50.3285 70.8992 50.7417 71.1691 51.0203 71.1691H51.4438L51.13 70.0372C49.9363 65.7321 49.9777 58.9014 51.2311 53.3435C51.8046 50.8012 52.8818 47.5875 53.7769 45.7481C54.1981 44.8828 54.5428 44.1417 54.5428 44.1015C54.5428 44.0231 53.1483 44.0455 52.168 44.1393ZM116.119 44.38C105.142 45.1289 96.6138 49.904 89.6318 59.2102C88.4018 60.8495 88.3009 60.7216 90.7273 60.5986C97.2311 60.2688 103.519 58.4677 108.142 55.6096C112.036 53.2027 115.715 49.6854 118.466 45.7403C118.948 45.0492 119.342 44.4195 119.342 44.3408C119.342 44.1819 118.953 44.1866 116.119 44.38ZM59.3961 44.7491C60.7639 47.0936 63.7914 50.4864 66.417 52.6164C70.7017 56.0927 76.396 58.7642 82.2775 60.0575C82.9306 60.2011 83.6406 60.3579 83.8554 60.406C84.3434 60.5151 84.2869 60.3989 82.9302 58.5011C77.8333 51.3718 70.5443 46.7901 61.26 44.8797C59.302 44.4769 59.2346 44.4721 59.3961 44.7491ZM123.413 44.6541C123.413 44.9876 126.571 48.8628 128.141 50.4562C132.602 54.9833 137.621 57.998 143.824 59.8751C145.761 60.4617 149.329 61.2549 149.456 61.1275C149.495 61.0886 149.047 60.3234 148.46 59.4271C143.407 51.7091 135.292 46.4921 125.813 44.8672C123.704 44.5055 123.413 44.4797 123.413 44.6541ZM181.342 44.8991C179.081 45.0933 175.295 45.7934 173.188 46.4067C166.923 48.2304 161.453 51.6402 157.236 56.3498C155.636 58.1359 153.777 60.5485 153.777 60.8381C153.777 61.1075 158.03 60.9365 160.742 60.5584C166.255 59.7894 171.514 57.635 175.712 54.4249C177.092 53.3701 180.027 50.5171 181.167 49.1225C182.17 47.8959 184.141 45.0606 184.141 44.8446C184.141 44.687 183.714 44.6953 181.342 44.8991ZM188.266 45.258C189.782 48.8036 190.481 50.9644 191.078 53.9516C191.739 57.2574 191.859 58.6295 191.849 62.7724C191.839 66.8427 191.669 68.5592 191.04 70.9571C190.911 71.4468 190.836 71.8477 190.873 71.8477C190.909 71.8477 191.719 71.247 192.671 70.513C199.216 65.4702 206.369 62.3154 212.936 61.5758C213.519 61.51 213.996 61.4004 213.996 61.3321C213.996 61.0735 212.247 58.6361 210.901 57.0187C206.084 51.2304 199.03 47.2356 190.378 45.3968C188.457 44.9885 188.142 44.9679 188.266 45.258ZM55.7638 46.1711C54.5342 48.6174 53.4682 52.0728 52.8143 55.7327C52.4867 57.5661 52.4347 58.4617 52.4289 62.3483C52.4231 66.3844 52.4623 67.0403 52.8129 68.7709C53.5059 72.1915 54.4275 74.6805 55.7584 76.7245C56.138 77.3077 56.4765 77.7847 56.5107 77.7847C56.5448 77.7847 56.7638 77.4076 56.9974 76.9466C59.3972 72.2108 60.6489 64.9001 60.172 58.4044C59.9466 55.3339 59.4136 52.4946 58.6146 50.1096C58.1088 48.5991 57.0586 46.3101 56.5165 45.536C56.2719 45.1868 56.2488 45.2061 55.7638 46.1711ZM120.561 46.6013C119.425 48.588 118.396 51.7252 117.797 55.0308C117.53 56.501 117.416 57.9875 117.351 60.854C117.225 66.3922 117.649 69.8329 118.935 73.7136C119.546 75.5573 120.826 78.1667 121.123 78.1751C121.373 78.182 122.77 75.3409 123.29 73.766C124.411 70.3751 124.947 66.6237 124.948 62.1653C124.949 57.2738 124.472 53.9628 123.226 50.2197C122.641 48.4615 121.644 46.2924 121.213 45.838C121.139 45.7606 120.846 46.1041 120.561 46.6013ZM185.358 47.2201C182.532 52.5224 181.528 62.0554 182.961 69.9729C183.432 72.5784 184.052 74.5792 185.013 76.5973C185.981 78.6322 185.901 78.6322 186.932 76.5973C188.078 74.3365 188.976 71.2675 189.514 67.7765C189.969 64.829 189.929 58.5934 189.438 55.7327C189.043 53.4307 188.451 51.2243 187.792 49.6029C187.332 48.4706 186.251 46.4693 186.024 46.3291C185.945 46.2802 185.646 46.6812 185.358 47.2201ZM61.1072 51.5393C62.6787 56.9646 62.7418 65.3406 61.2526 70.8219C61.1143 71.3308 61.0192 71.7649 61.0409 71.7868C61.0628 71.8085 61.8042 71.2526 62.6885 70.5515C67.4891 66.7457 73.2609 63.5727 78.5456 61.8345C79.5817 61.4937 79.6789 61.4281 79.3089 61.3192C72.178 59.2207 67.9688 56.8216 62.3308 51.6422L60.7043 50.148L61.1072 51.5393ZM125.662 51.5062C125.714 51.7316 125.95 52.6794 126.187 53.6123C126.874 56.3108 127.057 58.0791 127.057 62.0091C127.057 66.2548 126.776 68.5432 125.85 71.828C125.758 72.1549 125.977 72.0288 126.992 71.172C131.028 67.7628 136.321 64.6887 141.479 62.7576C143.569 61.9751 143.792 61.8552 143.345 61.7578C141.844 61.4318 139.36 60.5116 137.408 59.5586C134.109 57.9479 130.753 55.6119 126.823 52.1891C125.786 51.286 125.584 51.1674 125.662 51.5062ZM114.739 53.1659C110.953 56.5017 106.17 59.171 100.55 61.0844C99.4039 61.4746 98.4228 61.8372 98.3697 61.8905C98.3164 61.9436 98.567 62.0411 98.9264 62.1071C100.239 62.3476 103.531 63.5912 105.462 64.5756C108.668 66.21 112.89 69.1668 115.029 71.275C115.8 72.0353 116.603 72.3001 116.38 71.7204C115.972 70.6585 115.436 68.0338 115.261 66.2385C114.916 62.7001 115.256 56.7452 116.013 53.061C116.133 52.478 116.187 52.0063 116.132 52.013C116.078 52.0197 115.451 52.5386 114.739 53.1659ZM180.651 52.7034C179.715 53.7022 177.1 55.7941 175.32 56.9693C172.495 58.8339 168.55 60.7061 165.057 61.8389C164.404 62.0508 163.803 62.2623 163.722 62.3091C163.64 62.3558 164.479 62.691 165.585 63.054C170.42 64.6411 175.42 67.7054 180.272 72.0558C181.094 72.7925 181.766 73.3643 181.766 73.3265C181.766 73.2887 181.611 72.8069 181.421 72.256C180.69 70.13 180.372 67.729 180.283 63.6474C180.196 59.624 180.33 57.6519 180.932 54.1314C181.106 53.1106 181.226 52.2527 181.198 52.2247C181.17 52.1969 180.924 52.4124 180.651 52.7034ZM23.3307 62.5134C23.3307 63.0693 26.6195 67.1528 28.8795 69.4029C34.6592 75.1573 41.6895 78.4414 49.7083 79.1325C51.9195 79.3231 54.0339 79.3657 54.0339 79.2198C54.0339 78.9774 53.2085 77.5512 52.2894 76.2055C51.1158 74.4869 48.5806 71.7559 46.8362 70.3305C44.1492 68.1351 40.0674 65.8375 36.7316 64.6424C34.8646 63.9736 31.3058 63.0906 29.2678 62.7906C26.5836 62.3955 23.3307 62.2435 23.3307 62.5134ZM81.3445 63.4441C71.5979 65.6831 64.6116 70.2402 59.139 77.9288C58.6509 78.6144 58.283 79.2068 58.3214 79.2451C58.4433 79.3669 62.3681 78.6434 64.0422 78.1907C68.6656 76.9398 73.3023 74.5806 76.8493 71.6743C78.3081 70.4789 81.1703 67.538 82.211 66.165C83.1133 64.9747 84.3979 63.0869 84.3979 62.9514C84.3979 62.7812 83.8352 62.8721 81.3445 63.4441ZM88.6386 62.9622C88.6386 63.0199 89.0707 63.6879 89.5988 64.4465C95.1067 72.3598 102.597 77.2987 111.748 79.0521C113.96 79.4758 119.093 79.9557 119.292 79.7574C119.515 79.5336 116.458 75.604 114.342 73.3957C109.363 68.2001 103.416 64.9683 96.3324 63.61C93.6004 63.086 88.6386 62.6682 88.6386 62.9622ZM146.959 63.713C139.244 65.0719 133.033 68.1889 128.025 73.214C125.982 75.2642 122.68 79.4826 122.925 79.7282C123.042 79.8451 127.11 79.0485 128.926 78.5532C137.183 76.3003 144.11 71.4232 148.689 64.6372C149.69 63.1531 149.801 63.2124 146.959 63.713ZM154.639 64.887C159.607 72.0765 165.914 76.6155 173.624 78.5513C176.11 79.1755 178.89 79.4977 181.33 79.4439L183.498 79.3962L182.354 77.8696C175.336 68.4968 167.107 64.0307 155.741 63.4277L153.549 63.3113L154.639 64.887ZM212.3 63.8102C203.067 65.5672 196.625 68.8932 191.58 74.5087C190.429 75.7885 187.753 79.5876 187.899 79.7335C187.938 79.7726 188.802 79.689 189.818 79.5474C195.855 78.7058 201.718 76.149 206.702 72.1837C208.39 70.8414 211.865 67.3121 213.021 65.7666C213.613 64.9751 213.826 64.5366 213.826 64.1127C213.826 63.7953 213.769 63.543 213.699 63.5519C213.629 63.5608 212.999 63.677 212.3 63.8102ZM20.7476 65.5834C17.5567 72.1505 16.8652 82.1951 19.0157 90.7429C19.485 92.6083 20.5729 95.503 21.1788 96.4991L21.5734 97.1478L22.8269 95.5661C24.5773 93.3572 28.3374 89.5529 30.4552 87.8478C34.2136 84.8219 39.666 81.9449 43.7333 80.8417C44.5746 80.6135 44.9507 80.3306 44.4174 80.3273C44.2486 80.3262 42.9713 79.9433 41.579 79.4761C33.8411 76.8808 27.8305 72.3108 21.9613 64.5603L21.5247 63.9839L20.7476 65.5834ZM85.8635 65.02C83.9307 68.8555 82.8315 74.4786 82.8212 80.5837C82.813 85.3382 83.2788 88.7212 84.4211 92.2034C84.9763 93.8961 86.3614 96.7834 86.6182 96.7834C86.855 96.7834 87.8777 94.6311 88.526 92.7686C90.7606 86.3489 91.0394 77.1673 89.2025 70.4906C88.4995 67.9358 86.8351 64.2143 86.3955 64.2143C86.3262 64.2143 86.0869 64.5768 85.8635 65.02ZM151.273 64.5959C150.981 64.9591 150.116 66.7889 149.65 68.031C147.264 74.3823 146.722 83.724 148.363 90.2099C149.018 92.7996 150.161 95.4876 151.114 96.6759L151.503 97.1622L152.044 96.1476C153.401 93.6025 154.571 89.557 155.042 85.7842C155.382 83.0592 155.385 77.7525 155.046 75.1217C154.578 71.4819 153.488 67.8427 152.148 65.4441C151.822 64.8611 151.53 64.3839 151.499 64.3839C151.469 64.3839 151.367 64.4794 151.273 64.5959ZM215.409 65.7211C213.645 68.4194 210.471 71.7808 207.576 74.0162C204.481 76.4055 200.326 78.6531 196.228 80.1552C195.089 80.5725 194.213 80.9648 194.28 81.0269C194.348 81.089 194.857 81.269 195.41 81.4269C198.069 82.185 201.889 83.9734 204.581 85.7209C208.058 87.977 212.092 91.7491 215.006 95.4688C215.792 96.4718 216.486 97.2923 216.549 97.2923C216.848 97.2923 218.235 93.6971 218.82 91.4097C220.801 83.6641 220.398 74.2125 217.83 68.131C217.239 66.7326 216.219 64.8897 216.038 64.8958C215.988 64.8975 215.705 65.2689 215.409 65.7211ZM80.8265 70.7625C80.505 71.0987 79.5167 71.9835 78.6304 72.7289C74.7386 76.0019 70.3916 78.3535 65.6537 79.7486C63.9967 80.2366 63.8447 80.3122 64.2966 80.425C65.339 80.6849 68.5776 82.0703 70.7175 83.1717C74.2434 84.9864 78.9447 88.2203 80.8014 90.1079C81.1091 90.4207 81.5099 90.6767 81.6919 90.6767C82.0894 90.6767 82.0856 90.7254 81.7586 89.8075C80.4124 86.0278 80.2769 78.5418 81.4336 71.8477C81.5706 71.0546 81.6829 70.3486 81.6833 70.2786C81.6845 70.0082 81.3878 70.1756 80.8265 70.7625ZM91.3748 71.1863C91.5556 71.6621 91.8652 72.9408 92.0625 74.0276C92.5366 76.6372 92.5754 82.3378 92.1427 85.7574C91.8386 88.1619 91.264 91.6047 91.0773 92.142C91.017 92.3157 91.7985 91.6502 92.8141 90.6633C95.0478 88.4922 95.8727 87.8164 97.9684 86.4405C100.717 84.6355 104.219 82.9914 107.892 81.7807C108.918 81.4425 109.872 81.1219 110.012 81.0685C110.153 81.0147 109.659 80.8003 108.91 80.5892C103.611 79.0975 98.6286 76.3246 92.8474 71.65C91.9434 70.9191 91.1682 70.321 91.1249 70.321C91.0815 70.321 91.194 70.7103 91.3748 71.1863ZM144.773 72.1189C141.761 74.8671 138.506 77.0072 135.011 78.5381C133.294 79.2897 129.628 80.4961 129.043 80.5014C128.885 80.5029 128.658 80.5663 128.538 80.6425C128.397 80.7321 129.359 81.1942 131.252 81.947C134.841 83.3739 138.91 85.3869 141.024 86.7809C141.893 87.3543 143.247 88.4289 144.033 89.1687C145.353 90.4121 146.227 90.9888 146.452 90.7642C146.502 90.7138 146.419 90.2728 146.267 89.7841C145.627 87.7227 145.408 85.7599 145.402 82.0255C145.395 78.3048 145.57 76.148 146.156 72.7116C146.338 71.6473 146.46 70.7507 146.428 70.7189C146.396 70.687 145.651 71.3171 144.773 72.1189ZM156.373 70.8896C156.71 71.7671 157.178 74.7897 157.342 77.1374C157.603 80.8873 157.208 86.9487 156.505 90.0016C156.408 90.4195 156.328 90.8266 156.325 90.9064C156.323 90.9861 156.928 90.4808 157.669 89.7834C161.185 86.4763 166.151 83.5162 171.417 81.5892C172.631 81.145 173.605 80.7648 173.581 80.7443C173.558 80.7238 172.585 80.3894 171.419 80.0013C166.717 78.4366 162.254 75.7778 157.671 71.8107C156.893 71.1374 156.309 70.7228 156.373 70.8896ZM222.096 77.191C222.29 79.7879 222.198 83.7636 221.891 86.0174C221.395 89.6611 220.065 94.4286 218.68 97.5305C218.434 98.0813 218.278 98.5771 218.333 98.6324C218.499 98.7986 222.307 98.6946 223.58 98.4889C224.233 98.3834 225.588 98.1025 226.591 97.8646C228.739 97.3556 228.625 97.6272 227.98 94.5385C226.734 88.5722 224.75 81.9762 222.916 77.6999L221.97 75.4947L222.096 77.191ZM14.8892 78.0823C13.3914 81.7093 12.4221 84.8029 10.6849 91.4997L9.78926 94.9519L10.8717 95.4426C11.4669 95.7125 12.599 96.1203 13.3876 96.3488C14.894 96.7854 19.2474 97.7043 19.3373 97.6048C19.3661 97.5729 19.0554 96.6942 18.6467 95.6521C17.2939 92.2024 16.268 88.0773 15.8695 84.4852C15.6459 82.4703 15.6441 76.4806 15.867 76.3429C16.0649 76.2206 16.0951 75.9185 15.9094 75.9195C15.8395 75.9198 15.3803 76.8932 14.8892 78.0823ZM50.3021 81.8705C41.2181 82.7395 33.7931 86.3964 28.0265 92.8415C26.6648 94.3633 24.3485 97.3066 24.3485 97.5149C24.3485 97.6904 26.6904 97.6551 28.5535 97.4514C37.4615 96.4776 45.4874 92.2329 51.6272 85.2485C52.7714 83.9469 53.6886 82.4594 53.693 81.8983C53.6948 81.6569 52.6251 81.6481 50.3021 81.8705ZM58.614 81.8099C58.614 82.0662 59.7783 83.9128 60.7793 85.2439C63.7032 89.1329 67.628 92.3206 72.2693 94.5765C74.906 95.8582 76.872 96.5717 79.502 97.2021C81.3064 97.6343 84.7349 98.1991 84.851 98.0831C84.8868 98.0475 84.4338 97.3641 83.8445 96.5644C79.2309 90.3042 73.5449 86.0081 66.7362 83.6382C64.824 82.9726 62.3491 82.3193 60.6495 82.0315C60.0431 81.9288 59.3369 81.803 59.0805 81.7521C58.824 81.701 58.614 81.7271 58.614 81.8099ZM188.443 82.4884C188.922 83.415 191.179 86.3223 192.55 87.7797C195.333 90.7366 198.464 93.0207 202.353 94.9299C205.623 96.5354 208.832 97.5549 213.813 98.5708L214.394 98.6892L214.033 98.1179C208.974 90.1011 201.876 85.0377 192.538 82.7816C191.231 82.466 189.716 82.1555 189.17 82.0913L188.177 81.9746L188.443 82.4884ZM114.726 82.4628C110.3 82.9717 106.454 84.1009 102.633 86.014C97.7275 88.4701 94.065 91.6217 90.2903 96.6353L89.0933 98.2253L89.7565 98.2816C91.4087 98.4217 96.4417 97.6713 99.4102 96.8421C102.835 95.8856 106.673 94.071 109.503 92.0704C111.593 90.5927 115.39 86.8252 117.034 84.5978C118.906 82.061 118.87 82.1912 117.694 82.2148C117.154 82.2255 115.819 82.3371 114.726 82.4628ZM176.897 82.4706C167.915 83.6918 160.423 88.4533 154.508 96.6986L153.413 98.2253L154.485 98.279C156.012 98.3554 159.107 98.0299 161.58 97.5328C169.735 95.8939 176.774 91.4809 181.62 84.9689C182.255 84.1155 182.937 83.1422 183.135 82.8062L183.496 82.1951L181.062 82.2152C179.723 82.2262 177.849 82.3412 176.897 82.4706ZM123.583 82.5188C123.583 82.7997 126.537 86.5209 127.82 87.8549C132.142 92.3509 137.849 95.628 144.128 97.2195C145.855 97.6573 149.038 98.1859 149.168 98.0563C149.332 97.8918 146.667 94.5702 144.966 92.8212C139.252 86.9445 133.09 83.8994 124.049 82.4849C123.792 82.4447 123.583 82.4599 123.583 82.5188ZM55.3369 84.0187C54.1815 86.4824 53.4494 88.9821 52.8128 92.6375C52.4771 94.565 52.4313 95.4013 52.4369 99.4975C52.4428 103.871 52.4721 104.311 52.9062 106.537C53.4536 109.344 54.3111 111.984 55.2478 113.747C56.2809 115.69 56.28 115.69 56.9823 114.296C58.2593 111.76 59.4854 107.468 59.9983 103.738C60.2836 101.663 60.2874 95.4652 60.0044 93.4756C59.4845 89.8185 58.3736 86.3652 56.9623 84.0187C56.5275 83.2957 56.1226 82.704 56.0626 82.704C56.0025 82.704 55.676 83.2957 55.3369 84.0187ZM119.95 84.6014C118.326 87.947 117.331 92.0505 116.942 97.0088C116.597 101.409 117.192 106.61 118.493 110.563C119.247 112.853 120.531 115.528 120.877 115.528C121.174 115.528 122.27 113.479 122.901 111.745C124.243 108.053 124.774 104.945 124.892 100.087C124.963 97.1373 124.921 95.8689 124.691 94.0647C124.358 91.4468 123.69 88.6555 122.927 86.6904C122.34 85.1778 121.232 83.1892 120.92 83.0874C120.803 83.0492 120.393 83.6896 119.95 84.6014ZM185.134 83.9342C182.512 88.1472 181.282 93.9112 181.473 101.095C181.57 104.763 181.925 107.331 182.716 110.099C183.451 112.671 184.924 115.902 185.44 116.074C185.713 116.165 187.241 113.082 187.854 111.202C189.025 107.615 189.472 104.409 189.475 99.5823C189.478 94.6089 188.933 90.8918 187.671 87.2975C187.153 85.8195 185.889 83.2128 185.691 83.2133C185.631 83.2134 185.381 83.5378 185.134 83.9342ZM50.7151 89.0045C49.5463 90.2236 47.0519 92.2298 45.2131 93.4295C42.2193 95.3824 38.9829 96.9269 34.8124 98.3932L32.8085 99.0978L34.1707 99.4624C39.6818 100.938 45.6211 104.291 49.2868 107.997C50.5511 109.275 51.3636 109.858 51.5802 109.641C51.616 109.605 51.4988 109.105 51.3197 108.529C50.519 105.957 50.3918 104.745 50.3892 99.6671C50.3869 94.7867 50.6106 92.0607 51.2335 89.3809C51.3602 88.8355 51.4457 88.3712 51.4233 88.3488C51.4009 88.3265 51.0822 88.6214 50.7151 89.0045ZM190.134 88.5273C190.389 89.224 190.928 91.5393 191.188 93.0515C191.564 95.2359 191.709 101.405 191.445 103.965C191.333 105.048 191.057 106.751 190.832 107.75C190.606 108.749 190.45 109.595 190.485 109.63C190.52 109.665 191.339 109.06 192.306 108.285C197.256 104.319 202.407 101.555 207.804 99.9679L209.161 99.5687L207.465 99.0873C201.692 97.4489 196.44 94.3412 191.533 89.6606C190.701 88.8666 190.071 88.3566 190.134 88.5273ZM61.4264 90.0406C62.0403 92.3455 62.2554 94.6266 62.2537 98.819C62.2522 103.192 62.0237 105.428 61.3187 107.971C61.1372 108.626 60.9888 109.208 60.9888 109.263C60.9888 109.318 61.4276 109.01 61.9642 108.578C65.264 105.918 69.1362 103.434 72.4389 101.857C74.4042 100.919 78.2679 99.4975 78.8538 99.4975C79.0109 99.4975 79.1393 99.4212 79.1393 99.3279C79.1393 99.2346 79.0056 99.1572 78.8425 99.156C78.2406 99.1516 73.9946 97.6171 72.1431 96.7349C68.8295 95.1561 65.2881 92.7625 62.573 90.2667C61.9048 89.6525 61.3201 89.15 61.2736 89.15C61.2271 89.15 61.2958 89.5507 61.4264 90.0406ZM125.848 89.4002C126.168 90.2343 126.817 94.3782 126.973 96.5749C127.238 100.33 126.785 105.656 125.961 108.487C125.704 109.366 125.737 109.403 126.339 108.91C129.461 106.359 132.983 104.046 136.256 102.399C138.632 101.203 139.489 100.848 142.045 100.003C143.103 99.6531 143.904 99.3267 143.825 99.2777C143.746 99.2288 143.185 99.0609 142.58 98.9046C137.791 97.6691 132.194 94.5017 127.194 90.198C125.942 89.1207 125.681 88.966 125.848 89.4002ZM114.931 90.2146C113.638 91.4097 110.349 93.844 108.639 94.8715C105.716 96.6273 102.907 97.8916 99.495 98.9857L97.5443 99.6115L98.4772 99.8318C101.382 100.518 106.299 102.707 109.164 104.59C111.136 105.885 112.493 106.945 114.579 108.819C115.809 109.924 116.151 110.159 116.063 109.838C115.293 107.028 114.931 103.759 114.931 99.6069C114.931 95.997 115.117 93.6937 115.617 91.1118C115.796 90.1848 115.925 89.4097 115.904 89.3894C115.882 89.369 115.445 89.7403 114.931 90.2146ZM179.13 90.6928C177.127 92.7496 173.872 94.9387 170.316 96.6197C168.58 97.4404 167.288 97.9708 163.107 99.5786C162.437 99.8363 162.411 99.8203 164.369 100.354C169.41 101.727 174.402 104.592 179.12 108.819C179.857 109.479 180.481 109.999 180.506 109.974C180.531 109.949 180.406 109.318 180.228 108.572C179.593 105.912 179.347 102.777 179.442 98.5645C179.529 94.6729 179.625 93.9333 180.526 90.2102C180.689 89.5375 180.036 89.7632 179.13 90.6928ZM9.51124 97.2835C9.41251 97.4431 8.90277 100.225 8.96197 100.28C9.02847 100.343 12.9013 99.1764 13.577 98.8906L14.2555 98.6034L12.8136 98.2171C12.0206 98.0048 10.9741 97.674 10.488 97.4819C10.002 97.2901 9.56246 97.2007 9.51124 97.2835ZM227.657 99.6973C227.346 99.8815 227.363 99.9095 227.911 100.107C228.783 100.422 228.954 100.397 228.893 99.964C228.83 99.5206 228.189 99.3823 227.657 99.6973ZM16.936 100.264C14.3109 100.813 11.442 101.599 9.93718 102.182C8.42865 102.767 8.53704 102.51 8.06802 106.6C7.52927 111.298 7.32164 117.448 7.53962 122.26C7.75844 127.096 8.18981 131.563 8.4641 131.834C8.74908 132.115 13.3235 133.736 15.1884 134.216C16.7457 134.616 19.7685 134.948 19.7685 134.718C19.7685 134.657 19.5439 134.206 19.2696 133.718C18.0432 131.536 17.0232 128.156 16.4413 124.348C16.0134 121.547 16.0101 114.888 16.4354 111.965C17.0522 107.727 18.0255 104.193 19.3439 101.406L20.0862 99.8368L19.4609 99.8517C19.1169 99.86 17.9807 100.046 16.936 100.264ZM23.8396 100.103C23.8396 100.333 24.862 101.913 26.028 103.484C27.5847 105.582 30.5495 108.559 32.5756 110.059C36.5604 113.008 41.2098 115.03 46.5444 116.136C48.1413 116.467 52.1962 116.964 53.3269 116.968L53.892 116.969L53.5089 116.333C51.796 113.488 47.9683 109.227 45.2065 107.091C39.9167 103.001 33.6085 100.65 26.6446 100.174C23.803 99.9799 23.8396 99.981 23.8396 100.103ZM88.9031 100.705C88.9811 100.834 89.3138 101.321 89.6422 101.788C94.9942 109.392 102.14 114.153 111.01 116.026C112.937 116.432 116.899 116.964 118.032 116.968L118.504 116.969L117.666 115.728C111.998 107.327 103.315 102.052 93.2187 100.873C90.0691 100.505 88.7504 100.454 88.9031 100.705ZM153.438 100.63C153.438 100.98 156.51 105.259 157.807 106.715C163.744 113.379 172.271 117.139 181.449 117.139H183.489L182.84 116.224C181.556 114.417 179.324 111.851 177.654 110.263C171.681 104.584 164.652 101.515 155.728 100.688C153.517 100.484 153.438 100.482 153.438 100.63ZM81.1749 101.188C73.139 102.692 66.2886 106.694 60.6107 113.2C58.6776 115.415 58.4443 115.745 58.4443 116.266C58.4443 116.664 58.4688 116.671 59.4553 116.56C62.9121 116.169 68.5906 114.242 72.055 112.285C74.9279 110.663 78.5285 107.866 80.2423 105.926C81.3377 104.686 82.3543 103.428 83.2775 102.169L84.2416 100.855L83.5139 100.87C83.1138 100.879 82.0612 101.022 81.1749 101.188ZM147.755 100.965C147.568 101.005 146.616 101.194 145.638 101.387C140.647 102.369 135.65 104.442 131.895 107.09C129.063 109.086 125.389 112.994 123.364 116.164L123.066 116.63L123.621 116.629C123.926 116.628 125.092 116.437 126.212 116.204C135.574 114.258 142.572 109.819 148.256 102.222C148.774 101.53 149.197 100.94 149.197 100.91C149.197 100.836 148.182 100.875 147.755 100.965ZM218.609 100.964C218.393 101.011 218.241 101.102 218.271 101.164C218.3 101.227 218.616 101.842 218.972 102.53C221.844 108.08 222.843 117.29 221.458 125.451C220.832 129.133 220.023 131.739 218.645 134.51L217.725 136.359L219.593 136.245C221.679 136.118 224.402 135.686 227.267 135.026C228.316 134.784 229.189 134.572 229.207 134.553C229.305 134.455 229.806 130.889 230.038 128.635C230.402 125.091 230.547 115.223 230.295 111.117C230.067 107.403 229.63 103.266 229.424 102.878C229.271 102.588 226.325 101.701 224.089 101.271C222.685 101.001 219.297 100.811 218.609 100.964ZM211.19 101.44C202.284 103.131 195.262 107.197 190.028 113.692C188.927 115.058 187.339 117.34 187.427 117.429C187.559 117.56 191.224 116.927 193.172 116.437C200.169 114.676 206.036 110.964 211.334 104.946C213.658 102.307 213.826 102.075 213.826 101.51C213.826 100.925 213.891 100.927 211.19 101.44ZM20.8853 103.087C19.6541 105.769 18.6216 109.898 18.227 113.718C18.1049 114.901 18.0623 117.055 18.1163 119.316C18.2145 123.42 18.6355 126.225 19.5995 129.197C20.1474 130.886 21.495 133.775 21.8863 134.1C22.0726 134.255 22.2909 134.038 22.9857 133.008C25.5536 129.203 29.4062 125.538 33.5038 123.004C36.4123 121.204 40.7539 119.242 43.8506 118.326L45.1175 117.951L43.1721 117.388C35.6254 115.204 29.078 110.706 23.1786 103.653C22.3983 102.72 21.6916 101.931 21.6083 101.899C21.5252 101.867 21.1998 102.402 20.8853 103.087ZM86.3876 102.43C85.7743 103.366 84.7066 106.194 84.1573 108.337C82.0427 116.587 82.6181 126.446 85.5768 132.66C86.6647 134.945 86.5832 134.935 87.5902 132.897C89.6323 128.762 90.6579 123.723 90.669 117.769C90.6795 112.101 89.7874 107.627 87.9389 104.078C87.5746 103.378 87.1383 102.627 86.9695 102.408L86.6628 102.011L86.3876 102.43ZM150.427 102.98C148.549 106.717 147.479 112.194 147.479 118.072C147.479 123.06 148.103 126.967 149.526 130.887C150.079 132.412 151.357 134.803 151.672 134.902C151.92 134.98 153.106 132.38 153.758 130.331C154.385 128.357 155.048 125.14 155.294 122.871C155.523 120.77 155.525 115.442 155.3 113.572C154.75 109.027 153.244 104.684 151.508 102.641L150.936 101.967L150.427 102.98ZM215.527 102.749C214.764 104.106 212.542 106.888 210.942 108.488C206.822 112.609 201.79 115.654 195.082 118.084C194.242 118.388 193.67 118.673 193.81 118.718C193.95 118.762 195.171 119.152 196.524 119.583C203.486 121.804 209.636 126.218 214.745 132.663C215.483 133.595 216.137 134.415 216.197 134.486C216.326 134.638 217.368 132.579 217.968 130.985C220.087 125.357 220.695 116.552 219.399 110.269C218.935 108.018 218.327 106.121 217.605 104.671C216.932 103.319 216.162 102.043 216.02 102.042C215.968 102.042 215.746 102.36 215.527 102.749ZM80.8356 108.128C78.3417 110.69 75.1243 112.962 71.2515 114.895C69.5453 115.746 65.4262 117.432 64.0846 117.828C63.6881 117.945 63.3636 118.09 63.3636 118.15C63.3636 118.21 63.8337 118.356 64.4081 118.474C68.7964 119.381 73.7998 122.079 79.6482 126.692C81.001 127.759 82.1238 128.62 82.1435 128.604C82.163 128.588 82.0324 128.104 81.8532 127.528C81.0551 124.964 80.923 123.731 80.9306 118.92C80.9383 113.975 81.2173 111.339 82.0877 107.988C82.307 107.143 82.4777 106.457 82.4668 106.462C82.4559 106.468 81.7219 107.217 80.8356 108.128ZM91.5694 107.857C91.7914 108.435 92.3558 111.683 92.53 113.383C92.9843 117.821 92.5001 125.187 91.6001 127.529C91.5375 127.692 91.5366 127.826 91.5985 127.826C91.6603 127.826 92.6418 127.13 93.7795 126.28C99.112 122.295 103.527 119.89 108.206 118.42L109.877 117.895L108.284 117.448C102.898 115.934 97.7538 113.031 92.7213 108.667C92.028 108.066 91.5096 107.701 91.5694 107.857ZM145.539 108.335C143.701 110.277 138.722 113.647 135.033 115.447C132.647 116.611 129.049 117.987 128.392 117.987C128.266 117.987 128.163 118.064 128.163 118.157C128.163 118.25 128.305 118.327 128.48 118.327C129.026 118.327 132.08 119.267 133.676 119.927C136.781 121.211 140.18 123.326 144.403 126.604C145.629 127.556 146.672 128.335 146.72 128.335C146.768 128.335 146.696 128.02 146.56 127.636C146.149 126.471 145.668 123.783 145.455 121.459C145.046 117.018 145.627 111 146.744 108.106C146.945 107.585 146.097 107.746 145.539 108.335ZM156.67 109.803C157.599 113.807 157.889 118.645 157.435 122.567C157.186 124.725 156.704 127.395 156.383 128.409C156.298 128.675 156.409 128.632 156.935 128.195C158.73 126.702 162.249 124.142 163.893 123.134C166.399 121.598 169.912 119.903 172.267 119.096C174.187 118.437 174.208 118.424 173.624 118.268C169.715 117.22 165.881 115.521 162.767 113.457C161.037 112.311 157.585 109.586 156.931 108.851C156.753 108.651 156.553 108.488 156.486 108.488C156.419 108.488 156.502 109.079 156.67 109.803ZM0.336915 117.394C0.336745 120.472 0.359646 121.756 0.387804 120.246C0.415793 118.736 0.415963 116.217 0.387974 114.648C0.359815 113.079 0.336915 114.315 0.336915 117.394ZM50.8109 119.287C49.1265 119.451 46.2731 119.944 44.4952 120.379C36.3874 122.358 29.3782 127.312 24.5368 134.484L23.993 135.29L24.5524 135.289C24.8601 135.289 26.1424 135.17 27.4019 135.024C38.519 133.737 47.0667 128.843 53.0855 120.32L53.8942 119.175L52.6494 119.202C51.9648 119.217 51.1375 119.255 50.8109 119.287ZM115.525 119.286C104.187 120.63 96.5757 124.885 90.079 133.509L88.8012 135.205L89.6953 135.261C90.187 135.292 91.5436 135.231 92.7098 135.126C102.839 134.209 110.946 129.736 116.905 121.776C117.546 120.921 118.208 119.985 118.376 119.698L118.682 119.175L117.358 119.2C116.63 119.214 115.805 119.253 115.525 119.286ZM122.904 119.267C122.904 119.45 124.601 121.869 125.59 123.096C126.933 124.762 129.976 127.707 131.555 128.868C136.108 132.216 141.102 134.307 146.652 135.187C148.972 135.555 149.367 135.589 149.367 135.416C149.367 135.094 146.842 131.939 145.247 130.268C139.974 124.745 133.543 121.265 125.533 119.6C123.471 119.172 122.904 119.1 122.904 119.267ZM58.614 119.502C58.614 119.835 61.1808 123.087 62.6899 124.665C67.4065 129.599 72.8876 132.726 79.8178 134.437C81.8353 134.935 84.0547 135.35 84.1565 135.248C84.3604 135.045 81.1194 131.12 79.0779 129.098C76.1677 126.216 74.2802 124.846 70.8252 123.105C67.7206 121.541 64.7979 120.543 61.2852 119.845C58.3923 119.27 58.614 119.299 58.614 119.502ZM178.309 119.947C172.435 120.747 166.592 123.18 161.71 126.858C158.166 129.529 154.116 134.112 154.116 135.452C154.116 135.754 154.224 135.799 154.946 135.799C156.396 135.799 159.223 135.459 161.279 135.037C170.102 133.229 178.334 127.764 182.248 121.116C182.636 120.457 182.953 119.865 182.953 119.801C182.953 119.611 180.122 119.7 178.309 119.947ZM187.533 119.806C187.533 119.897 187.965 120.575 188.491 121.312C193.046 127.684 198.525 131.776 205.704 134.166C208.016 134.935 211.396 135.709 213.33 135.912L214.402 136.023L213.408 134.596C211.4 131.714 208.546 128.664 206.086 126.772C203.162 124.524 199.396 122.539 195.838 121.371C192.819 120.379 187.533 119.383 187.533 119.806ZM55.3633 121.077C53.8874 123.901 53.0932 126.448 52.4126 130.54C52.0406 132.777 51.9007 138.61 52.158 141.147C52.3985 143.52 53.0163 146.601 53.6258 148.469C54.1204 149.984 55.3545 152.592 55.5767 152.592C55.8254 152.592 57.1726 149.734 57.7356 148.012C59.961 141.207 60.0307 131.637 57.9039 124.942C57.4011 123.36 56.1723 120.615 55.8878 120.439C55.8083 120.39 55.5723 120.677 55.3633 121.077ZM119.96 121.431C118.69 123.704 117.796 126.497 117.118 130.319C116.667 132.859 116.491 138.638 116.785 141.236C117.326 146.009 118.715 150.614 120.33 152.988L120.657 153.47L121.173 152.564C124.259 147.142 125.385 137.917 123.986 129.522C123.619 127.323 122.691 124.321 121.81 122.482C120.665 120.092 120.699 120.111 119.96 121.431ZM184.768 121.566C183.619 123.537 182.542 126.947 181.906 130.625C181.576 132.532 181.525 133.438 181.523 137.325C181.521 141.274 181.569 142.086 181.911 144.005C182.433 146.928 183.143 149.268 184.132 151.32C185.396 153.945 185.341 153.914 186.092 152.421C186.441 151.729 187.018 150.274 187.375 149.188C189.603 142.4 189.844 133.098 187.959 126.554C187.52 125.028 186.135 121.996 185.526 121.227L185.203 120.819L184.768 121.566ZM60.3905 126.352C61.8108 130.955 61.9572 139.276 60.7218 145.182C60.5888 145.818 60.4799 146.375 60.4799 146.419C60.4799 146.464 61.3004 145.79 62.3034 144.921C66.1583 141.58 69.9942 139.334 75.0682 137.447C75.9545 137.117 77.0232 136.756 77.443 136.645C77.8628 136.534 78.2723 136.402 78.3529 136.353C78.4335 136.304 77.4876 135.931 76.2512 135.524C71.512 133.964 66.8557 131.231 62.8773 127.672C62.1901 127.057 61.2638 126.231 60.819 125.837L60.0104 125.12L60.3905 126.352ZM50.1324 127.005C45.836 130.877 40.7213 133.767 34.4416 135.871C33.6952 136.121 32.97 136.366 32.8301 136.415C32.6901 136.464 33.4535 136.76 34.5264 137.072C40.0779 138.686 45.2477 141.585 49.1784 145.288C50.6532 146.677 51.2944 147.01 51.0773 146.273C49.9587 142.478 49.631 139.147 49.9385 134.702C50.1324 131.899 50.6165 128.341 50.9975 126.918C51.0937 126.559 51.1483 126.242 51.119 126.215C51.0895 126.187 50.6456 126.543 50.1324 127.005ZM125.346 126.554C125.415 126.74 125.614 127.505 125.788 128.253C127.003 133.459 126.979 140.681 125.73 145.633C125.518 146.475 125.366 147.164 125.392 147.164C125.419 147.164 126.224 146.506 127.183 145.702C131.533 142.053 137.276 138.909 142.666 137.224L144.193 136.747L143.514 136.598C140.275 135.889 136.282 134.238 133.278 132.366C131.794 131.442 128.736 129.18 127.143 127.828C125.057 126.059 125.202 126.162 125.346 126.554ZM115.257 126.917C115.031 127.163 114.16 127.941 113.32 128.645C109.709 131.674 104.87 134.284 99.4402 136.132L97.6043 136.757L99.1858 137.145C103.743 138.262 108.581 141.059 113.514 145.428C115.042 146.781 115.721 147.168 115.669 146.655C115.655 146.515 115.522 145.942 115.374 145.383C114.305 141.352 114.333 133.412 115.435 128.034C115.601 127.22 115.722 126.535 115.703 126.512C115.684 126.489 115.483 126.671 115.257 126.917ZM179.296 127.676C175.732 131.335 169.908 134.641 163.744 136.504C163.022 136.723 162.432 136.939 162.433 136.986C162.434 137.033 163.559 137.434 164.933 137.879C169.791 139.449 174.815 142.389 179.43 146.361C180.062 146.904 180.578 147.327 180.577 147.299C180.576 147.271 180.459 146.867 180.317 146.4C179.24 142.861 179.116 136.039 180.001 129.04C180.146 127.889 180.236 126.918 180.2 126.882C180.164 126.845 179.757 127.203 179.296 127.676ZM190.156 127.105C190.358 127.631 190.767 129.731 191.006 131.473C191.695 136.482 191.412 141.917 190.234 146.296C190.049 146.985 189.92 147.571 189.949 147.6C189.977 147.628 190.724 147.078 191.608 146.377C196.117 142.802 201.857 139.584 206.21 138.19C207.46 137.789 208.625 137.409 208.798 137.345C209.011 137.265 208.517 137.076 207.272 136.761C201.858 135.39 196.186 132.208 191.389 127.851C190.175 126.749 189.971 126.625 190.156 127.105ZM8.88937 134.351C8.65307 134.588 9.23966 138.004 9.51666 138.004C9.54669 138.004 9.8237 137.856 10.1323 137.676C10.4408 137.496 11.3393 137.185 12.129 136.985C12.9186 136.785 13.8346 136.502 14.1646 136.357L14.7644 136.092L13.7362 135.872C13.1709 135.751 11.8915 135.342 10.8934 134.962C8.91888 134.211 9.00353 134.237 8.88937 134.351ZM227.015 137.088C226.572 137.224 226.209 137.4 226.209 137.479C226.209 137.605 228.132 138.173 228.559 138.173C228.646 138.173 228.747 137.868 228.783 137.495C228.846 136.836 228.832 136.817 228.334 136.828C228.052 136.835 227.458 136.952 227.015 137.088ZM23.8396 137.31C23.8396 137.561 25.7429 140.296 26.9871 141.832C28.2987 143.452 30.2683 145.415 31.8201 146.65C36.8315 150.639 43.8384 153.391 50.8109 154.111C51.7906 154.212 52.8784 154.324 53.2282 154.36C53.5781 154.396 53.8643 154.389 53.8643 154.343C53.8643 154.193 52.6221 152.358 51.588 150.98C50.3088 149.276 47.5579 146.427 45.8916 145.081C40.9542 141.092 34.3393 138.446 27.1474 137.585C25.9346 137.439 24.6941 137.288 24.3909 137.249C24.0878 137.209 23.8396 137.237 23.8396 137.31ZM16.7999 137.91C14.4188 138.364 11.7853 139.062 10.6978 139.528C9.7723 139.925 9.77433 139.907 10.3526 142.747C11.3585 147.686 12.9471 153.1 14.57 157.119C15.8821 160.369 15.8291 160.391 15.735 156.643C15.5871 150.751 16.0914 148.048 18.7385 140.548C19.4981 138.397 19.616 137.486 19.1324 137.509C18.969 137.516 17.9195 137.697 16.7999 137.91ZM81.9382 137.824C76.5826 138.775 71.6638 140.646 67.774 143.213C63.7587 145.862 60.8322 148.798 57.9592 153.058C57.1188 154.305 57.0305 154.264 59.7166 153.864C68.6687 152.53 76.8011 148.087 82.2902 141.531C83.7144 139.83 84.3466 138.811 84.4264 138.089C84.498 137.441 84.2459 137.415 81.9382 137.824ZM89.0203 137.95C88.717 137.991 88.469 138.067 88.469 138.119C88.469 138.252 89.5798 139.748 90.6333 141.033C92.4464 143.245 94.0261 144.886 95.848 146.449C101.848 151.599 108.453 154.214 116.369 154.576L118.739 154.684L118.419 154.189C116.452 151.147 111.294 145.709 108.534 143.768C104.267 140.768 99.8083 138.934 95.1694 138.272C93.3233 138.009 89.9009 137.829 89.0203 137.95ZM147.925 138.196C137.615 140.07 129.831 144.621 124.287 152.019C123.573 152.971 122.844 153.997 122.668 154.299L122.347 154.847L123.431 154.726C127.042 154.323 131.862 152.87 135.564 151.067C141.566 148.144 145.82 144.262 149.183 138.64L149.564 138.004L149.168 138.023C148.951 138.033 148.391 138.111 147.925 138.196ZM153.466 138.337C153.611 138.753 156.463 142.156 157.88 143.602C162.793 148.616 168.026 151.693 174.182 153.188C176.428 153.734 179.845 154.148 181.577 154.085L183 154.034L181.71 152.301C180.224 150.305 177.317 147.234 175.535 145.776C171.335 142.339 166.429 140.025 161.071 138.952C158.032 138.344 153.337 137.964 153.466 138.337ZM21.4663 139.222C17.512 145.632 16.5777 158.514 19.4453 167.084C19.9513 168.596 21.0818 171.033 21.5754 171.675C21.829 172.006 21.8414 172.006 22.032 171.695C26.1435 165.002 33.5362 159.382 42.6224 156.045C43.8564 155.592 44.8679 155.182 44.87 155.135C44.8722 155.087 44.206 154.872 43.3899 154.655C38.7575 153.428 33.8604 150.88 30.1434 147.762C27.6149 145.64 24.5424 142.36 22.5416 139.646L21.8137 138.658L21.4663 139.222ZM211.701 138.937C209.586 139.325 206.603 140.171 204.626 140.944C199.382 142.994 195.202 145.723 191.324 149.626C189.022 151.943 188.32 152.829 188.113 153.677L187.993 154.169L188.908 154.05C193.69 153.428 199.612 151.283 203.534 148.753C206.689 146.719 210.088 143.488 212.13 140.583C212.736 139.72 213.258 138.94 213.289 138.848C213.357 138.649 213.238 138.656 211.701 138.937ZM219.127 138.805C218.824 138.843 218.576 138.94 218.576 139.021C218.576 139.102 218.872 139.765 219.233 140.494C221.152 144.364 222.216 149.613 222.577 156.987C222.638 158.246 222.748 159.155 222.822 159.023C223.121 158.486 225.726 150.449 226.445 147.842C227.465 144.143 228.299 140.361 228.128 140.209C227.942 140.044 223.675 139.07 222.211 138.859C221.041 138.69 220.177 138.675 219.127 138.805ZM215.23 140.082C214.142 141.722 212.779 143.368 211.071 145.104C206.776 149.47 201.805 152.478 194.608 155.066L193.795 155.358L195.965 156.076C203.501 158.569 209.577 162.942 215.344 170.024L216.762 171.765L217.044 171.296C218.233 169.322 219.53 164.927 220.002 161.27C220.355 158.535 220.36 153.116 220.012 150.438C219.565 147.003 218.714 143.899 217.601 141.651C216.946 140.325 216.164 139.022 216.025 139.022C215.975 139.022 215.617 139.499 215.23 140.082ZM85.5989 140.645C82.1913 147.651 81.6454 159.056 84.3288 167.179C84.8138 168.647 86.3909 171.93 86.6112 171.93C86.8173 171.93 87.8282 169.765 88.4395 168.015C89.4437 165.14 90.201 160.87 90.4223 156.833C90.6169 153.284 90.0485 148.301 89.0568 144.863C88.5985 143.274 87.23 140.24 86.6606 139.551L86.3273 139.148L85.5989 140.645ZM150.587 141.015C148.643 145.13 147.765 149.764 147.766 155.9C147.767 160.683 148.181 163.769 149.291 167.265C149.773 168.782 151.216 171.93 151.429 171.93C151.657 171.93 152.692 169.734 153.333 167.892C153.982 166.029 154.636 163.125 154.984 160.565C155.315 158.136 155.271 151.933 154.906 149.539C154.533 147.083 153.78 144.16 153.107 142.552C152.503 141.108 151.626 139.53 151.427 139.53C151.351 139.53 150.973 140.198 150.587 141.015ZM80.2419 146.502C75.3185 150.468 70.8454 152.971 65.2593 154.886L63.1684 155.603L64.4111 155.903C69.5212 157.139 74.495 159.882 80.6102 164.837C81.2794 165.38 81.869 165.823 81.9208 165.823C81.9723 165.823 81.9336 165.613 81.8348 165.357C81.1647 163.619 80.4964 158.685 80.4964 155.476C80.4964 152.297 81.0168 148.317 81.744 145.934C81.8792 145.491 81.9783 145.13 81.964 145.132C81.9498 145.134 81.1749 145.75 80.2419 146.502ZM91.3658 146.188C92.1461 148.763 92.4448 151.288 92.4447 155.306C92.4443 160.04 92.1648 162.033 90.8914 166.375C90.702 167.02 91.5427 166.663 92.605 165.647C93.1939 165.084 94.4699 164.003 95.4405 163.245C99.8575 159.795 104.07 157.545 108.515 156.26L109.927 155.852L109.164 155.655C103.44 154.176 97.3509 150.717 92.1001 145.962C91.5938 145.503 91.1492 145.128 91.112 145.128C91.0749 145.128 91.1892 145.605 91.3658 146.188ZM156.21 145.484C156.867 147.88 157.338 151.769 157.339 154.815C157.34 157.487 156.8 163.549 156.382 165.569C156.29 166.016 156.505 165.858 158.151 164.269C161.217 161.308 165.472 158.74 171.627 156.135C172.814 155.632 173.787 155.176 173.789 155.121C173.792 155.066 173.355 154.923 172.818 154.803C171.173 154.436 168.578 153.465 166.601 152.476C163.678 151.014 161.197 149.32 157.62 146.343C156.407 145.333 156.121 145.159 156.21 145.484ZM144.928 147.064C141.444 150.359 136.585 153.156 130.59 155.319L128.522 156.065L130.309 156.531C134.78 157.697 138.195 159.547 144.246 164.082C145.674 165.152 146.871 166.001 146.905 165.967C146.939 165.933 146.821 165.475 146.644 164.949C145.477 161.491 145.315 154.564 146.247 147.963C146.389 146.956 146.481 146.029 146.451 145.903C146.42 145.768 145.801 146.239 144.928 147.064ZM187.194 156.412C187.194 156.617 188.951 159.308 189.93 160.602C192.061 163.42 195.609 166.595 198.644 168.403C202.592 170.754 207.495 172.439 212.595 173.198C213.551 173.34 214.447 173.457 214.587 173.457C214.908 173.457 214.219 172.312 212.545 170.064C207.188 162.875 199.249 158.224 189.654 156.657C187.486 156.302 187.194 156.273 187.194 156.412ZM180.663 156.672C169.833 157.248 161.051 162.306 154.393 171.803L153.59 172.948H155.342C156.305 172.948 157.741 172.868 158.531 172.77C168.185 171.577 175.742 167.055 181.971 158.746C183.265 157.019 183.581 156.425 183.156 156.52C183.091 156.534 181.97 156.603 180.663 156.672ZM49.499 156.85C42.8137 157.628 36.2447 160.326 31.406 164.282C29.1645 166.115 25.1163 170.687 24.1704 172.455C23.9826 172.806 23.9998 172.811 24.8842 172.703C29.935 172.086 33.1663 171.366 36.433 170.132C41.5856 168.184 46.2338 165.024 49.6751 161.127C50.9124 159.726 53.0063 157.005 53.0124 156.79C53.0172 156.63 51.1107 156.662 49.499 156.85ZM58.1763 157.441C64.903 166.499 72.3833 171.217 82.0882 172.524C83.2759 172.684 84.2922 172.771 84.3466 172.716C84.5892 172.474 81.0332 168.227 78.9266 166.243C74.0916 161.69 68.3722 158.69 62.1348 157.434C60.9913 157.204 59.522 156.962 58.8696 156.897L57.6834 156.777L58.1763 157.441ZM54.3915 158.741C52.6034 162.361 51.6756 166.843 51.5359 172.534C51.405 177.877 51.8347 181.516 53.0452 185.32C53.617 187.117 54.913 189.902 55.3693 190.315C55.6424 190.562 55.7068 190.5 56.2773 189.44C57.7427 186.717 58.7468 183.218 59.3066 178.884C59.6114 176.524 59.6538 175.542 59.577 172.608C59.4492 167.731 58.8618 164.404 57.5319 161.025C57.0415 159.779 55.5068 157.002 55.3087 157.002C55.2767 157.002 54.8639 157.785 54.3915 158.741ZM116.797 157.116C105.289 157.934 96.8149 162.539 90.0044 171.675L89.1192 172.863L90.6176 172.916C95.517 173.091 102.411 171.07 107.339 168.013C111.12 165.668 115.089 161.915 117.623 158.289C118.43 157.134 118.466 156.991 117.942 157.032C117.733 157.048 117.217 157.086 116.797 157.116ZM123.221 158.205C130.072 166.838 137.203 171.241 146.686 172.695C149.502 173.127 149.47 173.166 147.96 171.138C146.467 169.134 143.707 166.213 141.948 164.774C136.909 160.652 130.237 157.924 123.928 157.405L122.492 157.287L123.221 158.205ZM119.964 158.722C118.851 160.629 117.806 163.888 117.197 167.35C116.665 170.368 116.473 175.576 116.782 178.568C117.177 182.387 118.086 186.031 119.338 188.805L119.872 189.99L120.62 188.828C125.135 181.81 125.209 166.512 120.766 158.637L120.396 157.983L119.964 158.722ZM184.761 158.723C183.243 161.313 182.024 165.369 181.404 169.894C181.07 172.333 181.114 178.691 181.481 181.051C181.855 183.451 182.425 185.711 183.087 187.414C183.641 188.841 184.964 191.268 185.187 191.268C185.37 191.268 186.416 189.174 187.038 187.561C187.658 185.952 188.467 182.741 188.817 180.496C189.187 178.128 189.326 172.459 189.074 170.052C188.571 165.247 187.288 161.059 185.525 158.468L185.195 157.983L184.761 158.723ZM124.835 163.703C125.064 164.304 125.592 166.715 125.821 168.198C125.958 169.093 126.042 171.216 126.041 173.796C126.04 178.136 125.831 180.143 125.111 182.739C124.936 183.369 124.81 183.9 124.829 183.92C124.849 183.94 125.245 183.651 125.708 183.278C130.607 179.339 136.297 176.068 140.885 174.555C142.394 174.058 142.884 173.798 142.318 173.793C141.654 173.788 137.864 172.397 135.881 171.43C132.662 169.86 129.554 167.682 125.943 164.466C125.237 163.837 124.761 163.509 124.835 163.703ZM49.6235 164.335C49.2037 164.709 48.0205 165.647 46.9942 166.418C42.3489 169.909 37.3451 172.303 31.8971 173.638C29.6491 174.19 25.6421 174.814 24.3504 174.814C23.8939 174.814 23.4785 174.881 23.4273 174.964C23.376 175.047 23.8925 175.848 24.5748 176.744C30.911 185.066 38.0835 189.617 47.3335 191.184C50.0004 191.635 53.525 191.912 53.525 191.669C53.525 191.583 53.1885 190.748 52.777 189.813C51.2415 186.324 50.002 182.113 49.5292 178.778C49.0644 175.502 49.1939 173.041 50.1329 167.291C50.3289 166.093 50.4659 164.784 50.4379 164.383L50.3869 163.654L49.6235 164.335ZM114.087 165.431C110.303 168.782 105.54 171.537 100.089 173.528C97.4903 174.477 97.5999 174.402 98.4772 174.63C103.498 175.932 107.248 177.961 113.225 182.608C114.666 183.728 115.868 184.62 115.897 184.591C115.926 184.562 115.805 184.116 115.627 183.6C114.986 181.735 114.719 179.616 114.636 175.715C114.551 171.715 114.787 168.667 115.424 165.569C115.597 164.729 115.728 164.034 115.716 164.024C115.704 164.015 114.971 164.648 114.087 165.431ZM179.97 164.188C179.776 164.696 176.627 167.353 174.642 168.686C171.655 170.69 168.372 172.302 164.425 173.701L162.436 174.405L164.849 175.216C169.673 176.837 174.927 179.838 177.457 182.418C179.225 184.22 180.262 184.838 179.998 183.931C179.464 182.099 179.2 180.041 179.106 177.002C178.991 173.262 179.173 170.677 179.831 166.696C180.217 164.357 180.27 163.408 179.97 164.188ZM60.5615 164.424C60.95 165.402 61.5172 168.632 61.6739 170.758C61.9387 174.347 61.5211 179.823 60.7244 183.21C60.5927 183.77 60.4838 184.299 60.4825 184.385C60.4811 184.471 61.0716 183.968 61.7946 183.267C64.9951 180.163 69.7838 177.322 75.7855 174.965C77.0664 174.462 78.1161 174.011 78.118 173.963C78.12 173.916 77.6062 173.734 76.9765 173.559C75.2616 173.084 72.1722 171.858 70.4574 170.972C68.1515 169.781 65.1509 167.719 63.4485 166.155C61.8812 164.716 61.0779 164.129 60.6738 164.128C60.5227 164.127 60.4841 164.229 60.5615 164.424ZM190.439 165.611C191.102 168.386 191.311 170.392 191.308 173.965C191.306 177.743 191.083 179.847 190.328 183.216C189.732 185.876 188.899 188.393 187.955 190.387C187.534 191.274 187.216 192.025 187.247 192.056C187.378 192.186 191.69 191.384 193.725 190.85C202.092 188.656 208.554 184.133 213.19 177.222C213.727 176.422 214.166 175.678 214.166 175.568C214.166 175.443 213.679 175.326 212.851 175.254C210.823 175.075 207.503 174.358 205.3 173.624C200.646 172.071 196.168 169.403 191.64 165.484C190.885 164.831 190.236 164.297 190.196 164.297C190.157 164.297 190.266 164.888 190.439 165.611ZM81.7257 175.579C75.0068 177.003 69.3491 179.552 64.9751 183.127C62.4636 185.179 59.6886 188.395 58.1853 190.995L57.7058 191.824L58.5415 191.704C61.5837 191.266 65.3889 190.222 68.2049 189.053C75.192 186.153 80.4538 181.734 83.7943 175.959C84.3551 174.989 84.4369 175.004 81.7257 175.579ZM148.009 175.274C146.381 175.456 142.219 176.409 140.277 177.043C137.605 177.917 133.363 180.021 131.355 181.47C129.228 183.004 127.328 184.697 125.857 186.367C124.623 187.768 122.518 190.572 122.067 191.417L121.851 191.82L122.844 191.703C124.608 191.494 127.903 190.78 129.902 190.174C136.584 188.149 142.257 184.415 146.311 179.376C147.531 177.86 149.197 175.476 149.197 175.247C149.197 175.152 149.074 175.154 148.009 175.274ZM88.7296 175.85C89.3321 176.862 91.2613 179.159 93.0402 180.981C98.9217 187.007 105.761 190.399 114.592 191.672C117.365 192.072 118.324 192.153 118.324 191.989C118.324 191.905 117.934 191.27 117.458 190.577C112.9 183.943 106.221 178.909 99.3597 176.935C96.4921 176.11 94.6185 175.817 91.54 175.714C89.0473 175.63 88.611 175.651 88.7296 175.85ZM153.728 176.173C154.35 177.156 156.365 179.592 157.821 181.122C162.889 186.447 169.132 189.921 176.183 191.339C178.358 191.776 182.71 192.246 182.892 192.064C183.145 191.812 179.372 187.16 177.054 184.866C170.976 178.851 163.488 175.679 155.329 175.665L153.404 175.662L153.728 176.173ZM150.558 177.909C149.356 180.597 148.407 184.333 148.019 187.911C147.752 190.362 147.796 195.836 148.101 198.172C148.665 202.497 150.059 206.785 151.611 208.964L151.966 209.463L152.307 208.804C153.446 206.608 154.522 202.966 155.081 199.41C155.555 196.403 155.516 189.215 155.012 186.433C154.561 183.949 153.944 181.775 153.193 180.03C152.64 178.746 151.421 176.684 151.213 176.681C151.155 176.68 150.861 177.233 150.558 177.909ZM85.9648 178.132C81.9175 186.216 81.8359 200.126 85.7907 207.764C86.1649 208.488 86.5381 209.079 86.6199 209.079C86.8551 209.079 87.8797 206.921 88.526 205.064C89.7966 201.415 90.3908 197.507 90.3921 192.795C90.3936 186.744 89.2532 181.36 87.2146 177.793L86.6389 176.785L85.9648 178.132ZM80.5812 183.164C74.9652 188.805 67.923 192.275 59.769 193.418C58.6206 193.579 57.6527 193.73 57.6181 193.754C57.4905 193.841 58.456 195.321 59.6564 196.877C62.8045 200.96 67.1099 204.379 71.9495 206.642C75.021 208.077 80.4721 209.686 83.4388 210.032L84.4306 210.147L84.0956 209.486C80.9684 203.31 79.9468 191.26 81.8622 183.143C82.0471 182.359 82.1781 181.698 82.1531 181.674C82.1282 181.65 81.4209 182.32 80.5812 183.164ZM145.052 183.658C140.681 187.617 136.358 190.197 131.301 191.866C128.912 192.654 125.584 193.397 123.625 193.578C122.949 193.64 122.395 193.745 122.395 193.81C122.395 194.009 123.727 196.005 124.804 197.419C129.308 203.336 135.885 207.611 143.253 209.41C145.281 209.905 149.647 210.552 149.817 210.382C149.866 210.333 149.636 209.809 149.307 209.219C147.149 205.358 145.635 198.204 145.635 191.869C145.635 189.897 146.099 185.332 146.472 183.634C146.646 182.841 146.777 182.179 146.762 182.163C146.747 182.147 145.978 182.82 145.052 183.658ZM91.4566 184.077C92.2135 186.911 92.4498 188.924 92.4508 192.54C92.4513 194.918 92.3587 196.592 92.1407 198.138C91.613 201.882 90.2004 206.852 88.9898 209.226C88.7966 209.604 88.6386 209.977 88.6386 210.055C88.6386 210.233 91.2577 210.02 93.4458 209.664C103.498 208.029 110.979 203.517 116.582 195.709C117.163 194.899 117.64 194.195 117.642 194.145C117.644 194.095 116.71 193.957 115.568 193.837C107.322 192.976 100.644 190.09 93.0915 184.124C92.0418 183.295 91.1568 182.617 91.1248 182.617C91.0927 182.617 91.242 183.274 91.4566 184.077ZM156.374 183.051C157.096 185.516 157.674 189.725 157.677 192.54C157.682 198.139 156.262 205.063 154.135 209.8C153.853 210.43 153.676 210.945 153.743 210.945C153.809 210.945 154.851 210.83 156.057 210.689C165.859 209.542 173.83 205.669 179.421 199.336C180.979 197.571 183.114 194.716 183.12 194.39C183.122 194.271 182.396 194.165 181.114 194.096C180.01 194.036 178.082 193.798 176.831 193.567C169.494 192.211 164.05 189.406 157.021 183.361C156.47 182.887 156.303 182.807 156.374 183.051ZM31.1331 186.779C33.0185 189.254 37.12 193.864 40.0377 196.787C42.5962 199.35 45.7968 202.294 46.0257 202.294C46.3737 202.294 51.6532 196.859 52.3841 195.748C53.5317 194.004 53.535 193.982 52.6526 193.982C51.1044 193.983 47.4034 193.411 44.9463 192.79C40.4991 191.667 37.1367 190.175 31.5578 186.85C30.9616 186.495 30.9102 186.486 31.1331 186.779ZM205.43 187.725C204.276 188.607 201.684 190.071 199.875 190.862C196.682 192.259 193.007 193.301 187.659 194.328C186.991 194.456 186.718 194.579 186.797 194.715C187.165 195.344 189.374 198.379 190.092 199.241C190.555 199.798 191.356 200.572 191.871 200.961L192.808 201.668L193.436 201.083C193.782 200.76 195.126 199.508 196.424 198.3C199.178 195.736 201.994 192.725 204.07 190.121C205.429 188.419 206.311 187.19 206.167 187.201C206.135 187.204 205.803 187.44 205.43 187.725ZM119.042 196.23C118.086 198.156 117.869 198.719 117.29 200.767C116.434 203.794 116.097 206.251 115.997 210.2C115.864 215.401 116.369 219.407 117.649 223.313C118.209 225.018 119.801 228.276 120.124 228.373C120.342 228.439 121.476 226.17 122.118 224.382C124.798 216.92 124.835 205.762 122.204 199.005C121.516 197.238 120.168 194.83 119.867 194.83C119.795 194.83 119.424 195.46 119.042 196.23ZM54.7131 196.314C53.4911 199.208 52.1044 203.858 51.7587 206.222L51.6432 207.011L53.8139 208.534C59.4457 212.484 64.301 215.417 69.3092 217.894C72.386 219.415 76.3414 221.123 76.7889 221.123C77.3599 221.123 81.1477 217.496 82.7231 215.44C83.6953 214.172 84.9309 212.27 84.841 212.18C84.804 212.143 83.9066 212 82.8469 211.862C72.3578 210.497 64.1092 205.711 56.7497 196.718C55.976 195.773 55.3262 195 55.3057 195C55.2851 195 55.0185 195.591 54.7131 196.314ZM183.664 197.387C180.1 202.164 176.05 205.667 171.038 208.308C166.78 210.552 161.204 212.224 155.982 212.824C155.003 212.936 154.145 213.077 154.076 213.138C153.892 213.299 156.473 216.571 158.077 218.211C159.403 219.566 161.346 221.123 161.713 221.123C162.151 221.123 168.149 218.204 172.105 216.065C176.053 213.931 178.268 212.598 182.484 209.822C186.242 207.348 187.541 206.323 187.971 205.492C188.581 204.312 188.07 202.277 186.319 198.911C184.601 195.609 184.873 195.766 183.664 197.387ZM50.1153 201.423C49.8725 201.669 49.2388 202.241 48.7068 202.694C48.1751 203.147 47.7628 203.621 47.7912 203.747C47.8193 203.872 48.3004 204.317 48.8602 204.736L49.878 205.496L49.987 204.701C50.0469 204.263 50.2569 203.334 50.4535 202.637C50.9772 200.778 50.928 200.601 50.1153 201.423ZM113.575 202.166C107.444 207.924 98.9734 211.518 89.8717 212.224L88.3058 212.345L88.5995 212.848C89.4342 214.277 92.3364 217.87 94.0614 219.61C98.7217 224.311 104.109 227.268 110.257 228.498C112.367 228.921 115.466 229.264 117.183 229.265L118.163 229.265L117.489 228.035C116.089 225.48 114.964 221.812 114.329 217.73C113.959 215.345 113.81 208.837 114.07 206.333C114.179 205.277 114.421 203.661 114.607 202.739C114.794 201.818 114.924 201.044 114.897 201.018C114.869 200.993 114.274 201.509 113.575 202.166ZM124.837 201.363C125.13 202.099 125.785 204.907 125.993 206.316C126.35 208.746 126.255 214.449 125.808 217.367C125.173 221.515 124.067 225.325 122.612 228.375L122.106 229.435H122.722C123.671 229.435 127.902 228.652 129.605 228.162C133.012 227.181 136.399 225.688 138.929 224.052C142.616 221.669 145.93 218.374 148.595 214.441C149.856 212.581 149.85 212.479 148.493 212.474C147.304 212.47 143.956 211.858 141.983 211.283C136.707 209.746 132.479 207.292 125.712 201.839C125.033 201.292 124.747 201.136 124.837 201.363ZM189.495 202.082C189.568 202.245 189.66 202.709 189.701 203.114C189.771 203.811 189.798 203.843 190.223 203.738C191.117 203.519 191.162 203.27 190.447 202.496C189.769 201.761 189.253 201.537 189.495 202.082ZM85.4157 215.129C84.9025 215.932 83.643 217.502 82.6168 218.62C80.435 220.996 79.2782 222.336 79.349 222.407C79.4614 222.519 86.5563 224.763 89.4868 225.613C94.0175 226.926 97.8471 227.68 101.531 227.983L102.803 228.088L100.904 227.077C97.4968 225.262 94.8395 223.286 92.1151 220.542C90.3942 218.809 88.0354 215.986 87.0557 214.487C86.7602 214.035 86.4801 213.667 86.4334 213.668C86.3868 213.67 85.9288 214.327 85.4157 215.129ZM151.142 214.645C148.096 219.46 143.239 223.883 137.238 227.309L135.542 228.277L136.39 228.164C140.416 227.631 148.037 225.879 152.36 224.491C155.151 223.596 158.853 222.219 159.083 221.991C159.156 221.918 158.763 221.504 158.21 221.069C157.133 220.224 155.896 218.878 153.579 216.032C151.612 213.616 151.745 213.691 151.142 214.645Z" fill="white"/>
</svg>
