<svg width="279" height="279" viewBox="0 0 279 279" fill="none" xmlns="http://www.w3.org/2000/svg">
<mask id="path-1-outside-1_626_1049" maskUnits="userSpaceOnUse" x="0" y="0" width="279" height="279" fill="black">
<rect fill="white" width="279" height="279"/>
<path fill-rule="evenodd" clip-rule="evenodd" d="M131.742 3.06917C131.102 3.13137 128.944 3.32061 126.945 3.49009C105.073 5.34382 82.4837 13.2849 63.8655 25.6654C49.4827 35.2294 35.7935 48.8329 26.2996 62.9962C13.0662 82.7379 5.85034 103.06 3.35854 127.606C2.88385 132.284 2.87948 146.418 3.35157 151.297C4.96257 167.949 8.83021 182.385 15.6173 197.081C27.6484 223.131 48.5383 245.432 73.8155 259.213C92.6363 269.474 112.005 274.871 133.554 275.861C166.901 277.392 199.622 266.531 225.78 245.248C228.577 242.972 236.169 236.111 236.478 235.579C236.59 235.387 237.968 233.883 239.541 232.238C248.92 222.425 257.528 209.637 263.445 196.725C278.167 164.6 280.01 128.331 268.613 95.0483C262.332 76.7078 252.212 60.0306 238.647 45.6716C215.927 21.6205 185.801 6.86123 152.526 3.47788C149.449 3.16509 133.9 2.85929 131.742 3.06917ZM131.582 5.24063C105.787 6.7964 80.9285 15.6953 60.3772 30.7304C52.4187 36.5529 42.8896 45.3178 37.3833 51.8808C32.8793 57.2492 27.2725 64.9793 24.8045 69.2225L24.0173 70.5762L26.4275 70.7428C27.7527 70.8344 30.1454 70.987 31.7442 71.0823C33.343 71.1774 36.6787 71.5094 39.1568 71.8201C74.3246 76.2299 106.417 94.2475 128.682 122.083C129.385 122.962 130.068 123.806 130.198 123.959C130.329 124.111 129.926 122.928 129.303 121.329C117.795 91.7981 116.907 58.6565 126.825 28.8232C129.385 21.1228 133.957 10.5388 136.527 6.36153L137.405 4.93424L136.318 4.97755C135.719 5.0011 133.589 5.1197 131.582 5.24063ZM140.953 5.15226C141.01 5.27202 142.171 7.59406 143.533 10.312C148.443 20.1112 151.638 28.7075 154.121 38.7997C161.025 66.8542 158.774 97.3052 147.846 123.681C147.382 124.801 147.199 125.455 147.437 125.135C150.899 120.501 155.267 115.53 160.213 110.594C175.592 95.2466 193.73 84.123 214.281 77.4354C225.208 73.8794 237.061 71.6024 247.437 71.0661C249.195 70.9751 251.588 70.8283 252.754 70.7396L254.874 70.5783L254.086 69.2237C248.741 60.0329 238.765 48.0041 229.69 39.8069C206.62 18.9705 177.882 6.99814 146.712 5.2383C140.304 4.87639 140.826 4.88424 140.953 5.15226ZM136.278 11.4021C131.827 20.4708 128.89 28.2142 126.547 37.0555C119.326 64.3075 120.874 93.5053 130.931 119.757C133.456 126.349 138.731 137.167 139.188 136.691C139.592 136.269 142.026 131.5 143.675 127.896C159.625 93.049 160.12 53.3005 145.04 18.306C143.583 14.9247 139.228 6.097 139.017 6.097C138.943 6.097 137.711 8.48444 136.278 11.4021ZM24.0403 72.9428C24.0418 73.2445 27.5402 78.5839 29.9373 81.9431C39.0085 94.6553 50.5711 106.022 63.4295 114.867C81.0293 126.975 102.239 134.942 123.602 137.471C127.287 137.908 133.38 138.361 135.555 138.361H137.395L136.509 136.858C132.436 129.951 126.129 121.76 119.421 114.67C96.7051 90.656 65.1213 75.6136 32.4709 73.2582C27.3516 72.8887 24.0394 72.7649 24.0403 72.9428ZM252.088 72.8617C242.684 73.1378 231.137 74.8546 221.856 77.356C192.765 85.1971 167.854 101.946 149.282 126.152C146.743 129.462 141.189 137.767 141.189 138.255C141.189 138.363 143.069 138.366 145.367 138.262C185.489 136.439 222.204 117.156 246.697 85.0442C249.187 81.78 254.849 73.3538 254.849 72.9128C254.849 72.7765 254.817 72.6922 254.777 72.725C254.736 72.7579 253.527 72.8192 252.088 72.8617ZM20.4613 76.8052C12.8947 90.9746 7.59594 108.138 5.86866 124.073C3.39372 146.908 6.28667 168.359 14.7275 189.762C16.1751 193.433 20.9107 203.292 21.7837 204.453C22.1613 204.955 22.2694 204.861 23.2918 203.145C27.8751 195.45 35.2761 186.15 42.9358 178.46C63.1771 158.141 88.605 145.068 117.286 140.236C121.975 139.447 122.604 139.291 121.244 139.256C119.691 139.217 110.713 137.512 106.452 136.448C93.9639 133.328 80.6145 127.919 70.8851 122.036C69.8694 121.422 68.9817 120.92 68.9122 120.92C68.6546 120.92 59.8612 114.957 57.6157 113.26C52.3475 109.278 48.3034 105.714 42.9247 100.314C35.0851 92.4437 29.6489 85.7526 24.415 77.5319L22.0537 73.823L20.4613 76.8052ZM254.995 76.6869C245.368 92.1943 230.232 107.684 214.812 117.808C198.141 128.754 180.141 135.76 160.956 138.771L156.741 139.433L158.921 139.78C162.774 140.392 170.322 141.901 173.165 142.628C192.097 147.464 209.969 156.426 225.344 168.795C232.565 174.603 241.298 183.517 247.235 191.137C249.71 194.314 255.431 202.634 256.305 204.328C256.66 205.015 256.681 205.019 257.083 204.473C257.887 203.379 261.567 195.885 263.262 191.888C274.292 165.887 276.795 136.853 270.417 108.896C268.775 101.697 265.744 92.6275 262.534 85.3102C261.133 82.1158 257.308 74.436 256.936 74.0706C256.827 73.9642 255.954 75.1415 254.995 76.6869ZM132.468 140.724C100.081 142.192 68.2296 156.231 45.0671 179.249C40.2033 184.082 36.1435 188.69 32.4288 193.592C29.5117 197.443 25.3295 203.549 24.4947 205.178L23.9947 206.152L27.4335 205.96C46.2546 204.91 63.2568 200.674 79.4174 193.009C89.6314 188.165 100.627 180.987 109.213 173.557C115.875 167.793 123.561 159.701 128.26 153.503C131.885 148.723 137.126 140.794 136.791 140.597C136.732 140.562 134.787 140.619 132.468 140.724ZM141.189 140.644C141.189 140.859 143.742 144.937 145.443 147.438C154.807 161.212 167.658 173.919 181.741 183.33C199.423 195.146 218.65 202.309 240.053 205.051C243.927 205.548 253.213 206.202 254.22 206.05C254.864 205.952 254.785 205.77 252.666 202.458C230.083 167.158 191.667 144.081 150.346 140.994C145.305 140.617 141.189 140.46 141.189 140.644ZM136.378 147.007C132.28 155.15 131.834 156.207 129.25 163.942C119.207 193.991 119.708 225.227 130.704 254.705C132.38 259.198 135.743 266.636 137.825 270.457C139.467 273.47 139.055 273.752 142.217 267.444C147.36 257.185 151.408 245.521 153.714 234.314C157.662 215.125 157.22 193.94 152.475 174.843C151.106 169.333 147.792 159.205 146.31 155.999C145.732 154.749 145.254 153.571 145.248 153.383C145.231 152.816 139.615 142.033 139.285 141.933C139.116 141.881 137.808 144.165 136.378 147.007ZM130.533 153.752C129.577 155.281 124.48 161.389 121.387 164.712C97.1734 190.722 63.7984 206.221 28.1832 207.995C25.9051 208.109 24.0409 208.296 24.0409 208.412C24.0409 208.712 29.6719 217.23 31.248 219.314C44.7555 237.168 60.7135 250.489 79.9988 260.007C86.6164 263.273 93.977 266.241 99.7658 267.978C110.707 271.261 122.059 273.239 132.679 273.713C135.358 273.832 137.15 273.807 137.08 273.651C137.015 273.506 135.762 270.967 134.296 268.009C130.812 260.983 129.356 257.493 127.098 250.748C118.133 223.98 117.668 194.683 125.779 167.804C126.801 164.417 129.485 157.085 130.838 153.986C131.408 152.679 131.27 152.573 130.533 153.752ZM147.875 154.472C147.875 154.568 148.132 155.201 148.446 155.879C149.247 157.607 151.725 164.477 152.611 167.43C155.454 176.902 157.199 186.04 158.077 196.063C158.583 201.83 158.509 214.207 157.934 220.005C156.111 238.388 151.012 255.471 142.658 271.179L141.204 273.913L145.775 273.724C155.721 273.311 166.589 271.542 176.217 268.77C182.606 266.931 183.455 266.647 188.426 264.687C211.921 255.423 232.138 239.998 247.128 219.9C250.135 215.867 254.33 209.642 254.713 208.643C254.851 208.285 254.184 208.184 250.575 208.017C220.033 206.596 191.86 195.589 168.369 175.898C162.606 171.068 154.052 162.171 149.093 155.849C148.423 154.995 147.875 154.376 147.875 154.472Z"/>
</mask>
<path fill-rule="evenodd" clip-rule="evenodd" d="M131.742 3.06917C131.102 3.13137 128.944 3.32061 126.945 3.49009C105.073 5.34382 82.4837 13.2849 63.8655 25.6654C49.4827 35.2294 35.7935 48.8329 26.2996 62.9962C13.0662 82.7379 5.85034 103.06 3.35854 127.606C2.88385 132.284 2.87948 146.418 3.35157 151.297C4.96257 167.949 8.83021 182.385 15.6173 197.081C27.6484 223.131 48.5383 245.432 73.8155 259.213C92.6363 269.474 112.005 274.871 133.554 275.861C166.901 277.392 199.622 266.531 225.78 245.248C228.577 242.972 236.169 236.111 236.478 235.579C236.59 235.387 237.968 233.883 239.541 232.238C248.92 222.425 257.528 209.637 263.445 196.725C278.167 164.6 280.01 128.331 268.613 95.0483C262.332 76.7078 252.212 60.0306 238.647 45.6716C215.927 21.6205 185.801 6.86123 152.526 3.47788C149.449 3.16509 133.9 2.85929 131.742 3.06917ZM131.582 5.24063C105.787 6.7964 80.9285 15.6953 60.3772 30.7304C52.4187 36.5529 42.8896 45.3178 37.3833 51.8808C32.8793 57.2492 27.2725 64.9793 24.8045 69.2225L24.0173 70.5762L26.4275 70.7428C27.7527 70.8344 30.1454 70.987 31.7442 71.0823C33.343 71.1774 36.6787 71.5094 39.1568 71.8201C74.3246 76.2299 106.417 94.2475 128.682 122.083C129.385 122.962 130.068 123.806 130.198 123.959C130.329 124.111 129.926 122.928 129.303 121.329C117.795 91.7981 116.907 58.6565 126.825 28.8232C129.385 21.1228 133.957 10.5388 136.527 6.36153L137.405 4.93424L136.318 4.97755C135.719 5.0011 133.589 5.1197 131.582 5.24063ZM140.953 5.15226C141.01 5.27202 142.171 7.59406 143.533 10.312C148.443 20.1112 151.638 28.7075 154.121 38.7997C161.025 66.8542 158.774 97.3052 147.846 123.681C147.382 124.801 147.199 125.455 147.437 125.135C150.899 120.501 155.267 115.53 160.213 110.594C175.592 95.2466 193.73 84.123 214.281 77.4354C225.208 73.8794 237.061 71.6024 247.437 71.0661C249.195 70.9751 251.588 70.8283 252.754 70.7396L254.874 70.5783L254.086 69.2237C248.741 60.0329 238.765 48.0041 229.69 39.8069C206.62 18.9705 177.882 6.99814 146.712 5.2383C140.304 4.87639 140.826 4.88424 140.953 5.15226ZM136.278 11.4021C131.827 20.4708 128.89 28.2142 126.547 37.0555C119.326 64.3075 120.874 93.5053 130.931 119.757C133.456 126.349 138.731 137.167 139.188 136.691C139.592 136.269 142.026 131.5 143.675 127.896C159.625 93.049 160.12 53.3005 145.04 18.306C143.583 14.9247 139.228 6.097 139.017 6.097C138.943 6.097 137.711 8.48444 136.278 11.4021ZM24.0403 72.9428C24.0418 73.2445 27.5402 78.5839 29.9373 81.9431C39.0085 94.6553 50.5711 106.022 63.4295 114.867C81.0293 126.975 102.239 134.942 123.602 137.471C127.287 137.908 133.38 138.361 135.555 138.361H137.395L136.509 136.858C132.436 129.951 126.129 121.76 119.421 114.67C96.7051 90.656 65.1213 75.6136 32.4709 73.2582C27.3516 72.8887 24.0394 72.7649 24.0403 72.9428ZM252.088 72.8617C242.684 73.1378 231.137 74.8546 221.856 77.356C192.765 85.1971 167.854 101.946 149.282 126.152C146.743 129.462 141.189 137.767 141.189 138.255C141.189 138.363 143.069 138.366 145.367 138.262C185.489 136.439 222.204 117.156 246.697 85.0442C249.187 81.78 254.849 73.3538 254.849 72.9128C254.849 72.7765 254.817 72.6922 254.777 72.725C254.736 72.7579 253.527 72.8192 252.088 72.8617ZM20.4613 76.8052C12.8947 90.9746 7.59594 108.138 5.86866 124.073C3.39372 146.908 6.28667 168.359 14.7275 189.762C16.1751 193.433 20.9107 203.292 21.7837 204.453C22.1613 204.955 22.2694 204.861 23.2918 203.145C27.8751 195.45 35.2761 186.15 42.9358 178.46C63.1771 158.141 88.605 145.068 117.286 140.236C121.975 139.447 122.604 139.291 121.244 139.256C119.691 139.217 110.713 137.512 106.452 136.448C93.9639 133.328 80.6145 127.919 70.8851 122.036C69.8694 121.422 68.9817 120.92 68.9122 120.92C68.6546 120.92 59.8612 114.957 57.6157 113.26C52.3475 109.278 48.3034 105.714 42.9247 100.314C35.0851 92.4437 29.6489 85.7526 24.415 77.5319L22.0537 73.823L20.4613 76.8052ZM254.995 76.6869C245.368 92.1943 230.232 107.684 214.812 117.808C198.141 128.754 180.141 135.76 160.956 138.771L156.741 139.433L158.921 139.78C162.774 140.392 170.322 141.901 173.165 142.628C192.097 147.464 209.969 156.426 225.344 168.795C232.565 174.603 241.298 183.517 247.235 191.137C249.71 194.314 255.431 202.634 256.305 204.328C256.66 205.015 256.681 205.019 257.083 204.473C257.887 203.379 261.567 195.885 263.262 191.888C274.292 165.887 276.795 136.853 270.417 108.896C268.775 101.697 265.744 92.6275 262.534 85.3102C261.133 82.1158 257.308 74.436 256.936 74.0706C256.827 73.9642 255.954 75.1415 254.995 76.6869ZM132.468 140.724C100.081 142.192 68.2296 156.231 45.0671 179.249C40.2033 184.082 36.1435 188.69 32.4288 193.592C29.5117 197.443 25.3295 203.549 24.4947 205.178L23.9947 206.152L27.4335 205.96C46.2546 204.91 63.2568 200.674 79.4174 193.009C89.6314 188.165 100.627 180.987 109.213 173.557C115.875 167.793 123.561 159.701 128.26 153.503C131.885 148.723 137.126 140.794 136.791 140.597C136.732 140.562 134.787 140.619 132.468 140.724ZM141.189 140.644C141.189 140.859 143.742 144.937 145.443 147.438C154.807 161.212 167.658 173.919 181.741 183.33C199.423 195.146 218.65 202.309 240.053 205.051C243.927 205.548 253.213 206.202 254.22 206.05C254.864 205.952 254.785 205.77 252.666 202.458C230.083 167.158 191.667 144.081 150.346 140.994C145.305 140.617 141.189 140.46 141.189 140.644ZM136.378 147.007C132.28 155.15 131.834 156.207 129.25 163.942C119.207 193.991 119.708 225.227 130.704 254.705C132.38 259.198 135.743 266.636 137.825 270.457C139.467 273.47 139.055 273.752 142.217 267.444C147.36 257.185 151.408 245.521 153.714 234.314C157.662 215.125 157.22 193.94 152.475 174.843C151.106 169.333 147.792 159.205 146.31 155.999C145.732 154.749 145.254 153.571 145.248 153.383C145.231 152.816 139.615 142.033 139.285 141.933C139.116 141.881 137.808 144.165 136.378 147.007ZM130.533 153.752C129.577 155.281 124.48 161.389 121.387 164.712C97.1734 190.722 63.7984 206.221 28.1832 207.995C25.9051 208.109 24.0409 208.296 24.0409 208.412C24.0409 208.712 29.6719 217.23 31.248 219.314C44.7555 237.168 60.7135 250.489 79.9988 260.007C86.6164 263.273 93.977 266.241 99.7658 267.978C110.707 271.261 122.059 273.239 132.679 273.713C135.358 273.832 137.15 273.807 137.08 273.651C137.015 273.506 135.762 270.967 134.296 268.009C130.812 260.983 129.356 257.493 127.098 250.748C118.133 223.98 117.668 194.683 125.779 167.804C126.801 164.417 129.485 157.085 130.838 153.986C131.408 152.679 131.27 152.573 130.533 153.752ZM147.875 154.472C147.875 154.568 148.132 155.201 148.446 155.879C149.247 157.607 151.725 164.477 152.611 167.43C155.454 176.902 157.199 186.04 158.077 196.063C158.583 201.83 158.509 214.207 157.934 220.005C156.111 238.388 151.012 255.471 142.658 271.179L141.204 273.913L145.775 273.724C155.721 273.311 166.589 271.542 176.217 268.77C182.606 266.931 183.455 266.647 188.426 264.687C211.921 255.423 232.138 239.998 247.128 219.9C250.135 215.867 254.33 209.642 254.713 208.643C254.851 208.285 254.184 208.184 250.575 208.017C220.033 206.596 191.86 195.589 168.369 175.898C162.606 171.068 154.052 162.171 149.093 155.849C148.423 154.995 147.875 154.376 147.875 154.472Z" fill="white"/>
<path fill-rule="evenodd" clip-rule="evenodd" d="M131.742 3.06917C131.102 3.13137 128.944 3.32061 126.945 3.49009C105.073 5.34382 82.4837 13.2849 63.8655 25.6654C49.4827 35.2294 35.7935 48.8329 26.2996 62.9962C13.0662 82.7379 5.85034 103.06 3.35854 127.606C2.88385 132.284 2.87948 146.418 3.35157 151.297C4.96257 167.949 8.83021 182.385 15.6173 197.081C27.6484 223.131 48.5383 245.432 73.8155 259.213C92.6363 269.474 112.005 274.871 133.554 275.861C166.901 277.392 199.622 266.531 225.78 245.248C228.577 242.972 236.169 236.111 236.478 235.579C236.59 235.387 237.968 233.883 239.541 232.238C248.92 222.425 257.528 209.637 263.445 196.725C278.167 164.6 280.01 128.331 268.613 95.0483C262.332 76.7078 252.212 60.0306 238.647 45.6716C215.927 21.6205 185.801 6.86123 152.526 3.47788C149.449 3.16509 133.9 2.85929 131.742 3.06917ZM131.582 5.24063C105.787 6.7964 80.9285 15.6953 60.3772 30.7304C52.4187 36.5529 42.8896 45.3178 37.3833 51.8808C32.8793 57.2492 27.2725 64.9793 24.8045 69.2225L24.0173 70.5762L26.4275 70.7428C27.7527 70.8344 30.1454 70.987 31.7442 71.0823C33.343 71.1774 36.6787 71.5094 39.1568 71.8201C74.3246 76.2299 106.417 94.2475 128.682 122.083C129.385 122.962 130.068 123.806 130.198 123.959C130.329 124.111 129.926 122.928 129.303 121.329C117.795 91.7981 116.907 58.6565 126.825 28.8232C129.385 21.1228 133.957 10.5388 136.527 6.36153L137.405 4.93424L136.318 4.97755C135.719 5.0011 133.589 5.1197 131.582 5.24063ZM140.953 5.15226C141.01 5.27202 142.171 7.59406 143.533 10.312C148.443 20.1112 151.638 28.7075 154.121 38.7997C161.025 66.8542 158.774 97.3052 147.846 123.681C147.382 124.801 147.199 125.455 147.437 125.135C150.899 120.501 155.267 115.53 160.213 110.594C175.592 95.2466 193.73 84.123 214.281 77.4354C225.208 73.8794 237.061 71.6024 247.437 71.0661C249.195 70.9751 251.588 70.8283 252.754 70.7396L254.874 70.5783L254.086 69.2237C248.741 60.0329 238.765 48.0041 229.69 39.8069C206.62 18.9705 177.882 6.99814 146.712 5.2383C140.304 4.87639 140.826 4.88424 140.953 5.15226ZM136.278 11.4021C131.827 20.4708 128.89 28.2142 126.547 37.0555C119.326 64.3075 120.874 93.5053 130.931 119.757C133.456 126.349 138.731 137.167 139.188 136.691C139.592 136.269 142.026 131.5 143.675 127.896C159.625 93.049 160.12 53.3005 145.04 18.306C143.583 14.9247 139.228 6.097 139.017 6.097C138.943 6.097 137.711 8.48444 136.278 11.4021ZM24.0403 72.9428C24.0418 73.2445 27.5402 78.5839 29.9373 81.9431C39.0085 94.6553 50.5711 106.022 63.4295 114.867C81.0293 126.975 102.239 134.942 123.602 137.471C127.287 137.908 133.38 138.361 135.555 138.361H137.395L136.509 136.858C132.436 129.951 126.129 121.76 119.421 114.67C96.7051 90.656 65.1213 75.6136 32.4709 73.2582C27.3516 72.8887 24.0394 72.7649 24.0403 72.9428ZM252.088 72.8617C242.684 73.1378 231.137 74.8546 221.856 77.356C192.765 85.1971 167.854 101.946 149.282 126.152C146.743 129.462 141.189 137.767 141.189 138.255C141.189 138.363 143.069 138.366 145.367 138.262C185.489 136.439 222.204 117.156 246.697 85.0442C249.187 81.78 254.849 73.3538 254.849 72.9128C254.849 72.7765 254.817 72.6922 254.777 72.725C254.736 72.7579 253.527 72.8192 252.088 72.8617ZM20.4613 76.8052C12.8947 90.9746 7.59594 108.138 5.86866 124.073C3.39372 146.908 6.28667 168.359 14.7275 189.762C16.1751 193.433 20.9107 203.292 21.7837 204.453C22.1613 204.955 22.2694 204.861 23.2918 203.145C27.8751 195.45 35.2761 186.15 42.9358 178.46C63.1771 158.141 88.605 145.068 117.286 140.236C121.975 139.447 122.604 139.291 121.244 139.256C119.691 139.217 110.713 137.512 106.452 136.448C93.9639 133.328 80.6145 127.919 70.8851 122.036C69.8694 121.422 68.9817 120.92 68.9122 120.92C68.6546 120.92 59.8612 114.957 57.6157 113.26C52.3475 109.278 48.3034 105.714 42.9247 100.314C35.0851 92.4437 29.6489 85.7526 24.415 77.5319L22.0537 73.823L20.4613 76.8052ZM254.995 76.6869C245.368 92.1943 230.232 107.684 214.812 117.808C198.141 128.754 180.141 135.76 160.956 138.771L156.741 139.433L158.921 139.78C162.774 140.392 170.322 141.901 173.165 142.628C192.097 147.464 209.969 156.426 225.344 168.795C232.565 174.603 241.298 183.517 247.235 191.137C249.71 194.314 255.431 202.634 256.305 204.328C256.66 205.015 256.681 205.019 257.083 204.473C257.887 203.379 261.567 195.885 263.262 191.888C274.292 165.887 276.795 136.853 270.417 108.896C268.775 101.697 265.744 92.6275 262.534 85.3102C261.133 82.1158 257.308 74.436 256.936 74.0706C256.827 73.9642 255.954 75.1415 254.995 76.6869ZM132.468 140.724C100.081 142.192 68.2296 156.231 45.0671 179.249C40.2033 184.082 36.1435 188.69 32.4288 193.592C29.5117 197.443 25.3295 203.549 24.4947 205.178L23.9947 206.152L27.4335 205.96C46.2546 204.91 63.2568 200.674 79.4174 193.009C89.6314 188.165 100.627 180.987 109.213 173.557C115.875 167.793 123.561 159.701 128.26 153.503C131.885 148.723 137.126 140.794 136.791 140.597C136.732 140.562 134.787 140.619 132.468 140.724ZM141.189 140.644C141.189 140.859 143.742 144.937 145.443 147.438C154.807 161.212 167.658 173.919 181.741 183.33C199.423 195.146 218.65 202.309 240.053 205.051C243.927 205.548 253.213 206.202 254.22 206.05C254.864 205.952 254.785 205.77 252.666 202.458C230.083 167.158 191.667 144.081 150.346 140.994C145.305 140.617 141.189 140.46 141.189 140.644ZM136.378 147.007C132.28 155.15 131.834 156.207 129.25 163.942C119.207 193.991 119.708 225.227 130.704 254.705C132.38 259.198 135.743 266.636 137.825 270.457C139.467 273.47 139.055 273.752 142.217 267.444C147.36 257.185 151.408 245.521 153.714 234.314C157.662 215.125 157.22 193.94 152.475 174.843C151.106 169.333 147.792 159.205 146.31 155.999C145.732 154.749 145.254 153.571 145.248 153.383C145.231 152.816 139.615 142.033 139.285 141.933C139.116 141.881 137.808 144.165 136.378 147.007ZM130.533 153.752C129.577 155.281 124.48 161.389 121.387 164.712C97.1734 190.722 63.7984 206.221 28.1832 207.995C25.9051 208.109 24.0409 208.296 24.0409 208.412C24.0409 208.712 29.6719 217.23 31.248 219.314C44.7555 237.168 60.7135 250.489 79.9988 260.007C86.6164 263.273 93.977 266.241 99.7658 267.978C110.707 271.261 122.059 273.239 132.679 273.713C135.358 273.832 137.15 273.807 137.08 273.651C137.015 273.506 135.762 270.967 134.296 268.009C130.812 260.983 129.356 257.493 127.098 250.748C118.133 223.98 117.668 194.683 125.779 167.804C126.801 164.417 129.485 157.085 130.838 153.986C131.408 152.679 131.27 152.573 130.533 153.752ZM147.875 154.472C147.875 154.568 148.132 155.201 148.446 155.879C149.247 157.607 151.725 164.477 152.611 167.43C155.454 176.902 157.199 186.04 158.077 196.063C158.583 201.83 158.509 214.207 157.934 220.005C156.111 238.388 151.012 255.471 142.658 271.179L141.204 273.913L145.775 273.724C155.721 273.311 166.589 271.542 176.217 268.77C182.606 266.931 183.455 266.647 188.426 264.687C211.921 255.423 232.138 239.998 247.128 219.9C250.135 215.867 254.33 209.642 254.713 208.643C254.851 208.285 254.184 208.184 250.575 208.017C220.033 206.596 191.86 195.589 168.369 175.898C162.606 171.068 154.052 162.171 149.093 155.849C148.423 154.995 147.875 154.376 147.875 154.472Z" stroke="white" stroke-width="4.06967" mask="url(#path-1-outside-1_626_1049)"/>
</svg>
