<svg width="276" height="187" viewBox="0 0 276 187" fill="none" xmlns="http://www.w3.org/2000/svg">
<path d="M144.975 170.708C144.979 170.539 144.898 170.428 144.881 170.406L144.881 170.405C144.877 170.399 144.873 170.394 144.868 170.389C144.63 170.556 144.476 170.675 144.475 170.695C144.475 170.715 144.637 170.806 144.909 170.943C144.911 170.938 144.914 170.934 144.916 170.929C144.929 170.905 144.972 170.823 144.975 170.708ZM144.975 170.708C144.975 170.708 144.975 170.708 144.975 170.709L144.975 170.708ZM145.445 16.3606C145.429 16.3498 145.413 16.3392 145.398 16.3288C145.766 16.1484 146.327 15.8893 147.16 15.5079C156.436 11.26 166.586 8.70702 177.049 7.99158C178.942 7.86216 186.314 7.85519 188.159 7.9808C199.802 8.77377 210.72 11.7055 220.799 16.7431C247.217 29.9463 264.951 55.5572 267.916 84.7838C268.578 91.3142 268.437 98.885 267.531 105.38C264.155 129.591 250.479 151.303 230.094 164.818C226.477 167.216 223.493 168.928 219.967 170.628C210.5 175.194 200.935 177.827 190.129 178.838C187.568 179.078 180.503 179.174 177.734 179.005C167.809 178.402 158.665 176.293 149.566 172.508C148.672 172.136 147.453 171.592 146.457 171.129C146.055 170.943 145.691 170.77 145.401 170.629C145.513 170.553 145.635 170.472 145.763 170.388C147.326 169.369 150.903 166.67 152.92 164.989C169.238 151.395 180.388 132.775 184.595 112.089C190.225 84.4074 182.992 55.6222 164.981 34.0462C160.299 28.4369 154.993 23.3889 149.234 19.0645C148.429 18.46 147.406 17.7221 146.553 17.1236C146.127 16.8243 145.741 16.5584 145.445 16.3606ZM120.557 4.51155L120.412 4.98775L120.557 4.51155C110.508 1.44971 99.5559 0.0920125 89.0566 0.606467C64.4544 1.8117 41.4856 12.5848 24.9169 30.6913C3.76376 53.8074 -4.30918 85.7736 3.31734 116.215C9.90949 142.528 27.8965 164.794 52.2983 176.853C58.5152 179.925 64.506 182.116 71.2199 183.775C88.6225 188.073 107.264 187.199 124.143 181.294C128.267 179.851 131.542 178.443 135.795 176.285L138.39 174.968L140.074 175.844C149.988 180.999 160.945 184.33 172.169 185.603C178.08 186.273 185.141 186.356 191.101 185.825C227.383 182.59 258.651 158.017 270.429 123.484C273.199 115.364 274.758 107.348 275.257 98.667C275.429 95.67 275.335 88.2687 275.09 85.6775C274.572 80.1796 273.902 76.0826 272.75 71.3721C264.01 35.6365 234.573 8.21222 198.384 2.09382C192.485 1.09638 189.613 0.8738 182.687 0.8738C176.729 0.8738 175.452 0.94065 171.116 1.48548C160.307 2.84405 150.038 6.01017 140.398 10.9565L138.375 11.9949L135.787 10.6848C130.419 7.96761 125.939 6.15124 120.557 4.51155ZM130.61 16.5371C130.67 16.5656 130.727 16.5928 130.781 16.6186C130.657 16.7128 130.512 16.8181 130.349 16.9308C120.173 23.9723 111.687 32.6292 105.123 42.6676C96.1984 56.3165 91.1263 71.6317 90.126 87.9514C89.9841 90.2667 89.9822 96.7756 90.123 98.9714C90.7755 109.14 92.8749 118.604 96.5024 127.721C102.257 142.185 111.537 154.928 123.616 164.953C125.211 166.277 128.694 168.906 130.291 169.991C130.476 170.117 130.651 170.239 130.804 170.348C130.691 170.407 130.561 170.472 130.415 170.543C129.757 170.865 128.818 171.286 127.746 171.743C125.603 172.656 122.958 173.699 121.028 174.356C112.623 177.216 104.229 178.672 95.1282 178.849C87.1685 179.003 79.7789 178.151 72.1819 176.204C43.9729 168.974 21.2343 147.594 12.2141 119.819C10.2068 113.638 8.96685 107.409 8.34019 100.348C8.07617 97.3728 8.07932 89.4575 8.34547 86.5408C9.23479 76.7967 11.2555 68.6069 14.8812 60.0397C21.6268 44.1014 33.5202 30.2157 48.3453 20.9734C60.4622 13.4194 73.9479 9.1427 88.6174 8.2057C90.8689 8.06197 98.228 8.15545 100.49 8.35672L100.534 7.85938L100.49 8.35672C109.321 9.14237 117.147 10.9725 124.961 14.0767C126.001 14.4898 127.566 15.162 128.896 15.7546C129.561 16.0508 130.164 16.3256 130.61 16.5371ZM136.596 21.2466L136.324 20.8268L136.596 21.2466C136.972 21.0036 137.323 20.7831 137.585 20.6238C137.677 20.5684 137.756 20.5214 137.821 20.4838C137.831 20.4896 137.843 20.4957 137.854 20.5022C138.005 20.5851 138.218 20.7111 138.486 20.8765C139.021 21.2063 139.757 21.6811 140.618 22.2534C159.544 34.8464 172.668 54.271 177.173 76.3537C178.364 82.188 178.827 86.9832 178.827 93.4883C178.827 99.9991 178.36 104.824 177.172 110.622C172.488 133.469 158.528 153.572 138.78 165.909L137.852 166.488L137.433 166.232C135.007 164.751 130.892 161.801 128.438 159.784C123.796 155.969 119.445 151.559 115.743 146.917C104.162 132.398 97.6292 114.703 97.0861 96.3917C96.9499 91.8005 97.1274 87.5071 97.6287 83.2501C99.6414 66.1568 106.838 50.0658 118.368 36.8832C119.962 35.0618 124.159 30.8551 125.916 29.3187C129.438 26.2396 132.766 23.7243 136.596 21.2466Z" fill="white" stroke="white"/>
</svg>
