<svg width="1062" height="635" viewBox="0 0 1062 635" fill="none" xmlns="http://www.w3.org/2000/svg">
<path d="M625.986 186.066C625.843 186.892 627.208 190.988 629.019 195.174C632.402 202.984 631.622 210.632 624.257 241.924C620.049 259.792 620.597 270.14 625.799 271.041C627.286 271.299 629.009 268.677 629.632 265.213C631.294 255.949 635.962 246.835 638.797 247.326C640.155 247.561 640.492 252.25 639.54 257.743C637.496 269.552 640.162 279.298 645.699 280.257C649.125 280.85 656.476 297.495 667.561 329.75C669.178 334.459 672.682 342.347 675.344 347.28C678.007 352.213 679.987 357.391 679.745 358.789C679.503 360.184 681.686 370.071 684.596 380.756C687.506 391.441 689.345 403.315 688.683 407.138C688.021 410.964 688.697 415.172 690.188 416.492C693.352 419.296 697.19 434.836 702.516 466.424C705.965 486.876 705.812 490.043 700.919 499.224C697.194 506.21 691.61 511.051 683.037 514.722C667.883 521.212 635.255 528.703 621.444 528.868C615.879 528.934 607.901 530.023 603.715 531.288C599.529 532.554 585.308 536.653 572.114 540.392C552.526 545.947 546.41 549.16 538.787 557.912C533.652 563.806 528.353 568.087 527.008 567.421C525.666 566.759 523.706 560.95 522.657 554.513C521.605 548.076 519.476 541.023 517.925 538.839C514.521 534.052 493.799 528.179 447.2 518.8C428.033 514.941 410.595 510.679 408.449 509.329C406.303 507.976 402.436 507.815 399.856 508.969C395.803 510.78 395.828 511.788 400.018 516.365C404.863 521.656 404.857 521.672 398.229 525.432C386.618 532.019 378.906 542.155 379.496 550.055C379.797 554.086 381.32 557.604 382.877 557.873C385.835 558.386 387.177 556.434 391.955 544.665C393.924 539.813 397.877 537.041 404.543 535.835C409.889 534.869 420.649 532.023 428.458 529.513C447.88 526.502 470.91 530.86 496.186 539.587C501.104 541.285 504.715 540.939 508.615 544.382C513.368 548.576 514.173 552.993 515.092 559.265C515.751 563.77 515.125 566.392 514.581 570.913C513.445 580.338 515.092 588.172 507.887 594.282C505.348 596.435 498.488 598.425 498.488 598.425C498.488 598.425 493.55 601.037 488.991 602.213C486.105 602.958 481.526 603.805 481.526 603.805C481.526 603.805 466.83 601.845 457.518 599.998C447.217 597.954 441.862 592.896 431.387 593.644C426.753 593.974 424.329 595.333 419.744 596.082C402.434 598.909 392.25 593.694 374.832 595.754C370.024 596.323 367.32 596.664 362.577 597.634C358.535 598.461 354.645 598.208 352.326 600.187C350.007 602.165 345.739 602.03 341.414 602.625C336.763 603.263 332.326 602.24 329.406 603.188C311.346 609.051 297.326 610.645 277.21 609.121C264.68 608.171 254.098 607.418 253.698 607.45C253.297 607.481 252.53 610.026 251.997 613.107C251.147 618.015 249.158 618.386 235.963 616.101C225.545 614.297 219.509 614.683 216.385 617.347C210.691 622.209 191.418 617.297 176.566 607.198C170.887 603.338 162.628 599.118 158.216 597.823C153.801 596.528 148.261 593.001 145.904 589.988C142.091 585.115 139.283 584.505 120.386 584.467C104.362 584.436 97.8274 583.388 93.7404 580.2C90.7645 577.875 84.8053 576.235 80.5027 576.557L72.6755 577.141L82.3282 584.409C89.4412 589.766 94.7395 591.624 102.473 591.48C122.433 591.108 156.57 599.281 163.501 606.092C175.703 618.084 191.85 623.482 223.108 626.024C246.551 627.931 254.423 627.387 263.974 623.198C270.48 620.347 280.31 618.062 285.816 618.121C304.6 618.324 319.098 617.086 326.37 614.661C330.417 613.311 335.654 615.507 341.607 615.321C354.062 614.93 364.066 615.626 372.955 609.361C375.301 607.708 384.614 606.773 393.648 607.284C402.685 607.796 417.36 607.406 426.258 606.416C437.16 606.414 438.012 606.416 453.096 610.69C464.96 614.051 506.63 617.731 514.02 608.641L521.692 599.206L526.666 606.752C529.401 610.901 531.389 615.749 531.083 617.519C530.236 622.407 538.858 627.979 550.892 630.325C556.826 631.483 565.192 633.148 569.489 634.027C577.664 635.703 586.649 633.58 604.344 625.793C610.165 623.23 618.379 621.732 622.597 622.463C626.818 623.193 635.12 622.684 641.053 621.331C646.982 619.977 656.962 619.758 663.228 620.843C669.494 621.928 677.709 621.585 681.483 620.083C685.258 618.579 703.116 618.278 721.168 619.41C739.22 620.545 757.084 620.208 760.866 618.665C764.647 617.121 770.232 616.291 773.277 616.818C776.322 617.345 779.952 616.488 781.35 614.913C783.147 612.884 781.422 612.181 775.446 612.505C746.364 614.076 677.904 611.844 659.989 608.742C643.227 605.839 612.064 608.666 604.202 613.801C600.558 616.183 595.883 617.837 593.816 617.479C591.749 617.121 588.655 617.794 586.945 618.975C585.231 620.158 576.108 620.659 566.669 620.089C550.592 619.117 549.108 618.488 543.244 610.167C534.778 598.16 534.546 593.27 541.743 578.879C548.719 564.932 570.936 544.311 577.817 545.395C580.335 545.794 590.268 544.917 599.893 543.448C624.191 539.744 628.13 541.024 638.392 555.956C643.341 563.16 648.53 569.252 649.919 569.493C652.516 569.942 654.043 553.274 652.414 542.237C651.679 537.251 653.161 535.707 659.933 534.402C664.574 533.509 673.132 532.937 678.954 533.137C688.184 533.448 689.515 534.293 689.35 539.746C689.003 551.316 696.6 548.11 699.419 535.495C700.984 528.49 705.105 520.767 709.531 516.537C723.456 503.23 725.045 491.605 718.474 451.094C715.202 430.936 711.72 413.654 710.738 412.691C709.754 411.727 705.461 399.299 701.202 385.074C690.267 348.572 672.734 298.977 668.069 291.343C665.897 287.793 664.034 282.973 663.923 280.629C663.813 278.284 662.031 274.081 659.961 271.287C657.891 268.494 654.567 258.784 652.569 249.711C650.575 240.638 647.251 230.326 645.182 226.794C643.113 223.262 640.622 215.041 639.644 208.525C637.821 196.378 632.82 185.705 628.613 184.977C627.31 184.751 626.129 185.242 625.986 186.066Z" fill="white"/>
<path d="M829.697 155.09C828.337 156.063 826.916 158.653 826.537 160.844C825.665 165.877 808.811 178.673 804.125 177.862C802.195 177.528 800.288 179.145 799.887 181.456C798.981 186.691 800.068 186.876 811.192 183.364C821.304 180.17 831.886 167.892 832.055 159.148C832.117 155.942 831.057 154.116 829.697 155.09Z" fill="white"/>
<path d="M906.997 231.213C897.891 241.494 859.598 266.873 847.375 270.731C840.938 272.764 838.42 275.493 837.367 281.577C836.592 286.05 833.563 291.397 830.639 293.458C827.711 295.522 826.053 298.247 826.952 299.519C829.24 302.751 841.407 291.569 842.505 285.225C843.066 281.984 847.82 278.624 854.981 276.407C873.403 270.703 921.215 231.826 917.06 225.93C915.425 223.61 912.264 225.27 906.997 231.213Z" fill="white"/>
<path fill-rule="evenodd" clip-rule="evenodd" d="M936.421 309.343C931.844 311.233 920.908 323.055 909.799 338.125C891.101 363.486 890.913 363.901 886.836 389.38C884.575 403.506 882.858 422.752 883.02 432.148C883.37 452.285 893.517 478.961 901.346 480.316C908.052 481.477 908.791 477.376 903.794 466.759C896.985 452.303 896.127 435.563 900.785 408.093C909.352 357.568 930.531 315.152 945.864 317.807C948.373 318.241 949.526 316.73 948.945 313.776C948.431 311.177 948.103 308.524 948.214 307.88C948.608 305.608 944.103 306.167 936.421 309.343ZM899.073 375.576C899.474 372.997 901.106 368.736 902.704 366.107C905.358 361.74 905.623 361.757 905.75 366.309C905.824 369.048 904.192 373.309 902.12 375.778C898.758 379.78 898.43 379.758 899.073 375.576Z" fill="white"/>
<path d="M935.315 269.909C931.606 270.703 928.177 273.647 927.691 276.451C927.206 279.254 920.315 285.309 912.379 289.903C904.443 294.498 897.558 300.522 897.078 303.289C895.305 313.53 884.449 323.756 852.811 344.99C815.245 370.198 800.612 378.596 778.928 387.374C770.321 390.86 762.163 395.858 760.802 398.484C759.439 401.107 755.577 403.185 752.221 403.103C748.866 403.018 745.231 404.616 744.142 406.655C742.583 409.581 744.498 410.383 753.29 410.475C761.319 410.561 767.453 408.089 775.338 401.593C784.104 394.369 786.648 393.474 788.216 397.051C789.755 400.56 798.918 395.757 831.134 374.556C853.663 359.727 872.267 346.611 872.475 345.406C872.684 344.202 878.18 338.7 884.69 333.18C891.2 327.66 896.761 321.785 897.048 320.124C897.544 317.264 923.984 294.642 940.142 283.254C953.477 273.856 950.847 266.586 935.315 269.909Z" fill="white"/>
<path d="M770.953 448.526C754.691 446.639 746.41 449.077 752.065 454.087C753.811 455.635 774.181 460.492 797.33 464.879C836.348 472.273 852.426 477.858 851.418 483.676C851.195 484.967 852.902 486.353 855.213 486.753C862.087 487.944 861.662 477.986 854.418 468.166C847.762 459.137 847.227 458.943 817.086 454.671C800.269 452.284 779.508 449.52 770.953 448.526Z" fill="white"/>
<path d="M694.138 242.893C687.753 252.307 682.657 256.643 676.615 257.801C667.316 259.584 664.44 265.364 670.923 269.23C676.799 272.734 689.815 267.689 697.494 258.933C704.097 251.406 709.769 230.765 705.441 230.016C704.175 229.796 699.089 235.592 694.138 242.893Z" fill="white"/>
<path d="M666.751 193.217C663.378 194.906 658.339 195.894 655.552 195.412C652.765 194.929 650.158 196.425 649.758 198.736C649.28 201.498 651.792 203.416 657.092 204.333C665.912 205.861 673.432 201.22 673.098 194.454C672.911 190.7 672.094 190.538 666.751 193.217Z" fill="white"/>
<path fill-rule="evenodd" clip-rule="evenodd" d="M413.049 136.318C405.292 133.648 403 131.356 403.144 126.424C403.362 119.082 409.925 118.767 414.022 125.899C415.438 128.368 419.804 131.81 423.719 133.547C434.278 138.229 425.339 140.552 413.049 136.318ZM601.609 226.462C598.245 225.879 596.025 216.058 595.812 200.825C595.696 192.551 596.397 190.63 598.763 192.727C605.692 198.866 608.116 227.588 601.609 226.462ZM608.479 251.332C606.231 247.936 609.093 227.331 612.764 220.491C614.506 217.241 616.951 215.484 618.192 216.581C619.433 217.682 619.633 219.505 618.633 220.633C617.633 221.761 616.899 229 617.002 236.721C617.132 246.746 616.162 251.168 613.597 252.198C611.622 252.993 609.318 252.602 608.479 251.332ZM226.646 163.857C215.212 161.113 213.516 159.81 213.698 153.909C213.9 147.361 214.112 147.322 219.589 152.766C222.712 155.871 228.768 159.017 233.048 159.758C237.325 160.499 240.596 162.436 240.315 164.06C240.008 165.836 234.56 165.756 226.646 163.857ZM489.91 212.527C489.244 210.871 489.755 207.754 491.04 205.597C493.8 200.971 510.29 205.857 519.353 213.984C522.394 216.715 527.069 219.325 529.744 219.788C533.343 220.411 533.644 221.306 530.907 223.235C526.533 226.318 491.807 217.247 489.91 212.527ZM567.416 223.426C565.786 223.144 565.447 221.787 566.666 220.411C567.885 219.035 569.436 218.006 570.117 218.124C570.798 218.242 571.134 219.598 570.867 221.139C570.601 222.679 569.046 223.708 567.416 223.426ZM406.019 228.3C403.279 230.229 397.445 222.984 398.205 218.594C398.978 214.13 433.15 221.319 433.875 226.098C434.136 227.822 432.353 228.89 429.913 228.467C427.473 228.045 425.163 229.526 424.777 231.755C424.204 235.061 422.587 234.985 416.044 231.351C411.628 228.899 407.117 227.526 406.019 228.3ZM234.16 200.258C229.946 204.917 227.323 201.538 230.726 195.832C232.136 193.468 234.416 191.731 235.791 191.969C238.984 192.522 238.38 195.594 234.16 200.258ZM508.539 297.85C508.625 297.351 513.088 295.934 518.459 294.706C528.766 292.348 531.259 292.912 527.793 296.821C525.863 299 508.176 299.942 508.539 297.85ZM556.235 301.129C555.144 301.898 552.709 301.58 550.83 300.421C548.749 299.14 549.528 298.591 552.814 299.022C555.788 299.413 557.326 300.36 556.235 301.129ZM608.724 320.082C606.68 318.672 604.772 315.947 604.481 314.027C603.845 309.823 608.46 310.308 614.507 315.073C616.931 316.988 624.576 321.753 631.498 325.664C638.898 329.848 645.858 336.474 648.384 341.744C653.958 353.357 647.253 352.958 639.512 341.214C636.56 336.736 631.829 332.671 628.994 332.18C626.162 331.69 621.274 329.343 618.137 326.968C615 324.59 610.765 321.491 608.724 320.082ZM265.519 272.093C259.214 269.285 255.005 265.916 256.167 264.603C259.158 261.229 266.037 262.884 282.102 270.848C292.488 275.996 297.169 277.135 300.376 275.293C303.608 273.438 305.094 273.905 306.326 277.171C309.056 284.395 318.39 289.938 331.718 292.246C343.933 294.361 349.854 298.923 343.627 301.425C336.502 304.288 315.086 298.194 296.737 288.081C285.872 282.094 271.825 274.899 265.519 272.093ZM246.695 264.991C244.666 265.43 240.876 264.823 238.274 263.639C235.672 262.456 237.332 262.097 241.963 262.841C246.595 263.586 248.724 264.552 246.695 264.991ZM419.123 321.805C415.613 321.198 429.12 311.538 439.061 307.547C448.707 303.672 455.695 303.471 454.927 307.089C454.449 309.334 422.63 322.413 419.123 321.805ZM465.01 332.636C464 338.465 477.571 337.335 488.426 330.693C499.586 323.86 499.969 323.846 520.362 329.535C531.715 332.704 549.445 336.81 559.762 338.657C570.079 340.507 576.999 342.628 575.145 343.375C573.033 344.223 573.735 346.266 577.016 348.828C579.903 351.082 584.244 357.053 586.663 362.094C590.927 370.979 590.862 371.519 584.527 379.761C580.934 384.436 576.363 388.956 574.37 389.802C570.216 391.567 563.066 426.496 566.275 429.336C567.416 430.348 571.109 429.014 574.486 426.373C579.535 422.423 580.189 420.511 578.183 415.583C574.645 406.895 575.951 402.182 580.442 407.44C582.42 409.758 583.721 413.495 583.331 415.747C582.941 417.996 584.296 419.555 586.338 419.207C588.458 418.845 590.4 414.824 590.859 409.841C591.556 402.284 592.694 401.163 599.291 401.517C608.996 402.038 612.736 395.863 603.958 393.809L597.489 392.296L604.002 392.172C607.585 392.106 610.717 390.877 610.966 389.443C611.214 388.011 613.308 387.165 615.618 387.565C620.4 388.393 622.006 384.148 618.192 380.769C616.794 379.529 616.651 377.387 617.874 376.003C621.528 371.881 610.34 357.801 602.309 356.41C598.251 355.707 592.804 352.857 590.204 350.079C585.623 345.177 585.681 345.058 592.172 346.092C604.966 348.131 632.059 362.678 635.211 369.202C636.067 370.974 639.59 370.39 643.707 367.791L650.739 363.353L659.089 376.824C663.681 384.232 668.212 396.052 669.154 403.09C670.097 410.125 672.868 419.113 675.314 423.062C678.787 428.669 678.898 430.973 675.821 433.603C673.651 435.451 672.309 439.154 672.839 441.825C674.33 449.377 667.546 446.514 662.705 437.552C658.542 429.838 650.853 425.676 649.988 430.67C649.754 432.02 651.182 435.023 653.16 437.342C658.65 443.774 656.291 449.204 647.163 451.15C628.063 455.219 625.29 456.675 624.156 463.221C623.523 466.876 620.016 472.137 616.362 474.909C612.708 477.684 609.425 481.281 609.066 482.904C608.326 486.246 582.469 494.636 580.688 492.109C579.414 490.302 592.629 473.762 599.14 469.016C601.389 467.377 602.838 464.056 602.362 461.64C601.883 459.223 602.661 457.448 604.09 457.695C605.518 457.943 611.382 455.219 617.123 451.64C622.863 448.061 629.676 445.672 632.266 446.328C636.011 447.277 637.389 445.112 639.019 435.735C640.5 427.201 642.806 423.077 647.377 420.787C652.435 418.253 653.116 416.801 650.803 413.469C646.466 407.225 648.082 404.104 654.051 407.203C661.265 410.947 661.443 406.351 654.547 394.528C650.545 387.667 646.3 384.223 640.633 383.242C633.09 381.935 632.344 382.611 630.676 392.247C629.065 401.549 626.122 404.568 603.23 420.404C574.124 440.542 559.742 447.125 552.281 443.727C549.446 442.437 545.081 442.553 542.585 443.987C535.998 447.771 507.361 438.742 495.756 429.223C482.444 418.309 478.292 408.43 478.026 387.06C477.806 369.302 478.073 368.442 484.685 365.531C492.608 362.042 494.959 355.132 488.597 354.031C483.973 353.23 466.534 360.686 460.556 366.021C458.56 367.802 454.546 368.405 451.634 367.361C447.861 366.01 445.771 367.229 444.354 371.614C443.264 374.997 441.322 377.58 440.039 377.358C438.759 377.136 434.335 380.926 430.212 385.777C426.085 390.631 418.941 395.533 414.335 396.674C403.252 399.417 400.626 402.269 401.135 411.012C401.94 424.856 417.39 441.03 419.296 430.025C420.529 422.902 426.733 426.659 432.353 437.926C435.95 445.144 441.417 450.444 449.028 454.093C461.137 459.9 462.775 463.17 454.402 464.824C449.769 465.739 449.863 466.58 455.249 472.429C458.579 476.043 462.419 479.227 463.785 479.498C465.149 479.769 467.496 482.475 468.999 485.507C470.502 488.543 472.92 490.191 474.37 489.167C475.822 488.146 475.844 486.202 474.421 484.854C470.751 481.371 469.381 471.875 472.627 472.437C474.12 472.696 475.56 471.647 475.826 470.106C476.524 466.076 468.753 465.321 466.355 469.188C465.246 470.98 464.715 469.665 465.179 466.269C466.419 457.171 470.999 456.729 484 464.456C490.396 468.258 498.362 471.138 501.702 470.856C505.043 470.572 510.472 472.392 513.772 474.9L519.765 479.457L511.832 481.202C507.465 482.163 501.45 483.325 498.462 483.789C490.796 484.971 492.697 491.604 501.447 494.207C512.891 497.614 509.288 501.309 494.844 500.983C477.395 500.587 462.524 495.165 458.424 487.701C453.326 478.42 443.881 472.468 434.633 472.708C430.008 472.83 426.503 471.71 426.765 470.194C427.025 468.693 431.02 468.118 435.642 468.918C440.91 469.83 444.294 468.933 444.713 466.513C445.923 459.525 439.074 454.646 428.272 454.798C419.764 454.914 416.716 453.423 410.587 446.147C404.801 439.274 401.938 437.766 397.484 439.242C388.517 442.213 385.284 440.537 387.017 433.812C387.897 430.393 388.753 426 388.916 424.043C389.331 419.049 379.417 417.906 373.268 422.239C370.442 424.231 366.996 424.855 365.61 423.628C361.966 420.398 365.07 407.104 370.693 401.855C373.343 399.383 375.19 395.744 374.802 393.773C374.411 391.798 377.754 387.772 382.231 384.823C386.706 381.873 389.906 378.305 389.339 376.897C387.825 373.129 399.397 361.666 403.921 362.449C406.192 362.842 408.303 360.216 409.013 356.118C410.198 349.272 414.428 347.368 416.575 352.713C418.612 357.777 431.582 355.156 435.919 348.804C438.304 345.308 441.446 343.506 442.902 344.797C446.521 348.003 457.896 340.397 458.998 334.033C459.49 331.19 461.153 329.083 462.694 329.35C464.234 329.617 465.276 331.095 465.01 332.636ZM502.367 360.702C501.96 358.638 503.953 354.607 506.8 351.744C509.647 348.882 512.856 346.691 513.935 346.878C515.013 347.065 514.24 357.265 512.219 369.549C509.575 385.619 507.438 392.098 504.594 392.662C495.889 394.38 499.8 399.468 509.719 399.331C520.836 399.176 522.331 403.41 513.998 411.459C506.862 418.35 495.342 411.552 492.411 398.72C489.171 384.51 492.422 366.565 498.454 365.373C501.014 364.867 502.774 362.766 502.367 360.702ZM526.208 384.83C520.35 374.191 520.345 374.005 525.695 364.969C531.169 355.73 540.313 357.64 540.594 368.083C540.712 372.466 541.06 379.652 541.371 384.051C542.236 396.367 532.828 396.852 526.208 384.83ZM167.286 341.67C159.886 340.388 132.824 318.314 133.545 314.149C134.454 308.9 137.341 309.405 146.527 316.42C150.54 319.484 155.994 322.375 158.642 322.845C161.293 323.313 170.126 328.137 178.271 333.566C186.413 338.992 194.908 343.071 197.145 342.631C199.385 342.188 208.23 345.626 216.805 350.27C225.377 354.914 236.527 359.449 241.577 360.347C246.628 361.247 252.438 363.552 254.486 365.467C269.409 379.438 208.843 367.425 185.323 351.752C177.567 346.58 169.449 342.044 167.286 341.67ZM315.814 364.716C324.476 363.161 334.181 361.746 337.384 361.574C340.588 361.401 344.122 361.269 345.24 361.278C346.355 361.286 343.571 363.9 339.053 367.084C334.534 370.269 329.706 372.678 328.325 372.439C326.941 372.2 321.046 373.807 315.22 376.01C306.489 379.313 301.926 379.209 289.19 375.432C278.875 372.371 273.969 369.582 274.41 367.033C274.869 364.383 278.889 363.879 287.569 365.382C294.446 366.573 307.155 366.272 315.814 364.716ZM560.78 412.69C559.239 412.423 558.415 409.684 558.949 406.603C559.482 403.522 561.179 401.219 562.72 401.486C564.26 401.753 565.084 404.492 564.551 407.573C564.017 410.654 562.32 412.957 560.78 412.69ZM517.958 416.816C520.123 417.19 528.167 413.858 535.83 409.409L549.766 401.32L549.371 408.883C548.847 418.907 542.805 422.693 526.319 423.329C515.264 423.758 512.811 423.128 513.354 419.997C513.722 417.871 515.793 416.441 517.958 416.816ZM38.925 374.259C34.6562 373.52 41.8151 355.952 53.4774 338.552C65.7968 320.173 70.9684 319.897 66.3619 337.869C64.1587 346.478 61.0692 351.874 57.3441 353.627C54.2283 355.092 49.4612 360.447 46.7498 365.525C44.0384 370.603 40.5188 374.535 38.925 374.259ZM147.206 389.573C126.638 360.767 119.177 348.492 121.329 346.977C124.086 345.031 124.642 345.255 134.671 352.331C139.597 355.81 144.23 361.756 144.967 365.548C145.704 369.342 150.7 376.413 156.072 381.261C163.257 387.75 167.223 395.171 171.091 409.354C175.684 426.202 175.832 433.091 172.264 464.113C169.076 491.82 166.623 503.068 161.073 515.41C157.162 524.104 151.959 537.689 149.508 545.594C146.581 555.037 143.735 559.74 141.211 559.303C136.17 558.43 136.798 555.683 149.596 522.742C158.126 500.789 161.042 489.18 163.266 468.34C167.288 430.616 163.603 412.529 147.206 389.573ZM552.433 428.555C550.802 428.273 549.685 426.781 549.951 425.24C550.218 423.7 550.991 422.535 551.672 422.653C552.352 422.771 553.467 424.262 554.153 425.968C554.838 427.673 554.063 428.837 552.433 428.555ZM637.395 470.104C636.749 469.253 638.978 467.193 642.346 465.525C649.578 461.942 653.188 462.172 652.496 466.169C651.951 469.318 639.298 472.614 637.395 470.104ZM550.19 474.328C556.809 475.474 577.732 468.341 581.682 463.593C584.786 459.857 592.983 459.975 592.329 463.749C592.115 464.987 586.944 469.405 580.837 473.567C574.733 477.729 568.37 484.671 566.698 488.995C563.639 496.912 557.337 499.217 558.594 491.959C559.993 483.881 542.617 478.991 533.347 484.858C526.69 489.069 525.022 487.938 524.854 479.095C524.755 473.815 525.732 473.408 532.348 475.967C536.618 477.615 541.03 477.698 542.399 476.155C543.74 474.639 547.246 473.818 550.19 474.328ZM4.05564 472.083C12.7917 434.394 22.1515 412.23 38.3562 390.856C41.5189 386.687 44.6639 384.07 45.3471 385.039C46.4681 386.629 43.1077 394.273 26.2991 428.331C17.5198 446.127 13.4028 479.933 18.4079 493.165C23.1527 505.717 23.3166 507.154 19.9329 506.568C18.6528 506.346 16.4646 502.722 15.07 498.513C11.8018 488.646 4.36945 486.799 5.51073 496.137C7.86106 515.403 12.5196 524.972 28.8259 544.032C32.7847 548.662 34.5213 552.228 32.6867 551.96C26.1185 551.004 7.71576 523.473 3.51634 508.321C-0.136221 495.159 -0.0549231 489.824 4.05564 472.083ZM423.5 468.46C421.479 469.882 400.528 455.1 400.968 452.563C401.406 450.031 412.665 456.755 416.067 461.582C417.809 464.053 420.617 466.317 422.303 466.608C423.989 466.9 424.529 467.733 423.5 468.46ZM368.531 503.415C363.333 502.478 362.984 501.863 366.743 500.264L367.385 499.99C370.213 498.784 371.418 498.27 372.171 498.651C372.73 498.934 373.04 499.71 373.58 501.063L373.745 501.476C374.441 503.207 372.135 504.062 368.531 503.415Z" fill="white"/>
<path fill-rule="evenodd" clip-rule="evenodd" d="M296.817 431.79C293.597 433.455 289.312 433.829 287.296 432.626C285.261 431.414 283.325 432.132 282.946 434.236C282.573 436.323 276.737 440.035 269.978 442.483C263.221 444.931 257.484 448.124 257.232 449.577C256.981 451.031 246.3 455.814 233.5 460.208C192.166 474.388 184.858 481.285 173.325 517.001C169.885 527.654 165.795 540.007 164.236 544.448C162.082 550.589 162.318 551.877 165.229 549.825C170.306 546.246 184.26 521.11 185.662 513.015C186.428 508.592 188.416 506.891 192.082 507.526C195.36 508.093 201.591 503.864 208.366 496.474C214.399 489.891 223.233 482.01 227.994 478.956L236.649 473.41L234.006 479.443C229.433 489.874 236.029 486.871 246.56 473.724C252.128 466.777 257.732 461.256 259.018 461.456C260.302 461.655 267.335 458.528 274.647 454.506C281.956 450.483 292.369 446.265 297.781 445.133C307.606 443.078 315.802 436.128 313.032 432.198C310.614 428.767 303.037 428.577 296.817 431.79ZM197.342 495.463C193.376 497.058 193.865 494.483 198.7 488.286C200.813 485.582 203.797 483.589 205.338 483.856C208.556 484.413 202.321 493.463 197.342 495.463Z" fill="white"/>
<path d="M736.719 14.8263C730.994 19.4436 726.104 24.4102 725.853 25.8611C725.602 27.3121 721.825 30.0452 717.459 31.9347C709.833 35.2362 709.275 35.0443 703.168 26.9935C694.775 15.9301 687.286 10.4934 678.295 8.93648C666.365 6.87079 659.8 10.679 649.113 25.8618C637.646 42.1501 635.952 54.5655 643.332 68.2288C645.807 72.8147 647.685 77.4127 647.506 78.4491C647.174 80.3622 629.884 85.0454 618.261 86.3737C606.299 87.7414 601.857 95.9505 600.358 119.455C598.882 142.589 607.192 178.172 616.912 190.334L622.105 196.833L622.283 185.557C622.382 179.354 621.538 173.366 620.407 172.249C615.989 167.875 608.743 149.359 610.865 147.863C612.101 146.992 613.916 148.354 614.902 150.89C622.24 169.832 626.212 167.914 619.637 148.606C609.145 117.78 608.981 116.361 614.704 105.584C620.427 94.8067 644.145 93.8079 652.612 99.6959C661.079 105.584 663.254 108.424 669.331 119.018C668.788 122.156 670.115 128.124 672.277 132.283C674.441 136.443 677.073 143.889 678.124 148.832C679.178 153.775 686.58 165.442 694.574 174.758C703.951 185.686 709.183 194.528 709.317 199.669C709.429 204.054 710.601 207.829 711.918 208.057C713.234 208.285 715.981 213.63 718.023 219.933C720.065 226.238 723.771 234.993 726.263 239.391C737.977 260.083 743.697 272.285 744.427 278.132C744.865 281.638 746.782 287.059 748.689 290.177C750.598 293.294 753.059 298.812 754.159 302.436C755.26 306.06 757.647 309.82 759.462 310.786C764.839 313.656 764.633 304.763 759.04 292.396C756.171 286.054 754.254 278.38 754.78 275.34C755.306 272.304 751.937 263.138 747.292 254.974C739.239 240.816 729.854 219.356 730.381 216.311C730.517 215.524 734.347 214.035 738.889 212.998C751.63 210.095 761.695 197.415 762.739 182.957C763.628 170.645 759.457 165.021 757.561 175.973C755.891 185.617 740.672 204.331 734.919 203.817C732.069 203.563 728.499 203.268 726.985 203.165C725.471 203.061 721.468 196.321 718.088 188.185C714.404 179.319 708.268 170.787 702.765 166.892C695.465 161.716 692.365 156.026 687.605 139.046C680.537 113.836 669.888 91.1471 664.7 90.2488C656 88.7424 651.195 83.799 651.864 56.6427C652.534 29.4864 668.073 18.7066 679.459 20.6781C690.844 22.6497 690.224 27.9344 698.647 40.5897C711.489 59.8785 732.952 101.493 732.225 105.695C731.623 109.171 713.415 130.616 704.511 138.332C700.275 142.004 697.194 146.967 697.666 149.356C699.003 156.128 708.133 151.703 719.784 138.637C738.305 117.866 740.159 116.621 745.896 121.096C748.729 123.309 754.709 133.262 759.184 143.209C763.655 153.158 771.391 169.632 776.369 179.819C781.348 190.005 785.221 199.513 784.972 200.947C784.487 203.748 791.569 219.486 797.993 229.888C800.16 233.399 801.775 237.204 801.577 238.344C800.981 241.787 808.243 250.701 812.198 251.386C819.847 252.711 820.118 244.082 812.846 230.778C808.71 223.21 805.537 215.728 805.795 214.151C806.051 212.574 803.484 206.287 800.087 200.18C796.693 194.073 791.481 182.438 788.509 174.321C785.538 166.208 780.292 154.913 776.852 149.223C765.242 130.014 764.846 125.338 774.23 118.297C785.053 110.174 797.654 94.3822 798.859 87.4271C800.369 78.7074 795.655 80.2223 788.461 90.762C784.827 96.0847 777.293 104.021 771.719 108.402C756.773 120.141 753.058 116.722 728.331 68.4639C723.675 51.9008 721.18 47.7576 728.279 38.3495C728.705 37.7854 728.832 37.5655 728.804 37.5339C726.758 39.551 728.705 37.425 728.804 37.5339C729.751 36.5997 731.555 34.7767 734.796 31.4314C747.064 18.7665 765.58 19.741 770.252 24.7757C774.925 29.8103 775.065 31.3389 777.482 35.9348C779.895 40.5231 781.166 45.5624 782.572 48.1948C785.071 52.8754 798.462 75.9048 802.868 76.6678C806.151 77.2362 815.579 96.3983 820.534 112.573C822.016 117.408 825.913 123.925 829.197 127.056C841.446 138.738 856.909 163.206 863.203 180.871C871.02 202.806 885.943 232.42 889.487 233.034C894.994 233.987 896.655 225.023 892.231 218.215C889.678 214.285 885.426 203.203 882.785 193.592C880.142 183.98 876.998 175.245 875.795 174.179C872.261 171.049 874.651 164.109 879.004 164.862C883.679 165.672 896.869 154.546 897.832 148.98C898.197 146.877 897.234 144.939 895.693 144.672C894.153 144.405 892.599 145.881 892.24 147.954C891.283 153.484 880.646 159.377 873.775 158.187C870.319 157.588 865.24 152.465 861.689 145.996C858.32 139.859 854.14 134.592 852.398 134.29C849.314 133.756 835.729 111.889 828.453 95.7453C820.785 78.7315 830.801 60.0771 847.725 59.8399C855.97 59.7241 858.386 61.5186 868.568 75.3295L880.083 90.9496L868.27 97.8247C856.585 104.624 855.212 111.958 862.335 113.191C864.36 113.542 859.608 110.79 866.069 104.696L885.612 99.4592L901.392 116.675C910.073 129.358 918.042 139.886 919.103 140.07C922.193 140.605 940.224 175.748 944.073 188.743C946.008 195.275 949.483 201.517 951.795 202.613C956.215 204.711 965.7 221.993 973.515 242.191C976.066 248.784 983.071 261.866 989.083 271.265C1001.04 289.965 1013.44 319.877 1010.56 323.116C1009.57 324.242 1010.7 325.318 1013.08 325.514C1015.6 325.719 1019.42 332.246 1022.22 341.127C1024.87 349.519 1027.81 358.467 1028.76 361.011C1035.7 379.699 1037.97 389.342 1036.89 395.574C1036.21 399.538 1036.79 407.804 1038.2 413.948C1039.61 420.092 1022.01 480.071 1017.68 482.923C1013.36 485.774 1008.59 490.861 1007.1 494.231C1005.54 497.755 999.867 501.614 993.743 503.32C987.89 504.949 982.804 507.995 982.443 510.085C982.08 512.177 973.83 516.718 964.106 520.178C954.382 523.636 944.376 528.518 941.868 531.027C939.362 533.536 935.623 535.297 933.565 534.941C931.506 534.584 928.77 536.058 927.482 538.215C926.196 540.373 922.838 541.739 920.02 541.251C917.2 540.762 904.497 547.325 891.786 555.836C879.078 564.348 861.001 575.822 851.619 581.338C842.236 586.853 829.268 595.236 822.8 599.964C814.479 606.051 808.13 608.324 801.085 607.744C794.039 607.165 783.551 615.627 789.944 614.913C796.336 614.198 813.852 617.361 828.295 609.035C839.939 602.323 855.931 593.723 863.839 589.922C871.745 586.121 886.889 577.385 897.494 570.505C908.099 563.626 917.886 558.191 919.244 558.427C920.603 558.662 928.223 555.111 936.175 550.539C959.529 537.111 981.844 525.99 984.51 526.452C990.866 527.553 1029.6 493.557 1038.05 479.464C1052.39 455.535 1068.76 427.21 1058.44 394.813C1056.04 387.283 1052.56 384.093 1050.01 376.413C1038.33 341.235 1024.18 309.115 1008.8 282.873C986.097 244.119 982.599 237.862 980.49 232.199C974.755 216.804 966.568 200.22 964.529 199.867C963.291 199.652 960.197 193.606 957.652 186.429C955.11 179.252 947.162 164.57 939.991 153.799C932.82 143.028 924.119 129.182 920.655 123.029C917.194 116.876 913.281 111.146 911.96 110.294C910.641 109.446 905.776 103.087 901.15 96.1612C896.524 89.2381 891.899 83.4287 890.868 83.2502C889.837 83.0717 883.013 76.0478 875.701 67.6412C865.107 55.4611 860.231 51.9798 851.693 50.5015C840.422 48.5498 826.602 55.4669 821.278 65.7216C816.832 74.2821 812.009 70.3657 795.799 45.0324C778.234 17.5805 770.78 10.5255 756.777 8.10089C749.234 6.79473 744.851 8.2659 736.719 14.8263Z" fill="white"/>
<path d="M902.704 366.107C901.106 368.736 899.474 372.997 899.073 375.576C898.43 379.758 898.758 379.78 902.12 375.778C904.192 373.309 905.824 369.048 905.75 366.309C905.623 361.757 905.358 361.74 902.704 366.107Z" fill="white"/>
<path d="M198.7 488.286C193.865 494.483 193.376 497.058 197.342 495.463C202.321 493.463 208.556 484.413 205.338 483.856C203.797 483.589 200.813 485.582 198.7 488.286Z" fill="white"/>
<path fill-rule="evenodd" clip-rule="evenodd" d="M502.795 2.78785C501.188 4.73406 496.025 6.06149 491.321 5.73739C486.617 5.41329 480.255 6.57942 477.185 8.33273C474.112 10.0828 467.474 10.9326 462.433 10.2185C454.5 9.09587 453.235 9.82302 453.047 15.6212L429.371 13.7845L417.972 12.9002C407.167 14.5028 379.499 33.0491 356.992 53.7759C346.228 63.6888 344.684 64.1801 329.592 62.4814C320.793 61.4917 310.353 61.8072 306.391 63.1782C302.428 64.552 297.827 65.1488 296.164 64.5088C294.503 63.8664 291.233 64.9763 288.894 66.9717C286.555 68.967 283.126 70.3381 281.272 70.017C277.673 69.3938 263.717 78.8926 263.115 82.3743C262.711 84.7076 246.175 100.162 229.571 113.725C223.556 118.639 218.339 124.227 217.981 126.144C217.62 128.061 213.458 132.204 208.73 135.352C198.757 141.992 190.012 154.658 188.208 165.075C186.09 177.307 167.664 196.031 161.412 192.3C159.385 191.093 158.491 192.04 159.036 194.809C159.553 197.423 154.441 203.92 146.649 210.548C125.724 228.358 119.766 235.321 107.506 256.307C101.195 267.115 92.234 281.143 87.5967 287.48C77.5211 301.249 69.6166 321.873 74.1179 322.652C75.7929 322.942 77.6616 320.314 78.2679 316.813C78.8741 313.312 85.1171 304.332 92.1442 296.857C99.168 289.383 110.348 275.119 116.985 265.161C123.623 255.203 129.845 246.543 130.813 245.918C131.781 245.292 137.492 238.102 143.504 229.942C149.516 221.783 160.011 211.789 166.823 207.738C173.638 203.687 179.359 199.519 179.539 198.48C179.72 197.438 183.74 192.416 188.471 187.321C193.631 181.761 198.986 171.664 201.853 162.086C205.056 151.386 209.246 143.918 214.562 139.443C218.922 135.773 224.277 129.753 226.459 126.068C229.439 121.039 231.795 119.993 235.921 121.873C239.724 123.605 241.649 123.035 242.17 120.024C242.768 116.573 245.045 116.382 253.148 119.103C258.773 120.992 265.308 123.99 267.672 125.764C273.958 130.482 277.85 130.57 278.639 126.013C279.377 121.75 276.132 119.63 259.847 113.743C252.606 111.125 249.913 108.633 250.522 105.115C251.62 98.7704 259.899 93.6808 261.726 98.2266C263.854 103.529 267.721 102.738 270.907 96.3515C275.682 86.7864 297.976 74.4874 315.555 71.718C333.214 68.9364 337.945 71.0395 329.281 77.8194C326.232 80.2024 323.317 84.5734 322.804 87.5341C321.558 94.7011 269.616 145.982 244.477 164.865C241.758 166.907 239.257 170.17 238.921 172.113C238.584 174.055 235.379 178.586 231.8 182.178C224.58 189.422 213.649 207.563 215.29 209.578C215.868 210.29 219.665 212.303 223.725 214.051C229.366 216.481 231.285 216.208 231.86 212.891C232.273 210.502 234.619 208.15 237.075 207.667C239.53 207.18 241.034 205.528 240.417 203.99C239.268 201.134 245.054 189.061 255.91 171.651C259.785 165.432 263.835 162.204 267.059 162.763C269.846 163.245 272.462 161.687 272.875 159.298C274.263 151.284 297.489 126.132 323.081 104.93C324.6 103.672 327.345 104.696 329.638 107.384C333.895 112.371 336.942 113.689 353.121 117.54C362.749 119.833 363.425 120.614 360.835 126.455C352.133 146.084 325.033 169.916 313.658 167.946C311.291 167.537 308.356 168.327 307.137 169.702C303.788 173.482 292.296 170.589 289.192 165.184C285.814 159.3 281.277 160.761 279.998 168.148C278.968 174.097 282.827 177.4 293.809 179.962C303.284 182.171 301.759 187.766 285.922 208.915C271.594 228.046 268.877 235.204 275.505 236.351C277.942 236.773 283.135 231.972 287.497 225.26C291.728 218.752 296.325 214.429 297.713 215.659C299.099 216.889 300.551 216.067 300.938 213.832C302.508 204.768 316.763 188.036 332.174 177.177C341.166 170.837 350.922 162.426 353.853 158.479C364.344 144.361 394.851 111.189 402.615 105.453C414.312 96.8157 432.708 77.036 446.093 58.6969C452.588 49.7987 463.015 38.5148 469.264 33.6162C477.675 27.029 479.95 23.7532 478.025 21.0225C474.889 16.5731 481.75 9.5243 488.137 10.6301C491.022 11.1297 491.333 13.0474 489.219 17.3089C486.695 22.4026 487.75 22.1611 496.362 15.6607C501.918 11.4643 507.602 8.23059 508.992 8.47116C513.557 9.26174 519.034 20.6366 517.927 27.0287C517.062 32.0258 518.044 33.1363 522.751 32.4916C528.18 31.7496 528.441 32.9574 525.961 47.2793C524.476 55.8561 524.521 63.0911 526.062 63.3578C531.703 64.3347 527.528 69.8867 513.882 79.5487C497.073 91.4499 486.908 100.336 470.536 117.439C463.756 124.522 451.822 135.332 444.018 141.459C436.215 147.586 429.496 154.518 429.089 156.865C428.683 159.212 426.127 162.41 423.41 163.971C420.693 165.532 411.253 174.364 402.433 183.598C386.642 200.133 386.167 200.377 371.126 199.668C359.401 199.115 354.544 197.645 350.21 193.334C343.209 186.375 340.415 185.784 339.499 191.073C338.874 194.683 347.751 204.382 351.63 204.327C352.425 204.315 359.21 204.485 366.711 204.705C379.315 205.076 380.268 205.555 379.314 211.062C377.738 220.163 371.227 226.961 365.103 225.9C362.075 225.376 359.39 226.157 359.134 227.636C358.878 229.112 354.642 232.952 349.723 236.165L340.778 242.005L341.379 229.787L341.983 217.569L334.154 233.088C323.928 253.359 323.777 260.315 333.506 263.174C338.137 264.538 341.287 264.057 341.655 261.934C342.722 255.771 374.826 227.731 379.895 228.534C382.596 228.961 385.17 227.226 385.612 224.674C386.054 222.125 390.437 216.306 395.354 211.748C400.273 207.187 403.611 202.488 402.777 201.303C401.941 200.119 399.819 200.773 398.062 202.757C396.305 204.74 394.297 205.558 393.602 204.572C391.393 201.435 423.183 173.227 430.08 172.203C433.722 171.662 441.902 172.389 448.255 173.821C461.499 176.798 472.247 174.205 473.363 167.759C474.045 163.824 473.222 163.728 465.946 166.876C459.474 169.679 456.48 169.544 451.632 166.235C448.26 163.932 445.933 159.825 446.459 157.103C448.323 147.487 468.298 128.367 475.228 129.567C477.942 130.037 481.701 126.138 485.092 119.337C488.189 113.131 497.582 102.92 506.681 95.8747C522.877 83.3363 534.88 80.0256 545.037 85.2983C550.63 88.2026 553.978 102.077 551.933 113.886C550.551 121.866 537.55 141.685 532.319 143.789C530.579 144.486 523.798 150.859 517.244 157.949C502.46 173.952 492.904 181.673 488.772 180.958C486.901 180.634 484.743 185.35 483.513 192.453C482.366 199.078 479.899 205.575 478.036 206.888C476.17 208.203 469.958 215.503 464.23 223.106C458.505 230.712 450.846 237.7 447.211 238.637C442.001 239.98 440.187 242.727 438.653 251.59C437.047 260.861 433.323 266.056 417.473 281.132C406.897 291.196 395.925 300.193 393.094 301.131C390.263 302.066 387.487 303.085 386.929 303.392C386.368 303.699 386.997 306.618 388.322 309.877C390.295 314.713 388.271 320.632 377.304 342.148C369.919 356.642 362.328 372.124 360.441 376.558C358.551 380.991 355.003 386.868 352.554 389.617C350.107 392.367 345.561 401.058 342.453 408.929C339.344 416.801 334.28 426.57 331.196 430.637C321.762 443.08 319.681 465.226 325.928 486.748C331.474 505.856 333.127 508.124 338.771 504.355C340.474 503.216 344.484 502.182 347.68 502.055C352.226 501.876 351.11 500.306 342.546 494.848C329.529 486.55 328.376 481.561 333.525 455.789C337.637 435.209 340.162 429.391 359.247 396.547C365.95 385.013 373.194 371.986 375.344 367.598C377.497 363.211 383.047 351.838 387.68 342.326C398.95 319.192 415.918 297.409 420.526 300.157C425.481 303.112 433.032 294.212 447.334 268.551C461.643 242.876 474.141 233.367 490.316 235.839C495.786 236.674 502.952 236.81 506.241 236.139C512.016 234.961 512.017 234.811 506.21 231.791C502.901 230.073 496.297 228.84 491.534 229.054C485.172 229.34 482.633 228.225 481.971 224.868C480.587 217.866 485.212 213.967 489.265 218.716C491.102 220.869 500.3 225.183 509.707 228.303C519.115 231.424 531.418 235.498 537.045 237.358C543.774 239.583 547.467 239.648 547.83 237.55C548.212 235.348 552.529 235.654 561.717 238.529C570.162 241.174 575.925 241.714 577.441 240.006C578.801 238.467 583.281 238.639 587.84 240.401C597.572 244.164 597.979 242.529 592.29 222.598C589.489 212.78 585.011 204.818 580.268 201.224C569.942 193.394 567.983 193.543 573.052 201.775C577.328 208.718 577.321 208.728 570.717 205.346C567.073 203.48 558.89 200.436 552.536 198.58C546.178 196.723 539.815 193.183 538.396 190.713C536.978 188.241 534.08 185.918 531.959 185.551C526.761 184.651 525.75 192.089 530.67 195.027C532.828 196.313 534.284 199.153 533.905 201.337C533.464 203.886 537.537 206.741 545.272 209.306C557.672 213.421 564.268 220.331 560.191 224.933C555.034 230.754 537.437 222.528 508.072 200.574C500.708 195.07 501.903 188.367 511.885 179.19C515.518 175.852 528.162 163.111 539.988 150.878C539.988 150.878 557.038 139.867 561.485 128.635C564.556 120.879 563.84 107.405 563.84 107.405C566.374 84.5729 553.86 71.9638 553.86 71.9638C553.86 71.9638 550.313 67.2253 545.801 62.907C538.725 56.1367 537.741 53.0436 538.63 40.4283C539.65 25.972 534.683 12.9198 527.697 11.7101C525.815 11.3842 523.033 8.95509 521.514 6.31198C518.037 0.254174 506.651 -1.88754 502.795 2.78785ZM425.859 58.9899C427.186 52.108 443.008 43.13 441.904 30.1945C440.974 19.297 431.369 17.597 420.592 19.4615C402.077 22.6647 369.094 54.6654 367.399 63.5723C366.579 67.8906 354.91 76.9977 351.053 76.3299C347.563 75.7255 333.942 90.0397 333.017 95.2832C332.296 99.3648 346.327 107.259 357.716 109.179C372.525 111.677 379.604 109.735 385.843 101.462C392.014 93.2779 399.383 86.0631 415.541 72.393C420.624 68.0917 425.266 62.0608 425.859 58.9899ZM489.91 212.527C489.244 210.871 489.755 207.754 491.04 205.597C493.8 200.971 510.29 205.857 519.353 213.984C522.394 216.715 527.069 219.325 529.744 219.788C533.343 220.411 533.644 221.306 530.907 223.235C526.533 226.318 491.807 217.247 489.91 212.527ZM567.416 223.426C565.786 223.144 565.447 221.787 566.666 220.411C567.885 219.035 569.436 218.006 570.117 218.124C570.798 218.242 571.134 219.598 570.867 221.139C570.601 222.679 569.046 223.708 567.416 223.426ZM234.16 200.258C229.946 204.917 227.323 201.538 230.726 195.832C232.136 193.468 234.416 191.731 235.791 191.969C238.984 192.522 238.38 195.594 234.16 200.258Z" fill="white"/>
</svg>
