<svg width="115" height="114" viewBox="0 0 115 114" fill="none" xmlns="http://www.w3.org/2000/svg">
<path fill-rule="evenodd" clip-rule="evenodd" d="M14.0417 19.1779C19.403 12.6899 29.9407 5.78104 39.9085 2.221C49.3375 -1.14745 68.0499 -0.610339 78.5794 3.32962C91.2672 8.07525 103.943 20.0949 109.907 33.0316C113.969 41.8383 114.658 45.3525 114.658 57.2527C114.658 69.1249 113.965 72.6735 109.95 81.3804C104.508 93.1806 94.0117 103.797 81.9216 109.73C74.8867 113.183 71.4281 113.748 57.3583 113.747C42.5744 113.747 40.1329 113.298 32.2415 109.143C-1.92446 91.1533 -10.4823 48.8536 14.0417 19.1779ZM61.8141 83.8629L62.2709 105.561L66.3648 104.999C84.0242 102.572 105.481 81.1806 105.63 65.8498C105.666 62.2079 105.406 62.1653 83.5117 62.1653H61.3572L61.8141 83.8629ZM22.2737 90.7112C16.3572 83.9726 11.5395 74.9022 9.9396 67.4874L8.79006 62.1653H31.0755H53.3594L52.9025 83.8629L52.4456 105.561L48.3517 105.053C41.1825 104.165 27.4582 96.6178 22.2737 90.7112ZM43.9696 10.4825C26.7475 15.8684 13.6208 29.9612 9.9396 47.0179L8.79006 52.34H31.028H53.2644V30.233C53.2644 18.0742 52.7125 8.17514 52.0362 8.23573C51.3599 8.29632 47.7311 9.30669 43.9696 10.4825ZM61.8075 31.9655C61.5521 21.2101 61.6945 11.4945 62.1236 10.3744C63.0504 7.96062 71.9276 9.99283 81.1028 14.7204C92.7638 20.7286 105.532 38.4175 105.63 48.703C105.666 52.4235 105.602 52.4333 83.9685 51.9781L62.2709 51.5212L61.8075 31.9655Z" fill="black"/>
</svg>
