<svg width="100" height="117" viewBox="0 0 100 117" fill="none" xmlns="http://www.w3.org/2000/svg">
<path d="M3.02827 16.7194C6.9846 8.96562 11.2324 5.16321 19.0599 2.37282C26.8547 -0.407749 30.6931 -0.50765 37.7559 1.88809C47.2209 5.0977 52.5839 9.98744 56.8416 19.2871C64.9524 37.0022 59.0769 57.5093 41.2128 73.8357L32.4142 81.8777H53.0146H73.6167V40.9389V0H78.5294H83.442V40.9389V81.8777H91.6855C99.7324 81.8777 99.9158 81.9858 99.3345 86.381C98.7924 90.4782 98.049 90.9285 91.091 91.3837L83.442 91.8832V104.075V116.266H78.5294H73.6167V104.017V91.7702L39.6374 91.3264L5.65819 90.8843V86.2549C5.65819 82.1446 6.62597 81.2866 14.3012 78.583C44.09 68.0928 60.1364 36.3488 44.84 18.1703C36.0217 7.68994 19.4448 7.86681 12.9551 18.5109C8.72368 25.4509 8.75643 33.7402 13.0272 36.4061C15.0168 37.649 16.3023 40.2249 16.3023 42.9711C16.3023 48.1867 16.6871 48.0229 9.94694 45.6747C0.301747 42.3111 -2.99465 28.5197 3.02827 16.7194Z" fill="black"/>
</svg>
