<svg width="145" height="127" viewBox="0 0 145 127" fill="none" xmlns="http://www.w3.org/2000/svg">
<mask id="path-1-inside-1_644_1081" fill="white">
<path d="M54.5393 98.7156C54.2448 100.826 55.7175 102.793 57.8454 102.897C62.9263 103.146 68.0216 102.492 72.8921 100.955C78.9915 99.03 84.5846 95.7685 89.264 91.4083C93.9433 87.048 97.5911 81.6988 99.9414 75.7503C102.292 69.8018 103.286 63.404 102.85 57.0228C102.415 50.6417 100.562 44.438 97.4255 38.8638C94.2892 33.2895 89.9489 28.4851 84.7208 24.8006C79.4927 21.1161 73.5086 18.6443 67.2043 17.5653C62.1702 16.7037 57.0332 16.7474 52.0333 17.684C49.9392 18.0762 48.7473 20.2255 49.3256 22.276V22.276C49.9038 24.3264 52.0338 25.4975 54.1352 25.1464C58.0224 24.497 62.0002 24.5018 65.9027 25.1698C71.0759 26.0552 75.9864 28.0835 80.2764 31.107C84.5665 34.1304 88.128 38.0728 90.7016 42.6469C93.2752 47.221 94.7959 52.3116 95.1531 57.5478C95.5102 62.7841 94.6948 68.034 92.7661 72.9152C90.8375 77.7964 87.8442 82.1859 84.0044 85.7638C80.1646 89.3418 75.575 92.0181 70.57 93.5977C66.7943 94.7894 62.854 95.3343 58.9146 95.2187C56.7851 95.1562 54.8338 96.6056 54.5393 98.7156V98.7156Z"/>
</mask>
<path d="M54.5393 98.7156C54.2448 100.826 55.7175 102.793 57.8454 102.897C62.9263 103.146 68.0216 102.492 72.8921 100.955C78.9915 99.03 84.5846 95.7685 89.264 91.4083C93.9433 87.048 97.5911 81.6988 99.9414 75.7503C102.292 69.8018 103.286 63.404 102.85 57.0228C102.415 50.6417 100.562 44.438 97.4255 38.8638C94.2892 33.2895 89.9489 28.4851 84.7208 24.8006C79.4927 21.1161 73.5086 18.6443 67.2043 17.5653C62.1702 16.7037 57.0332 16.7474 52.0333 17.684C49.9392 18.0762 48.7473 20.2255 49.3256 22.276V22.276C49.9038 24.3264 52.0338 25.4975 54.1352 25.1464C58.0224 24.497 62.0002 24.5018 65.9027 25.1698C71.0759 26.0552 75.9864 28.0835 80.2764 31.107C84.5665 34.1304 88.128 38.0728 90.7016 42.6469C93.2752 47.221 94.7959 52.3116 95.1531 57.5478C95.5102 62.7841 94.6948 68.034 92.7661 72.9152C90.8375 77.7964 87.8442 82.1859 84.0044 85.7638C80.1646 89.3418 75.575 92.0181 70.57 93.5977C66.7943 94.7894 62.854 95.3343 58.9146 95.2187C56.7851 95.1562 54.8338 96.6056 54.5393 98.7156V98.7156Z" stroke="black" stroke-width="16.7805" stroke-linejoin="round" mask="url(#path-1-inside-1_644_1081)"/>
<path d="M140 99H58" stroke="black" stroke-width="9" stroke-linecap="round"/>
<path d="M114.853 76V122" stroke="black" stroke-width="9" stroke-linecap="round"/>
</svg>
