<svg width="139" height="135" viewBox="0 0 139 135" fill="none" xmlns="http://www.w3.org/2000/svg">
<mask id="path-1-inside-1_644_1091" fill="white">
<path d="M37.6025 111.686C17.3134 99.3436 10.871 72.8907 23.2132 52.6015C35.5553 32.3123 62.0082 25.87 82.2974 38.2121C102.587 50.5543 109.029 77.0072 96.6868 97.2964C84.3446 117.586 57.8917 124.028 37.6025 111.686ZM78.2878 44.8035C61.6389 34.6758 39.9322 39.9622 29.8045 56.6111C19.6768 73.26 24.9632 94.9667 41.6121 105.094C58.261 115.222 79.9677 109.936 90.0954 93.2868C100.223 76.6379 94.9367 54.9312 78.2878 44.8035Z"/>
</mask>
<path d="M37.6025 111.686C17.3134 99.3436 10.871 72.8907 23.2132 52.6015C35.5553 32.3123 62.0082 25.87 82.2974 38.2121C102.587 50.5543 109.029 77.0072 96.6868 97.2964C84.3446 117.586 57.8917 124.028 37.6025 111.686ZM78.2878 44.8035C61.6389 34.6758 39.9322 39.9622 29.8045 56.6111C19.6768 73.26 24.9632 94.9667 41.6121 105.094C58.261 115.222 79.9677 109.936 90.0954 93.2868C100.223 76.6379 94.9367 54.9312 78.2878 44.8035Z" stroke="black" stroke-width="16.7805" stroke-linejoin="round" mask="url(#path-1-inside-1_644_1091)"/>
<path d="M90 48.6348L114.749 23.886" stroke="black" stroke-width="9" stroke-linecap="round"/>
<path d="M121.178 52.6777V17.6777" stroke="black" stroke-width="9" stroke-linecap="round"/>
<path d="M121 17.5H86" stroke="black" stroke-width="9" stroke-linecap="round"/>
</svg>
