<svg width="71" height="115" viewBox="0 0 71 115" fill="none" xmlns="http://www.w3.org/2000/svg">
<path fill-rule="evenodd" clip-rule="evenodd" d="M6.57828 2.34989C6.57828 6.43068 9.94179 13.78 13.5919 17.6774L17.1127 21.434L11.8283 26.3728C-4.08711 41.2484 -3.91683 66.4389 12.1902 79.7145C15.5095 82.4509 21.0297 85.5295 24.4571 86.5562C29.8889 88.184 30.5881 88.9487 29.9053 92.5202C29.3305 95.5251 28.0826 96.6157 25.2185 96.6157C21.9745 96.6157 21.3163 97.4443 21.3163 101.528C21.3163 105.676 21.9533 106.441 25.4102 106.441C29.1553 106.441 30.462 108.563 29.6973 113.401C29.5909 114.075 31.7148 114.629 34.4167 114.629C38.5647 114.629 39.3294 113.992 39.3294 110.535C39.3294 107.078 40.0941 106.441 44.242 106.441C48.6094 106.441 49.1547 105.896 49.1547 101.528C49.1547 97.161 48.6094 96.6157 44.242 96.6157C40.1154 96.6157 39.3294 95.9722 39.3294 92.5873C39.3294 89.2664 40.551 88.1938 46.289 86.4792C55.1694 83.8264 66.3457 72.822 68.6727 64.4394C72.7535 49.7456 69.0756 35.9034 58.7213 26.9902L53.0488 22.107L57.6159 16.3526C60.128 13.1872 62.6596 8.21397 63.2426 5.29913C64.2562 0.229258 64.081 0 59.1847 0C55.5854 0 54.0674 0.777836 54.0674 2.62008C54.0674 4.06113 51.5619 7.74563 48.4997 10.8079C43.7475 15.56 41.8054 16.3755 35.2355 16.3755C28.6656 16.3755 26.7235 15.56 21.9713 10.8079C18.9091 7.74563 16.4036 4.06113 16.4036 2.62008C16.4036 0.800762 14.902 0 11.4909 0C8.31409 0 6.57828 0.830242 6.57828 2.34989ZM24.1869 75.5273C6.27372 66.8564 4.85393 41.3826 21.7109 31.1053C33.8157 23.7233 50.9397 28.405 57.5849 40.9127C69.0199 62.4301 46.1302 86.1517 24.1869 75.5273Z" fill="black"/>
</svg>
