<svg width="120" height="158" viewBox="0 0 120 158" fill="none" xmlns="http://www.w3.org/2000/svg">
<mask id="path-1-inside-1_644_1087" fill="white">
<path d="M37.6025 98.6857C17.3134 86.3436 10.871 59.8907 23.2132 39.6015C35.5553 19.3123 62.0082 12.87 82.2974 25.2121C102.587 37.5543 109.029 64.0072 96.6868 84.2964C84.3446 104.586 57.8917 111.028 37.6025 98.6857ZM78.2878 31.8035C61.6389 21.6758 39.9322 26.9622 29.8045 43.6111C19.6768 60.26 24.9632 81.9667 41.6121 92.0944C58.261 102.222 79.9677 96.9357 90.0954 80.2868C100.223 63.6379 94.9367 41.9312 78.2878 31.8035Z"/>
</mask>
<path d="M37.6025 98.6857C17.3134 86.3436 10.871 59.8907 23.2132 39.6015C35.5553 19.3123 62.0082 12.87 82.2974 25.2121C102.587 37.5543 109.029 64.0072 96.6868 84.2964C84.3446 104.586 57.8917 111.028 37.6025 98.6857ZM78.2878 31.8035C61.6389 21.6758 39.9322 26.9622 29.8045 43.6111C19.6768 60.26 24.9632 81.9667 41.6121 92.0944C58.261 102.222 79.9677 96.9357 90.0954 80.2868C100.223 63.6379 94.9367 41.9312 78.2878 31.8035Z" stroke="black" stroke-width="16.7805" stroke-linejoin="round" mask="url(#path-1-inside-1_644_1087)"/>
<path d="M59.7246 153.395V103" stroke="black" stroke-width="9" stroke-linecap="round"/>
<path d="M82.4355 128.245H36.4355" stroke="black" stroke-width="9" stroke-linecap="round"/>
<path d="M31 3.79883C31 3.79883 41.7533 20.6732 59.7647 20.2114C76.9278 19.7713 88.5307 3.79942 88.5307 3.79942" stroke="black" stroke-width="7.29447" stroke-linecap="round"/>
</svg>
