<svg width="76" height="116" viewBox="0 0 76 116" fill="none" xmlns="http://www.w3.org/2000/svg">
<path fill-rule="evenodd" clip-rule="evenodd" d="M7.14931 0.542106C-2.8758 3.29975 -2.33869 7.85706 8.64112 13.2282C19.0052 18.2997 28.2492 27.9073 33.0096 38.5547C36.9856 47.4515 37.6471 64.1693 34.3933 73.5754C30.8529 83.815 20.8884 94.8358 9.85128 100.718C-4.45604 108.344 -3.20659 112.705 13.9353 114.978C30.6482 117.195 53.0582 107.661 64.1739 93.6027C73.1051 82.3085 75.9086 73.7064 75.9184 57.5863C75.925 45.0738 75.2749 41.458 71.6117 33.6453C62.0729 13.3036 43.9435 0.989155 22.2476 0.116339C15.7448 -0.144032 8.95062 0.047565 7.14931 0.542106ZM44.7722 56.7675C44.7214 38.2468 41.3349 29.6791 29.0058 16.8898L21.283 8.87562L27.6138 9.72551C42.4861 11.7201 57.4337 23.5334 64.0953 38.5547C68.7656 49.0858 68.6641 66.3914 63.8742 76.469C56.4283 92.1305 43.0298 102.801 27.7367 105.246L20.6722 106.376L28.3704 98.6791C32.6035 94.4444 38.0353 86.7839 40.4408 81.6518C44.2318 73.5639 44.8082 70.2561 44.7722 56.7675Z" fill="black"/>
</svg>
