<svg width="69" height="95" viewBox="0 0 69 95" fill="none" xmlns="http://www.w3.org/2000/svg">
<path fill-rule="evenodd" clip-rule="evenodd" d="M14.5 0.456979C11.669 0.930979 2.495 3.74598 1.043 4.58598C0.515999 4.89098 3.39999 5.95498 7.45099 6.95098C27.375 11.848 39.562 26.841 39.814 46.766C40.068 66.856 27.548 82.632 7.40799 87.597L0 89.424L5.69901 91.562C26.017 99.184 49.659 91.193 61.549 72.685C71.366 57.403 71.303 37.042 61.39 21.594C57.488 15.513 49.565 8.33898 43.176 5.10198C35.093 1.00598 22.96 -0.959021 14.5 0.456979ZM43.523 32.82C40.076 22.612 33.689 14.103 24.491 7.46898L22 5.67298L26.61 6.18098C41.656 7.83998 55.048 18.25 60.626 32.621C63.7 40.544 63.699 53.992 60.623 61.919C55.006 76.392 42.003 86.408 26.335 88.329L21 88.983L25.538 86.031C31.913 81.884 37.15 75.505 41.355 66.766C44.617 59.988 45 58.304 45.332 49.266C45.637 40.975 45.328 38.164 43.523 32.82Z" fill="black"/>
</svg>
