<svg width="69" height="79" viewBox="0 0 69 79" fill="none" xmlns="http://www.w3.org/2000/svg">
<path d="M26.3103 10.456C24.3123 8.64899 24.3273 8.60699 28.5363 4.31799C30.8673 1.94299 33.2623 0 33.8583 0C34.4543 0 36.8493 1.94299 39.1803 4.31799C43.2903 8.50699 43.3613 8.68701 41.5323 10.342C40.4963 11.281 38.9273 11.772 38.0483 11.434C36.6123 10.884 36.4473 13.002 36.4433 32.027L36.4383 53.234L39.6323 52.595C48.3943 50.843 55.1613 42.284 56.1123 31.75C56.6083 26.259 56.4943 25.651 55.1693 26.746C53.9343 27.767 53.3283 27.624 51.8163 25.954C50.0023 23.949 50.0503 23.835 54.6643 19.22L59.3583 14.526L64.0883 19.256L68.8173 23.985L66.5553 26.243C64.6193 28.174 64.1553 28.283 63.3403 27C62.6233 25.869 62.3853 26.288 62.3733 28.701C62.3073 42.581 54.3923 53.997 42.0573 58.003C37.7013 59.418 36.8073 60.122 36.5423 62.346C36.2363 64.91 36.3963 65 41.2923 65C46.2543 65 46.3583 65.061 46.3583 68C46.3583 70.933 46.2473 71 41.3583 71C38.6083 71 36.4113 71.337 36.4763 71.75C36.5423 72.163 36.5423 73.962 36.4763 75.75C36.3763 78.518 35.9883 79 33.8583 79C31.6083 79 31.3583 78.6 31.3583 75V71H26.3583C21.4693 71 21.3583 70.933 21.3583 68C21.3583 65.067 21.4693 65 26.3583 65C31.1463 65 31.3583 64.884 31.3573 62.25C31.3553 59.754 30.8053 59.338 25.4063 57.752C14.0463 54.413 6.3583 43.697 6.3583 31.199C6.3583 26.389 6.17731 25.905 4.80331 27.045C3.50831 28.121 2.91729 28.004 1.25829 26.345C-0.729706 24.357 -0.724701 24.347 3.9443 19.677C6.5173 17.105 8.7283 15 8.8583 15C8.9883 15 11.1993 17.105 13.7723 19.677C18.4413 24.347 18.4463 24.357 16.4583 26.345C14.8983 27.904 14.1633 28.083 13.0623 27.17C10.7613 25.259 11.9823 36.644 14.6383 41.858C17.1433 46.776 23.2523 51.652 28.1083 52.609L31.3583 53.25V31.503C31.3583 12.166 31.1903 9.89499 29.8393 11.016C28.5963 12.048 27.9563 11.946 26.3103 10.456Z" fill="black"/>
</svg>
