<svg width="56" height="68" viewBox="0 0 56 68" fill="none" xmlns="http://www.w3.org/2000/svg">
<path d="M8.48801 39.8413C4.10801 35.4603 1.31399 29.7313 0.593994 23.6553L0 18.6423L2.89902 18.9733C5.44502 19.2643 5.86601 19.7923 6.35901 23.3043C9.05101 42.4933 34.208 48.6553 46.004 33.0153C48.188 30.1203 49.456 27.0953 49.905 23.7113C50.525 19.0333 50.745 18.7183 53.184 19.0013C55.591 19.2803 55.782 19.6483 55.599 23.6493C55.367 28.7333 52.414 34.9283 47.961 39.6763C44.724 43.1283 36.184 47.7773 33.048 47.7943C31.772 47.8013 31.298 48.6173 31.298 50.8043C31.298 53.6933 31.465 53.8043 35.798 53.8043C40.131 53.8043 40.298 53.9153 40.298 56.8043C40.298 59.6873 40.125 59.8043 35.858 59.8043C31.45 59.8043 31.417 59.8303 31.108 63.5543C30.839 66.8103 30.436 67.3463 28.048 67.6203C25.452 67.9193 25.298 67.7123 25.298 63.9253V59.9143L20.548 59.6093C16.198 59.3303 15.771 59.0723 15.482 56.5543C15.173 53.8743 15.295 53.8043 20.232 53.8043C25.194 53.8043 25.298 53.7433 25.298 50.8043C25.298 48.6173 24.824 47.8013 23.548 47.7943C20.49 47.7773 11.875 43.2273 8.48801 39.8413Z" fill="black"/>
<path fill-rule="evenodd" clip-rule="evenodd" d="M21.983 0.82132C17.566 2.14732 12.472 6.54332 10.206 10.9853C2.15899 26.7573 16.942 44.3653 33.982 39.3053C43.057 36.6103 49.011 27.5803 48.083 17.9223C46.917 5.78033 33.892 -2.75368 21.983 0.82132ZM15.859 27.6393C11.848 20.8483 14.51 11.0523 21.332 7.49933C26.885 4.60633 33.611 5.65031 38.056 10.0953C41.072 13.1113 41.682 14.4813 42.015 18.9823C42.627 27.2413 38.02 33.1643 29.968 34.4703C25.26 35.2343 18.377 31.9013 15.859 27.6393Z" fill="black"/>
</svg>
