<svg width="112" height="145" viewBox="0 0 112 145" fill="none" xmlns="http://www.w3.org/2000/svg">
<mask id="path-1-inside-1_644_1079" fill="white">
<path d="M55.0023 133.469C54.6243 135.565 56.0178 137.59 58.1398 137.778C64.7764 138.369 71.4782 137.41 77.7098 134.954C85.1412 132.027 91.6103 127.087 96.3918 120.689C101.173 114.291 104.078 106.687 104.781 98.7309C105.484 90.7745 103.957 82.7796 100.371 75.6425C96.7848 68.5053 91.2819 62.508 84.4788 58.3229C77.6757 54.1377 69.8414 51.9301 61.854 51.9475C53.8667 51.9649 46.0421 54.2067 39.2573 58.4215C33.5679 61.9559 28.7982 66.7605 25.3104 72.4374C24.1951 74.2526 24.9877 76.579 26.8955 77.5272V77.5272C28.8033 78.4753 31.1013 77.683 32.252 75.89C35.0778 71.4868 38.8569 67.7528 43.3284 64.975C48.8959 61.5164 55.3166 59.6769 61.8709 59.6626C68.4251 59.6483 74.8538 61.4598 80.4363 64.894C86.0188 68.3283 90.5344 73.2496 93.4769 79.1062C96.4195 84.9628 97.6726 91.5232 97.0959 98.0521C96.5192 104.581 94.1355 110.82 90.2118 116.07C86.2882 121.32 80.9799 125.374 74.8818 127.776C69.9841 129.706 64.7325 130.509 59.5131 130.148C57.3877 130.001 55.3804 131.372 55.0023 133.469V133.469Z"/>
</mask>
<path d="M55.0023 133.469C54.6243 135.565 56.0178 137.59 58.1398 137.778C64.7764 138.369 71.4782 137.41 77.7098 134.954C85.1412 132.027 91.6103 127.087 96.3918 120.689C101.173 114.291 104.078 106.687 104.781 98.7309C105.484 90.7745 103.957 82.7796 100.371 75.6425C96.7848 68.5053 91.2819 62.508 84.4788 58.3229C77.6757 54.1377 69.8414 51.9301 61.854 51.9475C53.8667 51.9649 46.0421 54.2067 39.2573 58.4215C33.5679 61.9559 28.7982 66.7605 25.3104 72.4374C24.1951 74.2526 24.9877 76.579 26.8955 77.5272V77.5272C28.8033 78.4753 31.1013 77.683 32.252 75.89C35.0778 71.4868 38.8569 67.7528 43.3284 64.975C48.8959 61.5164 55.3166 59.6769 61.8709 59.6626C68.4251 59.6483 74.8538 61.4598 80.4363 64.894C86.0188 68.3283 90.5344 73.2496 93.4769 79.1062C96.4195 84.9628 97.6726 91.5232 97.0959 98.0521C96.5192 104.581 94.1355 110.82 90.2118 116.07C86.2882 121.32 80.9799 125.374 74.8818 127.776C69.9841 129.706 64.7325 130.509 59.5131 130.148C57.3877 130.001 55.3804 131.372 55.0023 133.469V133.469Z" stroke="black" stroke-width="16.7805" stroke-linejoin="round" mask="url(#path-1-inside-1_644_1079)"/>
<path d="M28 5L28 73" stroke="black" stroke-width="9" stroke-linecap="round"/>
<path d="M5 30H51" stroke="black" stroke-width="9" stroke-linecap="round"/>
</svg>
