<svg width="70" height="116" viewBox="0 0 70 116" fill="none" xmlns="http://www.w3.org/2000/svg">
<path d="M13.9948 5.73145C14.1324 3.47981 14.3158 1.26911 14.4042 0.818787C14.4943 0.368459 16.4086 0 18.6602 0C22.1875 0 22.7541 0.736899 22.7541 5.32205C22.7541 10.5491 22.8867 10.6441 30.2312 10.6441C37.4233 10.6441 37.6902 10.8161 37.1908 15.1474C36.7273 19.1774 35.9413 19.7031 29.7137 20.1534C22.7623 20.6578 22.7541 20.6643 22.7541 27.2506C22.7541 30.8761 23.3076 33.5584 23.9823 33.2113C33.8485 28.1316 39.0428 26.7527 45.8338 27.4045C66.9173 29.4301 76.2203 53.4187 63.6389 73.3101C48.1624 97.7817 45.5652 105.622 52.9391 105.622C55.4839 105.622 57.2967 104.44 57.9615 102.347C58.6902 100.053 60.4391 99.0721 63.8027 99.0721C69.354 99.0721 69.3458 99.0442 66.2885 106.362C62.3469 115.795 51.6029 118.471 43.4446 112.053C35.9659 106.171 37.9408 96.94 51.3032 75.3275C55.2006 69.0229 58.9162 62.1419 59.5598 60.0377C61.3742 54.0982 59.1291 45.8286 54.4228 41.1223C47.0423 33.7418 32.6908 36.131 25.2366 45.9825C23.4926 48.2882 22.8442 54.0409 22.8065 67.5491L22.7541 85.9716H18.6602H14.5663V53.3139V20.6578L7.60671 20.1534C1.42003 19.7063 0.589784 19.161 0.137819 15.2456C-0.337072 11.1321 0.095243 10.8079 6.68804 10.333C12.9107 9.88593 13.777 9.34062 13.9948 5.73145Z" fill="black"/>
</svg>
