<svg width="57" height="75" viewBox="0 0 57 75" fill="none" xmlns="http://www.w3.org/2000/svg">
<path fill-rule="evenodd" clip-rule="evenodd" d="M0 2.98801C0 5.24101 0.681004 6.32802 2.771 7.40802C12.788 12.589 17.693 25.634 13.449 35.809C11.558 40.343 6.738 45.479 2.869 47.081C0.650003 48 0 48.922 0 51.148C0 54.55 0.807999 54.676 5.918 52.069C11.47 49.236 17.684 41.705 19.672 35.398C20.903 31.495 21.862 30.027 23.183 30.027C24.817 30.027 25 31.026 25 39.96C25 48.694 24.78 49.962 23.176 50.471C22.173 50.79 20.035 52.424 18.426 54.104C16.01 56.626 15.5 58.007 15.5 62.027C15.5 66.043 16.011 67.429 18.415 69.938C22.474 74.175 26.677 75.411 31.556 73.803C41.396 70.56 42.916 56.635 34.005 51.371L31 49.596V39.811C31 30.916 31.17 30.027 32.872 30.027C34.273 30.027 34.9 31.002 35.364 33.902C36.602 41.641 45.873 51.848 53.25 53.593C55.668 54.165 56 53.954 56 51.838C56 50.046 54.67 48.552 50.782 45.98C36.179 36.318 37.25 15.453 52.75 7.61801C55.817 6.06801 57.169 2.52901 55.378 0.739014C54.345 -0.294986 45.716 4.62302 42.307 8.18802C38.983 11.664 35.06 19.25 35.022 22.277C35.009 23.342 34.231 24.027 33.035 24.027C31.228 24.027 31.047 23.203 30.785 13.777L30.5 3.52701L27.75 3.211L25 2.89401V13.461C25 23.276 24.861 24.027 23.047 24.027C21.661 24.027 20.81 22.998 20.115 20.48C17.769 11.986 11.493 4.80201 3.5 1.46201L0 0V2.98801ZM23.635 66.954C20.063 64.145 20.094 59.885 23.707 57.043C28.521 53.256 34 56.246 34 62.661C34 64.889 33.299 66.404 31.777 67.47C28.796 69.559 26.783 69.431 23.635 66.954Z" fill="black"/>
</svg>
