<svg width="120" height="156" viewBox="0 0 120 156" fill="none" xmlns="http://www.w3.org/2000/svg">
<mask id="path-1-inside-1_644_1083" fill="white">
<path d="M37.6025 96.6857C17.3134 84.3436 10.871 57.8907 23.2132 37.6015C35.5553 17.3123 62.0082 10.87 82.2974 23.2121C102.587 35.5543 109.029 62.0072 96.6868 82.2964C84.3446 102.586 57.8917 109.028 37.6025 96.6857ZM78.2878 29.8035C61.6389 19.6758 39.9322 24.9622 29.8045 41.6111C19.6768 58.26 24.9632 79.9667 41.6121 90.0944C58.261 100.222 79.9677 94.9357 90.0954 78.2868C100.223 61.6379 94.9367 39.9312 78.2878 29.8035Z"/>
</mask>
<path d="M37.6025 96.6857C17.3134 84.3436 10.871 57.8907 23.2132 37.6015C35.5553 17.3123 62.0082 10.87 82.2974 23.2121C102.587 35.5543 109.029 62.0072 96.6868 82.2964C84.3446 102.586 57.8917 109.028 37.6025 96.6857ZM78.2878 29.8035C61.6389 19.6758 39.9322 24.9622 29.8045 41.6111C19.6768 58.26 24.9632 79.9667 41.6121 90.0944C58.261 100.222 79.9677 94.9357 90.0954 78.2868C100.223 61.6379 94.9367 39.9312 78.2878 29.8035Z" stroke="black" stroke-width="16.7805" stroke-linejoin="round" mask="url(#path-1-inside-1_644_1083)"/>
<path d="M59.7246 151.395V101" stroke="black" stroke-width="9" stroke-linecap="round"/>
<path d="M82.4355 126.245H36.4355" stroke="black" stroke-width="9" stroke-linecap="round"/>
</svg>
