<svg width="114" height="116" viewBox="0 0 114 116" fill="none" xmlns="http://www.w3.org/2000/svg">
<path fill-rule="evenodd" clip-rule="evenodd" d="M79.4028 4.91266C79.4028 9.74509 79.5436 9.82533 87.9623 9.82533H96.5202L83.6736 22.7473L70.8286 35.6692L62.6277 31.4148C46.8122 23.2091 24.2663 27.2031 12.0338 40.3772C-5.00825 58.7309 -3.7899 88.3313 14.6752 104.545C23.0316 111.883 31.2276 115.005 42.5578 115.174C55.4732 115.364 63.6152 112.389 72.4432 104.252C83.59 93.976 86.7095 86.774 86.7439 71.2336C86.7685 59.8919 86.1577 57.0442 82.1997 50.0257L77.6277 41.9198L90.7969 28.7505L103.966 15.5813V24.7123C103.966 29.7347 104.353 34.2282 104.824 34.6998C105.294 35.1714 107.505 35.2091 109.737 34.7817C113.741 34.0169 113.791 33.7975 113.791 17.0027V0H96.5971H79.4028V4.91266ZM10.8515 60.4241C13.9121 51.2817 20.3755 44.0993 29.2658 39.9596C42.5627 33.768 55.2046 35.4088 65.7849 44.6987C85.2652 61.8029 80.0235 93.9137 56.1201 103.898C29.9798 114.817 1.72538 87.6829 10.8515 60.4241Z" fill="black"/>
</svg>
