<svg width="118" height="115" viewBox="0 0 118 115" fill="none" xmlns="http://www.w3.org/2000/svg">
<path d="M0.673769 25.4116C-0.988349 23.4089 0.153024 20.9689 7.17813 11.4924C11.8632 5.17141 16.219 0 16.8593 0C17.498 0 21.9407 5.15666 26.7322 11.4596C33.9784 20.9918 35.1017 23.3335 33.4036 25.3788C30.5346 28.8357 27.6901 28.441 24.5559 24.1539C21.944 20.5791 21.8932 20.6905 22.8659 27.8384C24.0728 36.7205 30.5985 51.7615 35.5422 57.0557C39.2808 61.0611 44.7191 64.2855 51.004 66.2243L54.6885 67.3608V44.3237C54.6885 31.6539 54.2546 21.2882 53.7224 21.2882C53.1918 21.2882 51.4838 22.8603 49.9281 24.7811C47.5045 27.7746 46.5744 27.9924 43.4254 26.3073C41.4047 25.2265 39.98 23.8281 40.26 23.2009C41.5111 20.3974 57.2578 0.127728 58.2322 0.0671387C59.2409 0.0049116 74.01 18.0213 76.5678 22.4345C77.2294 23.5759 76.2518 25.1774 74.2311 26.2598C71.3359 27.809 70.0963 27.5011 66.8163 24.4176L62.8763 20.7167V44.0388V67.3608L66.5608 66.2587C81.4642 61.8062 90.6427 48.7729 94.7677 26.2009L95.8157 20.4694L92.516 24.5633C89.7928 27.94 88.7005 28.3297 86.2802 26.7937C84.6656 25.7669 83.4391 23.7953 83.5537 22.4083C83.7699 19.7817 98.6323 0 100.389 0C100.941 0 105.335 5.16976 110.152 11.4874C117.392 20.9803 118.563 23.3974 116.896 25.4067C114.101 28.7735 110.771 28.446 108.348 24.5633C105.289 19.6654 104.365 20.5005 103.348 29.0846C100.799 50.607 87.4674 69.5666 71.6535 74.1599C63.9259 76.4034 63.6803 76.6687 63.1923 83.268L62.688 90.0655H70.9707C78.6623 90.0655 79.2518 90.3505 79.2518 94.0694C79.2518 97.6851 78.4969 98.1223 71.4734 98.5726L63.695 99.0721L63.1956 106.85C62.7485 113.822 62.29 114.629 58.7824 114.629C55.2747 114.629 54.8162 113.822 54.3691 106.85L53.8697 99.0721L46.0913 98.5726C39.0679 98.1223 38.313 97.6851 38.313 94.0694C38.313 90.3505 38.9025 90.0655 46.5941 90.0655H54.8768L54.3725 83.268C53.8894 76.7424 53.5733 76.3854 46.45 74.3171C31.3894 69.9432 17.308 51.6337 14.421 32.6659C12.8244 22.1823 11.3359 19.8947 8.97779 24.3013C6.77364 28.4198 3.52966 28.8521 0.673769 25.4116Z" fill="black"/>
</svg>
