<svg width="87" height="117" viewBox="0 0 87 117" fill="none" xmlns="http://www.w3.org/2000/svg">
<path d="M28.9243 66.7302C15.0607 62.0369 0.0444586 43.2165 0.000244639 30.4763C-0.0144934 26.5609 0.625742 25.9731 4.89649 25.9731C9.07061 25.9731 9.80914 26.6003 9.80914 30.1488C9.80914 32.4447 10.9964 36.681 12.4489 39.5648C22.8294 60.175 47.4533 65.936 64.6312 51.776C71.0554 46.4818 76.8507 36.044 76.9129 29.6576C76.9424 26.6641 77.8692 25.9731 81.8615 25.9731C87.9041 25.9731 88.1743 28.6586 83.4074 41.3988C78.9925 53.1974 67.1891 64.115 55.6476 67.0741L47.4729 69.1685V77.8655V86.5626H57.2982H67.1235V91.4752V96.3879H57.2982H47.4729V106.213C47.4729 115.601 47.2911 116.039 43.379 116.039C39.4669 116.039 39.2851 115.601 39.2851 106.213V96.3879H29.4598H19.6345V91.4752C19.6345 86.6117 19.7262 86.5626 28.6411 86.5626H37.6475V79.1936C37.6475 75.1406 37.4641 71.2809 37.2382 70.6161C37.0122 69.9512 33.272 68.2023 28.9243 66.7302Z" fill="black"/>
<path fill-rule="evenodd" clip-rule="evenodd" d="M31.0319 3.54346C17.6956 10.5964 12.7813 26.9277 20.1044 39.8595C32.445 61.6488 65.0684 56.1024 69.7338 31.4229C71.1945 23.692 69.064 16.6062 63.308 10.0511C53.9477 -0.609379 43.0433 -2.80862 31.0319 3.54346ZM52.1481 41.6526C33.8484 51.1161 17.2977 29.6199 31.7524 15.1652C36.0772 10.8404 38.671 9.59752 43.379 9.59752C51.3539 9.59752 60.5733 18.2487 60.5733 25.7323C60.5733 32.8868 57.3621 38.9572 52.1481 41.6526Z" fill="black"/>
</svg>
