<svg width="115" height="115" viewBox="0 0 115 115" fill="none" xmlns="http://www.w3.org/2000/svg">
<path fill-rule="evenodd" clip-rule="evenodd" d="M38.9071 2.58679C22.5119 8.44104 10.8656 19.19 3.6538 35.1217C0.901067 41.2036 0.0577265 46.2489 0.00368718 56.9503C-0.0569023 68.9192 0.59321 72.2991 4.64943 81.0781C9.79299 92.2167 20.6811 103.645 31.3121 109.07C58.674 123.029 94.525 111.191 108.633 83.5409C123.595 54.2107 110.316 17.7735 79.7018 4.15065C68.8203 -0.689958 50.0965 -1.40885 38.9071 2.58679ZM21.3312 24.5153C27.5588 17.2396 37.5381 11.7424 48.4573 9.5726C61.1287 7.05404 75.775 10.6714 86.7237 19.0213C108.634 35.7293 111.927 68.2331 93.7963 88.8302C75.2722 109.876 45.2821 111.689 24.8323 92.9995C12.4786 81.7069 8.41253 71.9143 9.24605 55.4536C9.94528 41.6474 12.698 34.601 21.3312 24.5153ZM53.1538 45.0126C44.2864 48.2713 41.8792 60.0289 48.7553 66.4907C56.5435 73.8073 69.5294 68.2806 69.5294 57.6496C69.5294 52.3079 65.013 45.4874 61.4759 45.4874C60.6489 45.4874 58.99 45.178 57.7914 44.798C56.591 44.4198 54.5048 44.5164 53.1538 45.0126Z" fill="black"/>
</svg>
