<svg width="1238" height="1590" viewBox="0 0 1238 1590" fill="none" xmlns="http://www.w3.org/2000/svg">
<g clip-path="url(#clip0_614_1027)">
<path fill-rule="evenodd" clip-rule="evenodd" d="M607.392 4.08317C597.265 12.9467 593.455 17.5747 591.755 23.0753C589.531 30.2764 589.36 54.0533 591.271 90.2343C591.794 100.136 592.224 110.928 592.227 114.215C592.233 122.7 591.836 123.097 582.282 124.137C577.323 124.677 573.284 124.615 548.406 123.612C528.362 122.805 518.475 122.202 500.554 120.693C485.235 119.404 480.813 119.212 465.494 119.176C455.852 119.154 447.418 119.289 446.751 119.477C445.703 119.772 445.427 120.29 444.728 123.267C442.604 132.318 442.755 134.644 445.676 137.877C448.603 141.116 451.654 142.965 459.395 146.188C463.531 147.91 469.208 150.366 472.01 151.645C486.742 158.373 525.138 164.903 574.657 169.102C594.984 170.826 595.594 171.017 597.375 176.209C598.445 179.327 603.366 217.205 604.795 233.317C605.211 238.008 606.273 245.577 607.156 250.137C609.604 262.777 609.72 263.533 610.503 272.12C611.013 277.708 611.715 282.009 612.825 286.336C615.751 297.746 617.242 306.85 618.301 319.783C619.866 338.889 624.674 364.583 627.999 371.612C630.641 377.197 634.766 379.849 642.448 380.901C647.477 381.589 649.679 381.222 651.174 379.444C652.795 377.519 653.061 374.538 652.736 361.961C652.447 350.747 651.867 344.056 649.531 324.995C648.748 318.611 647.269 306.138 646.243 297.278C645.217 288.419 642.444 265.393 640.081 246.11C634.158 197.781 632.034 179.306 632.032 176.084C632.029 172.838 632.876 170.955 634.718 170.115C636.007 169.527 650.678 168.452 673.962 167.24C687.275 166.546 692.533 167.335 698.184 170.874C703.404 174.144 703.973 174.331 708.67 174.331C713.721 174.331 715.413 173.715 716.856 171.347C718.109 169.292 718.027 167.851 716.378 162.93C711.179 147.412 700.482 134.575 688.646 129.654C678.763 125.544 666.634 124.254 646.006 125.119C633.441 125.645 631.073 125.484 628.983 123.956C628.141 123.341 628.085 121.85 627.813 92.5582C627.348 42.429 627.387 39.8359 628.677 34.602C630.45 27.4095 629.968 25.267 624.194 14.6671C621.429 9.58998 621.387 9.5426 619.308 9.16594C615.075 8.39936 612.604 6.51369 612.604 4.05143C612.604 3.16735 611.604 0.917344 611.225 0.949561C611.071 0.962827 609.347 2.37281 607.392 4.08317ZM211.659 255.192C204.357 261.826 200.35 265.872 199.89 267.076C198.973 269.477 198.067 278.971 197.105 296.242C196.58 305.672 195.827 316.391 195.433 320.063C195.038 323.735 194.19 333.332 193.548 341.392C192.907 349.45 191.404 365.208 190.208 376.409C188.043 396.688 188.036 396.822 188.35 408.381C188.604 417.696 188.499 421.813 187.821 429.227C187.038 437.8 186.654 456.827 187.051 467.367C187.13 469.452 187.052 479.153 186.879 488.924C186.467 512.154 186.48 517.873 187.023 551.938L187.48 580.602L189.208 593.394C190.46 602.664 191.149 610.249 191.711 620.94C192.463 635.277 192.46 635.745 191.592 637.522C190.074 640.631 188.378 641.132 177.915 641.565C159.139 642.341 118.598 645.242 109.03 646.493C101.139 647.525 84.7328 651.094 63.4873 656.4C54.078 658.751 50.472 659.42 44.291 659.961C38.192 660.496 29.2076 659.99 22.8252 658.753C12.3669 656.724 9.32851 656.917 6.1243 659.812C3.62556 662.07 2.68463 664.937 1.43762 674.097C-0.575487 688.882 -0.601546 688.828 11.6079 694.907C20.9216 699.544 25.4599 701.247 35.7709 703.975C48.7304 707.404 52.478 707.971 60.1708 707.671C65.8018 707.452 67.7178 707.134 76.1829 705.012C86.9601 702.31 122.327 694.899 136.45 692.382C154.51 689.164 186.076 686.161 189.139 687.37C192.481 688.688 195.28 699.076 195.922 712.551C196.09 716.069 196.737 723.637 197.36 729.37C197.984 735.103 199.243 748.641 200.159 759.456C201.074 770.27 201.929 779.757 202.058 780.539C202.186 781.321 203.042 792.301 203.96 804.939C205.782 830.036 207.145 845.213 208.238 852.554C208.625 855.16 208.942 858.006 208.941 858.879C208.939 861.166 207.622 863.607 205.601 865.071L203.845 866.343L205.674 867.879C207.018 869.007 207.688 870.07 208.199 871.882C209.57 876.739 210.553 887.291 210.527 896.853C210.506 904.79 210.328 906.992 209.267 912.48C208.055 918.75 208.049 918.884 208.928 919.823C210.433 921.43 210.802 923.113 211.557 931.819C212.36 941.083 213.115 946.347 214.873 954.946C216.207 961.473 216.369 966.707 215.341 970.096C214.385 973.245 214.434 974.778 215.822 985.214C216.481 990.165 217.223 998.054 217.472 1002.74C217.721 1007.43 218.133 1012.23 218.387 1013.4C218.971 1016.11 218.984 1023.12 218.418 1029.41C218.012 1033.91 218.066 1034.58 219.145 1038.3C220.561 1043.19 220.59 1044.4 219.344 1046.73L218.377 1048.53L219.878 1050.24C221.353 1051.92 221.372 1052.01 220.987 1055.06C220.34 1060.19 220.588 1063.41 222.374 1073.1C224.335 1083.74 224.914 1090.64 225.318 1108.16C225.5 1116.09 225.885 1122.38 226.359 1125.22C226.888 1128.38 227.129 1133.17 227.17 1141.33C227.221 1151.59 227.347 1153.4 228.259 1156.95C229.714 1162.6 230.018 1167.04 229.308 1172.22L228.703 1176.62L231.362 1184.71C234.45 1194.1 234.787 1196.43 235.456 1213.1C235.778 1221.14 236.263 1226.63 237.109 1231.82C238.342 1239.38 238.647 1247.17 237.869 1251.21C237.56 1252.81 237.735 1254.6 238.61 1258.79C241.284 1271.6 242.244 1283.96 241.212 1292.3C240.727 1296.21 240.761 1296.83 241.565 1298.71C243.159 1302.43 243.611 1305.79 244.036 1317.1C244.266 1323.22 244.774 1330.26 245.163 1332.74C245.554 1335.21 246.095 1342.67 246.366 1349.32C246.905 1362.5 247.98 1375.29 250.211 1395.04C251.17 1403.52 251.791 1411.98 252.055 1420.15C252.388 1430.43 252.623 1433.09 253.477 1436.26C254.234 1439.06 254.524 1441.6 254.586 1445.97C254.667 1451.58 254.74 1451.99 255.976 1453.82C256.702 1454.9 257.508 1457 257.796 1458.56C258.806 1464.06 259.62 1467.8 260.354 1470.33L261.101 1472.9L265.459 1470.83C269.711 1468.81 269.825 1468.78 270.186 1469.76C270.859 1471.57 272.837 1482.13 273.453 1487.19C274.279 1493.97 274.271 1508.02 273.439 1511.26C273.084 1512.64 272.688 1513.67 272.559 1513.54C272.431 1513.41 271.329 1505.67 270.111 1496.34C268.893 1487.01 267.699 1479.37 267.456 1479.37C266.748 1479.37 264.89 1482.43 264.315 1484.54C263.614 1487.11 264.085 1493.19 265.31 1497.38C266.33 1500.86 266.527 1504.05 268.389 1547.12C268.795 1556.5 269.245 1564.93 269.39 1565.84C269.756 1568.13 271.959 1571.87 272.432 1571C272.628 1570.64 273.917 1567.67 275.295 1564.42C277.996 1558.03 278.012 1558 278.315 1558.3C278.808 1558.8 280.08 1570.08 280.452 1577.27C280.684 1581.73 281.112 1585.64 281.441 1586.27C282.127 1587.6 283.82 1589.53 284.302 1589.53C284.893 1589.53 286.147 1585.84 286.435 1583.25C286.587 1581.88 286.404 1577.88 286.028 1574.36C285.337 1567.89 285.532 1563.64 286.615 1561.62C287.464 1560.03 287.897 1560.78 288.198 1564.37C288.35 1566.18 288.826 1568.34 289.256 1569.17C290.646 1571.86 291.119 1570.25 291.254 1562.38C291.322 1558.42 291.697 1551.98 292.087 1548.07C292.893 1540 292.995 1530.58 292.327 1526.04C292.077 1524.35 291.337 1512.73 290.681 1500.22C288.307 1454.9 283.505 1378.01 282.356 1366.9C282.103 1364.45 281.364 1352.41 280.714 1340.13C279.247 1312.41 278.86 1306.74 274.787 1253.38C272.978 1229.66 271.173 1204.29 270.776 1197C269.963 1182.05 269.795 1179.76 267.204 1148.43C266.181 1136.06 264.911 1116.44 264.383 1104.84C263.355 1082.27 262.759 1073.12 260.577 1046.33C258.406 1019.69 257.805 1011.86 257.284 1003.45C256.248 986.733 255.284 963.567 254.89 945.89C254.482 927.603 254.159 924.054 252.512 919.825C252.164 918.931 251.915 914.312 251.836 907.276C251.736 898.386 251.461 894.329 250.468 887.141C249.615 880.954 249.224 876.028 249.219 871.389C249.214 867.631 248.164 851.569 246.85 835.145C244.805 809.606 243.338 789.17 238.339 716.578C236.922 696.002 236.646 687.492 237.329 685.423C238.107 683.063 240.171 681.449 243.166 680.859C244.536 680.588 270.069 677.9 299.906 674.883C329.743 671.868 369.292 667.602 387.793 665.404C485.507 653.799 502.867 651.632 530.165 647.637C538.895 646.36 555.205 644.123 566.41 642.667C589.392 639.68 600.161 638.113 628.002 633.706C667.157 627.508 718.573 620.078 738.157 617.789C745.062 616.982 758.814 615.154 768.716 613.728C796.475 609.728 801.602 609.042 834.098 604.976C881.575 599.037 953.491 589.87 958.582 589.109C965.209 588.119 966.812 588.193 968.17 589.551C968.792 590.173 969.435 591.399 969.599 592.275C970.127 595.101 966.846 640.94 963.889 672.042C958.197 731.901 953.085 762.393 943.315 794.752C938.025 812.275 934.589 818.186 927.57 821.846C924.083 823.664 918.625 823.739 915.116 822.017C911.427 820.208 908.545 816.895 905.889 811.407C902.908 805.25 902.009 802.477 900.249 794.01C895.16 769.527 892.323 745.253 890.705 712.355C890.061 699.24 888.748 693.195 884.676 684.597C881.971 678.886 875.771 673.372 869.279 670.904C868.193 670.491 867.784 670.605 866.504 671.682C864.521 673.351 863.891 674.994 863.032 680.745C862.185 686.403 861.571 687.752 858.779 690.086C856.698 691.826 856.211 692.884 855.422 697.39C855.262 698.302 854.945 705.977 854.719 714.446C854.351 728.184 854.122 731.172 852.589 742.162C849.037 767.64 845.148 790.534 842.841 799.54C841.172 806.061 834.56 826.301 833.266 828.856C829.967 835.364 824.465 837.88 820.188 834.835C818.597 833.701 814.55 828.381 813.125 825.549C810.128 819.592 803.059 796.957 799.956 783.382C793.77 756.324 790.844 745.158 786.792 733.16C778.065 707.319 769.764 694.341 756.175 685.294C750.875 681.766 747.582 680.333 744.773 680.333C740.634 680.333 734.106 683.643 729.095 688.282C725.195 691.893 717.576 703.567 712.362 713.921C706.197 726.162 699.958 745.098 698.401 756.289C697.786 760.709 697.315 761.712 695.659 762.127C694.642 762.383 694.159 762.164 693.083 760.959C691.771 759.491 691.396 758.394 689.444 750.307C687.508 742.284 683.716 734.543 676.007 722.875C671.686 716.337 668.601 713.101 664.266 710.563C658.539 707.21 654.186 707.234 650.945 710.638C649.267 712.4 648.235 714.751 646.21 721.423C645.398 724.096 644.606 725.498 642.601 727.814C639.708 731.154 637.616 735.115 636.522 739.32C636.033 741.2 635.549 747.136 635.096 756.85C633.728 786.098 630.168 822.892 626.774 842.842C623.43 862.504 617.668 881.279 612.638 888.9C608.16 895.685 604.626 897.62 600.152 895.738C598.245 894.936 593.391 890.252 591.324 887.22C588.795 883.51 588.119 880.801 587.051 870.084C584.941 848.917 585.217 840.423 588.529 824.601C591.436 810.712 592.599 803.362 592.952 796.648C593.359 788.905 592.783 785.471 590.332 781.013C589.329 779.189 587.928 775.602 587.218 773.043C585.601 767.209 583.683 764.166 576.557 756.134C570.621 749.443 570.224 749.21 565.421 749.608C561.571 749.928 560.681 750.831 557.094 758.064C548.543 775.314 546.747 782.685 545.79 804.465C545.075 820.724 544.527 827.567 543.686 830.699C542.64 834.596 530.995 860.701 525.483 871.506C522.957 876.457 518.351 884.878 515.246 890.22C508.452 901.91 505.755 904.947 499.36 908.105C492.138 911.671 488.739 911.736 481.855 908.436C472.204 903.811 463.357 894.93 458.209 884.697C455.089 878.495 453.541 863.278 454.844 851.607C455.822 842.838 457.58 836.061 463.693 817.494C469.551 799.702 473.643 789.532 482.185 771.537C484.783 766.065 488.146 758.825 489.66 755.45L492.412 749.312L490.722 746.211C489.792 744.505 488.669 741.831 488.225 740.267C486.442 733.988 481.96 727.442 475.953 722.346C467.711 715.354 464.51 715.303 458.598 722.071C444.505 738.206 434.266 744.275 415.273 747.754C409.897 748.739 408.271 748.795 385.424 748.795C359.63 748.795 358.683 748.723 353.681 746.382C352.378 745.772 350.295 744.429 349.054 743.398C344.599 739.701 340.042 739.116 335.12 741.611C332.589 742.893 329.547 745.932 328.733 747.991C328.455 748.694 328.199 751.747 328.162 754.775C328.099 760.094 328.039 760.391 326.409 763.569C324.742 766.818 324.729 766.885 325.417 768.948C326.807 773.119 334.255 778.52 342.073 781.026C345.613 782.162 348.447 784.193 349.863 786.61C351.228 788.938 359.59 813.036 361.27 819.484C362.947 825.918 363.988 834.218 363.992 841.183C363.995 847.753 362.367 859.719 360.5 866.847C357.611 877.876 352.18 887.683 344.171 896.334C337.226 903.836 332.616 904.56 325.85 899.213C320.908 895.306 318.978 894.302 316.412 894.302C313.279 894.302 310.684 896.175 308.608 899.933C306.416 903.899 306.183 906.089 307.426 911.034C307.988 913.267 308.77 917.314 309.163 920.028C310.328 928.053 311.631 929.963 318.62 933.9C322.94 936.333 324.855 937.08 331.176 938.8C333.651 939.473 337.702 940.682 340.178 941.486C343.966 942.716 345.429 942.95 349.417 942.959C358.094 942.978 363.646 940.065 373.451 930.351C382.528 921.358 385.399 917.216 393.225 901.828C402.071 884.432 404.794 875.216 406.032 858.477C406.715 849.249 406.613 839.498 405.781 834.314C404.846 828.485 402.483 819.558 399.154 809.271C396.849 802.149 395.137 795.365 395.137 793.358C395.137 792.755 399.325 792.267 413.509 791.216C418.278 790.862 419.773 790.915 421.8 791.508C423.161 791.907 424.451 792.401 424.667 792.606C424.883 792.811 423.648 798.461 421.923 805.162C416.185 827.449 415.066 834.538 414.703 850.896C414.344 867.108 415.189 874.083 418.865 885.245C423.513 899.356 438.025 923.713 447.114 932.658C452.981 938.433 457.296 940.606 468.28 943.317C496.113 950.186 507.085 950.997 518.139 947C528.221 943.354 537.521 934.378 546.254 919.865C550.051 913.555 555.485 905.855 556.141 905.856C556.316 905.856 558.379 908.112 560.725 910.869C568.855 920.426 574.233 923.754 588.246 927.899C618.637 936.888 623.616 936.893 634.263 927.941C640.753 922.485 645.296 916.378 648.743 908.478C656.264 891.245 661.497 868.946 665.445 837.312C666.377 829.843 667.322 823.393 667.545 822.977C668.245 821.668 669.931 820.38 670.334 820.846C670.543 821.087 671.095 822.99 671.56 825.075C672.55 829.499 678.421 851.261 681.851 863.214C684.706 873.165 685.938 875.91 688.557 878.163C694.51 883.284 705.76 887.357 714.223 887.456C720.319 887.526 722.572 885.411 723.455 878.791C723.967 874.953 727.746 826.099 728.93 808.018C730.071 790.577 732.225 776.66 736.498 759.108C738.547 750.692 742.772 736.964 744.192 734.108C745.397 731.683 748.757 728.659 750.246 728.659C751.705 728.659 759.051 753.177 769.126 791.673C773.893 809.89 774.642 812.485 777.688 821.352C780.881 830.642 784.176 838.439 787.961 845.661C791.341 852.107 793.237 854.784 796.596 857.852C800.332 861.263 803.449 862.617 823.912 869.708C833.771 873.125 834.221 873.233 837.9 873.082C843.343 872.86 846.973 870.991 852.393 865.618C859.008 859.061 863.211 851.801 869.146 836.682C871.984 829.453 873.518 826.622 875.041 825.807C875.851 825.373 876.174 825.668 877.74 828.274C885.647 841.436 890.727 846.213 900.447 849.628C903.043 850.54 907.06 852.181 909.374 853.275C915.359 856.104 925.205 858.542 930.987 858.628C936.58 858.711 939.526 858.021 944.964 855.355C954.565 850.648 962.19 841.924 967.544 829.524C968.6 827.077 971.46 819.13 973.898 811.865C976.337 804.599 978.692 798.257 979.133 797.77C980.888 795.83 983.104 797.5 983.104 800.762C983.104 802.909 986.969 835.623 988.355 845.211C989.343 852.041 992.873 865.502 994.845 869.96C996.054 872.694 999.309 876.269 1001.7 877.488C1002.7 877.999 1006.33 879.348 1009.78 880.487C1013.22 881.626 1017.84 883.213 1020.06 884.014C1027.42 886.675 1033.13 885.842 1038.09 881.383C1040.83 878.924 1045.21 873.358 1047.47 869.474C1049.79 865.492 1053.42 856.316 1058.45 841.657C1060.6 835.403 1062.86 829.295 1063.46 828.083C1064.47 826.058 1066.55 823.89 1067.48 823.89C1067.69 823.89 1070.05 826.822 1072.72 830.405C1082.9 844.06 1092.85 852.559 1107.09 859.795C1128.48 870.658 1145.64 872.898 1162.71 867.054C1174.29 863.089 1180.41 858.532 1186.6 849.271C1189.27 845.286 1190.64 843.687 1192.1 842.867C1194.3 841.633 1194.28 841.623 1195.93 845.193C1197.28 848.102 1197.54 852.769 1198.24 886.357C1198.83 914.713 1198.56 942.547 1197.24 989.952C1196.04 1033.04 1192.87 1077.9 1188.93 1107.69C1188.29 1112.51 1186.82 1123.81 1185.66 1132.8C1180.22 1174.85 1170.24 1215.07 1157.09 1247.93C1147.68 1271.43 1141.84 1282.51 1127.37 1304.31C1113.95 1324.53 1108.07 1331.86 1095.08 1344.58C1078.42 1360.89 1065.08 1370.89 1043.23 1383.42C1032.13 1389.79 1012.73 1398.75 1004.19 1401.44C1003.05 1401.8 1001.41 1402.95 1000.11 1404.3C998.305 1406.17 997.551 1406.61 995.841 1406.8C981.106 1408.47 976.186 1409.57 973.305 1411.84C972.33 1412.61 971.381 1412.8 968.678 1412.8C964.973 1412.8 960.967 1413.73 951.973 1416.65C945.96 1418.6 940.852 1419.43 934.758 1419.43C932.793 1419.44 928.636 1419.78 925.519 1420.2C921.781 1420.7 918.323 1420.86 915.353 1420.68C910.438 1420.37 906.488 1420.85 901.382 1422.36C898.679 1423.16 897.731 1423.71 896.218 1425.4L894.366 1427.46L892.978 1426.29C891.237 1424.83 889.607 1424.82 887.067 1426.27L885.077 1427.41L884.543 1425.79C884.085 1424.41 883.796 1424.18 882.506 1424.17C881.68 1424.17 879.191 1423.73 876.976 1423.2C871.27 1421.83 867.562 1421.9 864.798 1423.45L862.608 1424.67L861.567 1423.69C860.096 1422.31 856.014 1420.86 853.598 1420.86C852.471 1420.86 850.336 1421.1 848.852 1421.4C846.269 1421.92 846.047 1421.88 843.679 1420.57C841.233 1419.22 841.115 1419.2 833.099 1419.16L824.993 1419.11L820.307 1416.93C814.321 1414.15 811.092 1413.28 797.025 1410.66C777.326 1406.99 777.465 1407.03 768.814 1403.1C764.428 1401.11 756.134 1397.93 750.336 1396.01C744.55 1394.1 737.896 1391.64 735.551 1390.54C733.206 1389.45 727.13 1386.85 722.048 1384.77C716.967 1382.69 710.144 1379.6 706.887 1377.89C703.63 1376.18 693.977 1371.2 685.436 1366.81C666.823 1357.25 663.748 1355.47 650.27 1346.44C641.053 1340.26 635.573 1336.51 619 1325.03C616.655 1323.4 612.623 1319.98 610.039 1317.42C607.455 1314.86 603.831 1311.74 601.985 1310.49C596.042 1306.47 589.71 1301.39 586.368 1297.95C583.306 1294.8 559.605 1268.39 553.804 1261.67C550.242 1257.54 545.719 1251.36 543.391 1247.44C540.465 1242.52 530.434 1219.39 527.827 1211.56C521.941 1193.89 520.742 1177.95 524.022 1160.99C528.528 1137.68 542.276 1116.94 564.073 1100.56C589.802 1081.22 631.528 1066.58 687.462 1057.27C723.854 1051.21 760.197 1047.05 797.617 1044.67C809.2 1043.93 819.639 1042.87 823.324 1042.06C826.687 1041.32 833.473 1040.88 859.446 1039.69C878.593 1038.82 910.586 1036.87 921.986 1035.88C926.546 1035.49 935.927 1034.44 942.832 1033.54C959.105 1031.43 961.385 1031.2 983.345 1029.52C1000.54 1028.21 1004.25 1027.78 1013.28 1026.03C1016.35 1025.43 1019.48 1023.81 1019.56 1022.77C1019.57 1022.58 1018.79 1022.08 1017.81 1021.67C1015.86 1020.85 1014.16 1020.89 970.549 1022.9C959.604 1023.41 941.055 1024.04 929.329 1024.3C917.603 1024.57 903.851 1025 898.77 1025.26C883.229 1026.05 868.1 1026.63 849.26 1027.16C839.357 1027.43 826.778 1027.87 821.306 1028.13C815.629 1028.41 804.337 1028.48 795.011 1028.3C770.695 1027.82 742.519 1029.14 732.625 1031.21C727.839 1032.22 724.986 1032.45 713.046 1032.82C699.842 1033.23 695.968 1033.63 689.77 1035.2C687.948 1035.66 687.341 1035.63 686.182 1035.03C684.359 1034.09 683.393 1032.92 683.966 1032.35C684.826 1031.49 709.628 1028 727.497 1026.23C754.397 1023.56 777.736 1022.12 820.122 1020.52C833.802 1020.01 846.488 1019.47 848.312 1019.33C852.775 1018.99 860.999 1017.62 861.543 1017.14C861.795 1016.91 861.23 1016.43 860.226 1016.01C858.655 1015.35 858.057 1015.35 854.575 1015.97C852.104 1016.42 844.22 1016.87 833.004 1017.21C813.151 1017.81 813.639 1017.87 812.215 1014.43C811.819 1013.48 811.432 1012.63 811.357 1012.55C811.281 1012.46 809.438 1013.35 807.261 1014.51C805.084 1015.67 802.556 1016.85 801.644 1017.13C799.173 1017.88 788.452 1018.97 777.465 1019.58C766.026 1020.22 764.726 1020.02 761.504 1017.05L759.353 1015.06L747.571 1014.92C740.89 1014.84 735.788 1014.96 735.788 1015.2C735.788 1015.82 739.133 1016.72 741.528 1016.74C745.86 1016.78 749.779 1018.19 750.349 1019.9C750.611 1020.68 746.582 1021.39 740.052 1021.7C730.542 1022.15 723.344 1022.81 714.231 1024.06C709.54 1024.71 701.332 1025.56 695.99 1025.96C683.843 1026.88 675.811 1027.92 657.689 1030.93C642.916 1033.38 641.234 1033.57 640.161 1032.89C639.218 1032.29 645.462 1030.7 656.192 1028.81C661.274 1027.92 669.695 1026.33 674.907 1025.29C680.118 1024.25 687.34 1023.07 690.956 1022.66C697.916 1021.87 703.011 1020.79 704.337 1019.82C705.025 1019.31 704.794 1019.19 702.707 1018.91C701.036 1018.69 697.863 1018.96 692.566 1019.78C688.325 1020.43 681.125 1021.41 676.565 1021.94C646.818 1025.45 621.496 1030.84 597.77 1038.7C565.235 1049.49 544.559 1061.3 524.297 1080.68C514.012 1090.52 509.001 1097.33 502.512 1110.29C496.472 1122.36 493.424 1130.67 491.04 1141.56C489.801 1147.23 489.544 1169.15 490.581 1180.68C491.606 1192.08 492.275 1195.66 495.139 1205.14C498.33 1215.69 501.659 1224.59 505.092 1231.76C508.757 1239.41 510.091 1241.59 518.01 1252.9C535.899 1278.45 536.154 1278.78 548.894 1292.78C567.838 1313.59 573.149 1318.6 591.32 1332.82C614.564 1351.01 623.123 1357.13 640.32 1367.89C645.532 1371.15 653.166 1376.01 657.284 1378.67C666.172 1384.43 674.511 1389.01 690.542 1396.92C720.206 1411.55 737.898 1418.14 770.611 1426.72C776.083 1428.16 787.146 1431.06 795.196 1433.18C823.683 1440.66 828.701 1441.51 867.263 1445.52C881.727 1447.02 885.482 1447.06 888.609 1445.75C892.706 1444.04 897.063 1443.56 912.227 1443.12C920.591 1442.88 929.001 1442.46 930.916 1442.19C934.8 1441.64 947.803 1438.01 957.425 1434.8C960.891 1433.64 965.795 1432.39 968.322 1432.01C974.712 1431.04 980.485 1429.82 990.663 1427.26C995.472 1426.05 1001.87 1424.54 1004.88 1423.91C1007.89 1423.27 1010.77 1422.65 1011.29 1422.53C1011.82 1422.41 1013.41 1421.43 1014.84 1420.36C1018.29 1417.75 1019.93 1416.96 1028.58 1413.67C1032.62 1412.13 1039.25 1409.1 1043.3 1406.92C1053.3 1401.56 1056.53 1400.19 1063.99 1398.16C1065.69 1397.7 1066.15 1397.28 1067.1 1395.38C1068.02 1393.54 1068.88 1392.74 1071.97 1390.84C1075.53 1388.67 1099.66 1369.67 1111.53 1359.7C1122.13 1350.8 1125.41 1346.5 1141.4 1320.57C1150.5 1305.81 1159.05 1291.26 1160.12 1288.71C1160.51 1287.78 1161.36 1284.99 1162 1282.51C1162.65 1280.04 1164.36 1275.56 1165.81 1272.56C1167.26 1269.57 1170.22 1262.32 1172.38 1256.46C1177.2 1243.41 1177.71 1242.11 1180.98 1234.71C1185.02 1225.59 1187.37 1218.91 1192.79 1201.12C1198.88 1181.13 1200.78 1173.77 1204.11 1157.2C1207.07 1142.48 1208.59 1132.95 1210.29 1118.58C1210.96 1112.98 1211.9 1106.16 1212.4 1103.42C1212.89 1100.69 1213.42 1097.6 1213.57 1096.55C1214.1 1092.93 1216.85 1055.22 1218.59 1027.85C1218.87 1023.42 1219.51 1016.07 1220.01 1011.51C1220.52 1006.95 1221.14 1001.18 1221.4 998.697C1222.48 988.158 1225.66 842.651 1225.68 802.57C1225.7 770.716 1226.53 761.563 1235.17 698.382C1236.47 688.895 1237.52 679.514 1237.52 677.535C1237.52 673.165 1236.5 666.154 1234.91 659.541C1233.86 655.201 1233.43 654.224 1231.21 651.25C1229.82 649.396 1227.79 646.546 1226.69 644.917C1224.21 641.228 1223.03 640.436 1219.93 640.389C1217.8 640.357 1217.34 640.53 1216.22 641.782C1215.49 642.605 1214.18 645.409 1213.15 648.388C1210.57 655.779 1209.71 657.45 1207.05 660.16C1205.75 661.483 1204.29 663.447 1203.82 664.523C1202.91 666.561 1200.17 682.42 1198.95 692.652C1198 700.637 1197.36 711.599 1196.77 730.318C1196.07 752.496 1195.52 760.566 1194.4 764.95C1193.27 769.397 1179.68 803.586 1176.33 810.43C1173.42 816.382 1167.73 824.018 1162.67 828.782C1159.78 831.5 1157.71 832.95 1154.46 834.548C1148.49 837.478 1145.07 838.292 1138.74 838.289C1132.14 838.285 1128.48 837.379 1121.69 834.068C1106.27 826.555 1093.58 811.259 1087.39 792.729C1084.37 783.689 1081.74 771.095 1080.68 760.701C1079.89 752.886 1080.33 738.586 1081.6 731.166C1084.18 716.096 1083.03 705.242 1078.11 698.246C1076.95 696.602 1075.16 693.978 1074.12 692.415C1070.23 686.562 1068.9 685.545 1065.15 685.545C1061.66 685.545 1060.41 687.503 1058.21 696.442C1057.79 698.136 1056.62 700.908 1055.6 702.601C1050.48 711.092 1049.58 715.313 1048.97 733.397C1048.56 745.8 1048.52 746.123 1045.94 759.929C1040.94 786.639 1037.07 803.441 1033.13 815.599C1028.71 829.24 1022.49 846.303 1021.65 847.135C1021.16 847.608 1020.15 848.062 1019.39 848.143C1018.02 848.289 1017.99 848.243 1016.91 844.026C1015.49 838.537 1012.39 807.4 1011.31 787.883C1007.63 721.283 1006.69 696.959 1005.38 634.376C1004.57 595.841 1004.73 585.446 1006.19 584.13C1006.39 583.948 1009.22 583.323 1012.48 582.741C1015.74 582.159 1021.28 581.167 1024.8 580.537C1028.31 579.907 1035.88 578.871 1041.62 578.235C1047.35 577.599 1058.97 576.224 1067.44 575.18C1075.91 574.136 1090.51 572.416 1099.89 571.358C1124.99 568.529 1136.93 566.534 1149.64 563.043C1153.87 561.88 1157.58 561.211 1161.48 560.901C1167.66 560.411 1173.01 559.463 1177.83 558.005C1182.02 556.737 1192.12 551.888 1191.89 551.26C1191.78 550.982 1191.09 548.888 1190.35 546.608L1189 542.462H1184.69H1180.37L1179.57 540.781L1178.77 539.099L1176.05 539.364C1174.55 539.509 1166.93 540.06 1159.11 540.589C1141.4 541.785 1133.99 542.475 1113.39 544.84C1104.4 545.872 1091.19 547.261 1084.02 547.925C1076.85 548.589 1067.58 549.647 1063.41 550.274C1052.18 551.964 1048.31 552.396 1037.84 553.124C1032.62 553.487 1026.54 554.126 1024.32 554.545C1019.45 555.466 1010.7 555.603 1007.39 554.81L1004.98 554.231L1004.69 550.36C1004.54 548.231 1004.33 510.564 1004.22 466.656C1004.1 414.716 1003.85 384.009 1003.5 378.769C1002.45 362.88 1000.94 356.422 996.533 349.033C993.899 344.615 984.947 334.944 983.492 334.944C981.949 334.944 979.839 336.312 979.061 337.818C978.653 338.608 978.112 341.075 977.859 343.301C977.301 348.203 976.719 349.413 973.699 351.941C969.145 355.754 967.97 361.187 968.83 374.468C969.117 378.918 969.622 386.93 969.951 392.272C970.824 406.457 970.811 551.037 969.936 554.835C969.335 557.447 968.316 558.843 966.224 559.919C964.676 560.715 956.355 561.682 930.888 564.023C918.044 565.204 901.352 566.79 893.795 567.548C886.238 568.305 877.177 569.057 873.659 569.219C854.7 570.093 842.752 571.104 831.019 572.825C827.501 573.341 816.777 574.396 807.188 575.168C786.338 576.848 780.78 577.447 765.873 579.621C748.001 582.229 744.032 582.685 734.534 583.224C728.444 583.57 722.758 584.24 716.526 585.347C703.613 587.64 691.926 588.863 677.986 589.378C666.963 589.785 660.19 590.468 654.475 591.749C653.307 592.01 649.645 592.437 646.336 592.696C638.72 593.292 631.534 594.637 626.095 596.483C622.763 597.615 620.459 598.029 615.447 598.4C611.929 598.661 605.32 599.293 600.759 599.806C596.199 600.318 590.576 600.737 588.263 600.737C585.951 600.738 574.544 601.904 562.916 603.329C538.511 606.32 531.958 607.025 501.265 609.966C488.887 611.152 467.886 613.302 454.597 614.744C441.307 616.186 422.657 618.209 413.153 619.239C386.016 622.182 360.77 624.741 343.257 626.327C296.118 630.593 250.947 634.947 244.387 635.857C234.024 637.293 233.651 637.087 232.331 629.165C230.332 617.16 228.949 521.321 230.271 486.319C230.516 479.804 230.927 466.159 231.182 455.996C231.437 445.834 231.871 435.6 232.147 433.255C232.422 430.909 233.073 417.797 233.593 404.117C234.113 390.436 234.843 372.527 235.216 364.319C236.281 340.8 237.072 309.877 236.723 305.341C236.548 303.063 236.035 299.571 235.583 297.581C234.948 294.785 234.793 292.291 234.904 286.618C235.024 280.42 234.895 278.687 234.071 275.512C232.711 270.269 230.06 265.144 227.205 262.239C225.027 260.022 215.509 252.506 214.881 252.506C214.735 252.506 213.286 253.714 211.659 255.192ZM1169.72 541.724C1169.61 541.839 1165.68 542.278 1161 542.699C1156.31 543.121 1150.88 543.79 1148.93 544.188C1144.82 545.022 1140.15 546.756 1140.23 547.416C1140.26 547.665 1141.41 548.501 1142.78 549.275C1145.78 550.971 1150.98 551.468 1155.68 550.508C1157.31 550.176 1160.65 549.775 1163.1 549.618C1167.55 549.333 1167.57 549.325 1168.04 547.911C1168.3 547.129 1169.11 545.506 1169.85 544.305C1170.59 543.104 1171.2 541.984 1171.2 541.817C1171.2 541.475 1170.05 541.403 1169.72 541.724ZM1098.94 551.74C1080.92 555.389 1072.98 556.735 1071.22 556.438C1067.09 555.74 1054.33 558.15 1051.6 560.143C1050.76 560.759 1050.8 560.827 1052.26 561.336C1054.6 562.154 1083.36 560.035 1100.02 557.815C1107.38 556.835 1120.44 554.448 1123.55 553.514C1124.46 553.243 1124.46 553.23 1123.56 552.573C1123.06 552.206 1121.29 551.487 1119.63 550.975C1114.93 549.523 1108.77 549.751 1098.94 551.74ZM1036.29 561.748C1035.04 561.989 1034.83 563.311 1036.05 563.303C1038.2 563.29 1040.43 562.659 1040.43 562.062C1040.43 561.418 1038.69 561.286 1036.29 561.748ZM1010.07 563.123C1009.53 563.771 1009.57 563.985 1010.35 564.55C1011.15 565.137 1011.37 565.102 1012.22 564.247C1013.06 563.41 1013.09 563.215 1012.48 562.826C1011.45 562.175 1010.79 562.257 1010.07 563.123ZM115.334 944.285C115.155 944.574 115.297 944.99 115.649 945.207C116.324 945.624 117.145 944.81 116.729 944.136C116.395 943.596 115.715 943.669 115.334 944.285ZM140.24 948.468C140.24 948.713 140.454 949.045 140.714 949.206C140.975 949.367 141.188 949.167 141.188 948.761C141.188 948.354 140.975 948.022 140.714 948.022C140.454 948.022 140.24 948.222 140.24 948.468ZM722.877 1017.07C721.686 1017.19 721.101 1017.49 721.101 1017.97C721.101 1018.52 721.446 1018.62 722.522 1018.42C723.304 1018.27 724.583 1018.02 725.365 1017.87C726.147 1017.72 726.786 1017.4 726.786 1017.16C726.786 1016.72 726.27 1016.71 722.877 1017.07ZM630.709 1034.34C629.819 1035.23 630.027 1035.75 631.2 1035.59C631.786 1035.5 632.266 1035.13 632.266 1034.76C632.266 1033.86 631.418 1033.63 630.709 1034.34ZM675.736 1034.17C674.834 1034.74 676.185 1036.39 677.228 1035.99C677.868 1035.75 677.926 1035.5 677.516 1034.73C676.961 1033.69 676.641 1033.59 675.736 1034.17ZM619.242 1036.38C618.722 1037 618.767 1037.23 619.522 1037.8C620.31 1038.39 620.496 1038.37 621.02 1037.68C622.174 1036.16 620.462 1034.91 619.242 1036.38ZM260.582 1349.55C260.582 1351.84 260.696 1352.16 261.529 1352.16C262.284 1352.16 262.476 1351.85 262.47 1350.62C262.461 1348.37 261.984 1346.95 261.237 1346.95C260.759 1346.95 260.582 1347.65 260.582 1349.55ZM262.483 1366.26C262.486 1367.49 262.807 1372.23 263.195 1376.79C263.628 1381.88 263.894 1390.59 263.884 1399.37C263.868 1413.1 264.126 1422.55 264.663 1427.85C264.886 1430.06 265.035 1430.33 266.012 1430.33C266.616 1430.33 267.613 1429.93 268.228 1429.43C269.319 1428.54 269.344 1428.36 269.217 1421.97C269.094 1415.82 267.275 1386.49 266.271 1374.46C265.916 1370.21 265.553 1368.5 264.587 1366.52C263.909 1365.14 263.157 1364.01 262.916 1364.01C262.675 1364.01 262.48 1365.02 262.483 1366.26ZM267.204 1441.27C266.682 1443.21 266.909 1445.41 267.807 1447.12C268.275 1448.01 268.304 1448.01 268.936 1447.15C269.781 1445.99 269.762 1443.05 268.897 1440.98C268.52 1440.08 268.101 1439.34 267.968 1439.34C267.835 1439.34 267.491 1440.21 267.204 1441.27ZM265.958 1457.6C265.684 1458.31 266.983 1460.18 267.751 1460.18C267.965 1460.18 268.502 1459.63 268.943 1458.96C269.626 1457.92 269.646 1457.67 269.073 1457.31C268.01 1456.64 266.264 1456.8 265.958 1457.6ZM273.981 1529.4C274.131 1530.03 274.733 1533.15 275.318 1536.34C275.904 1539.54 276.559 1542.15 276.773 1542.15C276.989 1542.15 277.162 1540.28 277.16 1538C277.156 1534.63 276.943 1533.4 276.024 1531.43C274.766 1528.73 273.525 1527.5 273.981 1529.4Z" fill="white"/>
</g>
<defs>
<clipPath id="clip0_614_1027">
<rect width="1238" height="1589.55" fill="white" transform="translate(0 0.451172)"/>
</clipPath>
</defs>
</svg>
