<svg width="120" height="115" viewBox="0 0 120 115" fill="none" xmlns="http://www.w3.org/2000/svg">
<path fill-rule="evenodd" clip-rule="evenodd" d="M0 4.01199C0 7.74726 0.648426 8.0584 9.41589 8.51527L18.8319 9.00655L19.2756 41.3483L19.7194 73.6899H9.75159C-0.157256 73.6899 -0.21456 73.7178 0.30127 78.1932C0.813824 82.6556 0.941605 82.7014 14.3286 83.1714L27.8384 83.6479V64.7489V45.8515H41.7576H55.6768V62.4629V79.0742L49.8291 84.1605C45.3782 88.0316 43.7636 90.8974 43.0693 96.1605C42.2407 102.449 42.6812 103.598 47.9345 108.852C52.7014 113.618 54.9072 114.629 60.5518 114.629C65.9279 114.629 68.4154 113.605 72.1785 109.842C78.5879 103.433 78.94 92.6741 72.9498 86.2107C70.7407 83.8281 68.1616 81.8777 67.2183 81.8777C66.1261 81.8777 65.5021 75.3291 65.5021 63.8646V45.8515H78.5486H91.595L92.0584 64.274L92.5218 82.6965L106.032 83.1714L119.541 83.6479V78.6681C119.541 73.726 119.478 73.6899 110.535 73.6899H101.528V40.9389V8.18777H110.535C119.05 8.18777 119.541 7.96507 119.541 4.09389C119.541 0.0474901 119.378 0 105.622 0H91.7031V18.0131V36.0262H78.6026H65.5021V18.0131V0H60.5895H55.6768V18.0131V36.0262H41.7576H27.8384V18.0131V0H13.9192C0.239058 0 0 0.0687621 0 4.01199ZM52.4017 97.4345C52.4017 95.5431 53.286 93.1113 54.3668 92.0305C58.4067 87.9907 68.7773 91.4509 68.7773 96.8401C68.7773 101.098 65.0928 104.803 60.8597 104.803C55.4591 104.803 52.4017 102.141 52.4017 97.4345Z" fill="black"/>
</svg>
