<svg width="76" height="116" viewBox="0 0 76 116" fill="none" xmlns="http://www.w3.org/2000/svg">
<path fill-rule="evenodd" clip-rule="evenodd" d="M26.9164 0.978168C14.1746 5.09171 4.60476 15.4132 1.07256 28.8526C-3.71238 47.0655 8.02557 68.0016 26.0747 73.4416C29.453 74.4585 32.2696 75.7276 32.3335 76.2598C32.399 76.7937 32.584 79.9591 32.7429 83.2964C33.0294 89.2604 32.9213 89.3734 26.4841 89.8466C20.7363 90.2707 19.8717 90.8701 19.4247 94.7347C18.9498 98.8483 19.382 99.1725 25.9748 99.6474L33.0343 100.155L33.5337 107.933C33.9841 114.957 34.4213 115.712 38.037 115.712C41.7494 115.712 42.0409 115.117 42.0409 107.524V99.3362H48.5911C54.7777 99.3362 55.1413 99.0628 55.1413 94.4236C55.1413 89.7844 54.7777 89.5109 48.5911 89.5109H42.0409V82.4989C42.0409 75.6392 42.1931 75.4427 49.1708 73.3826C81.0376 63.9733 84.4748 18.708 54.501 3.20852C48.7352 0.22653 33.1473 -1.03275 26.9164 0.978168ZM12.4094 49.5529C5.78878 34.9722 10.3427 21.3428 24.8465 12.3346C30.7581 8.66157 43.5769 8.27675 49.9011 11.5813C62.1599 17.9858 68.9049 32.7958 65.1975 45.1708C57.8121 69.8242 22.9307 72.7194 12.4094 49.5529Z" fill="black"/>
</svg>
